<?xml version="1.0" encoding="utf-8"?>
<!-- Generator: Adobe Illustrator 26.5.1, SVG Export Plug-In . SVG Version: 6.00 Build 0)  -->
<svg version="1.1" id="Layer_1" xmlns="http://www.w3.org/2000/svg" xmlns:xlink="http://www.w3.org/1999/xlink" x="0px" y="0px"
	 viewBox="0 0 129.2308 105.1282" style="enable-background:new 0 0 129.2308 105.1282;" xml:space="preserve">
<g>
	<g>
		<path d="M49.2308,83.0897c10.2,0,19.9717-8.9691,19.5-19.5c-0.4732-10.5651-8.568-19.5-19.5-19.5
			c-10.2,0-19.9717,8.9691-19.5,19.5C30.204,74.1549,38.2988,83.0897,49.2308,83.0897L49.2308,83.0897z"/>
	</g>
</g>
<g>
	<g>
		<path style="fill:#E0E1E2;" d="M49.2308,83.0897c10.2,0,19.9717-8.9691,19.5-19.5c-0.4732-10.5651-8.568-19.5-19.5-19.5
			c-10.2,0-19.9717,8.9691-19.5,19.5C30.204,74.1549,38.2988,83.0897,49.2308,83.0897L49.2308,83.0897z"/>
	</g>
</g>
<g>
	<g>
		<path style="fill:#E0E1E2;" d="M78.4615,81.5513c10.2,0,19.9717-8.9691,19.5-19.5c-0.4732-10.5651-8.568-19.5-19.5-19.5
			c-10.2,0-19.9717,8.9691-19.5,19.5C59.4348,72.6164,67.5295,81.5513,78.4615,81.5513L78.4615,81.5513z"/>
	</g>
</g>
<g>
	<g>
		<path style="fill:#E0E1E2;" d="M70.2564,66.6795c10.2,0,19.9717-8.9691,19.5-19.5c-0.4732-10.5651-8.568-19.5-19.5-19.5
			c-10.2,0-19.9717,8.9691-19.5,19.5C51.2296,57.7446,59.3244,66.6795,70.2564,66.6795L70.2564,66.6795z"/>
	</g>
</g>
<g>
	<g>
		<path style="fill:#E0E1E2;" d="M96.9231,61.5513c10.2,0,19.9717-8.9691,19.5-19.5c-0.4732-10.5651-8.568-19.5-19.5-19.5
			c-10.2,0-19.9717,8.9691-19.5,19.5C77.8963,52.6164,85.9911,61.5513,96.9231,61.5513L96.9231,61.5513z"/>
	</g>
</g>
<g>
	<g>
		<path style="fill:#E0E1E2;" d="M47.6923,44.6282c10.2,0,19.9717-8.9691,19.5-19.5c-0.4732-10.5651-8.568-19.5-19.5-19.5
			c-10.2,0-19.9717,8.9691-19.5,19.5C28.6655,35.6933,36.7603,44.6282,47.6923,44.6282L47.6923,44.6282z"/>
	</g>
</g>
<g>
	<g>
		<path style="fill:#E0E1E2;" d="M38.9744,58.9872c10.2,0,19.9717-8.9691,19.5-19.5c-0.4732-10.5651-8.568-19.5-19.5-19.5
			c-10.2,0-19.9717,8.9691-19.5,19.5C19.9476,50.0523,28.0423,58.9872,38.9744,58.9872L38.9744,58.9872z"/>
	</g>
</g>
<g>
	<g>
		<path style="fill:#E0E1E2;" d="M77.4359,46.1667c10.2,0,19.9717-8.9691,19.5-19.5c-0.4732-10.5651-8.568-19.5-19.5-19.5
			c-10.2,0-19.9717,8.9691-19.5,19.5C58.4091,37.2318,66.5039,46.1667,77.4359,46.1667L77.4359,46.1667z"/>
	</g>
</g>
<g>
	<g>
		<path style="fill:#E0E1E2;" d="M89.1609,81.9154c2.4286,0.9293,4.833,1.2489,7.4071,1.5948
			c2.5885,0.3478,4.9712,0.6264,7.5658,0.3183c2.6848,0.1013,5.1891-0.4585,7.5129-1.6794c2.4175-0.7864,4.5094-2.1304,6.2756-4.032
			c3.3821-3.3821,5.929-8.9311,5.7114-13.7886c-0.2259-5.0432-1.8825-10.2737-5.7114-13.7886
			c-3.5494-3.2583-8.7738-6.3068-13.7886-5.7114c-1.6748,0.1988-3.2967,0.2071-4.9738,0.0299
			c1.728,0.2322,3.4559,0.4644,5.1839,0.6966c-1.6694-0.2388-3.24-0.6438-4.8152-1.2466
			c-4.4585-1.7061-11.0624-0.3537-15.0259,1.9658c-4.045,2.3671-7.9026,7.0051-8.9614,11.6538
			c-1.137,4.9918-0.8909,10.595,1.9658,15.0259c1.0164,1.3155,2.0327,2.631,3.0491,3.9466
			C82.9893,79.3173,85.8575,80.989,89.1609,81.9154L89.1609,81.9154z"/>
	</g>
</g>
<g>
	<g>
		<path style="fill:#E0E1E2;" d="M68.7179,98.4744c10.2,0,19.9717-8.9691,19.5-19.5c-0.4732-10.5651-8.568-19.5-19.5-19.5
			c-10.2,0-19.9717,8.9691-19.5,19.5C49.6912,89.5395,57.7859,98.4744,68.7179,98.4744L68.7179,98.4744z"/>
	</g>
</g>
<g>
	<g>
		<path style="fill:#E0E1E2;" d="M23.0769,81.0385c10.2,0,19.9717-8.9691,19.5-19.5c-0.4732-10.5651-8.568-19.5-19.5-19.5
			c-10.2,0-19.9717,8.9691-19.5,19.5C4.0501,72.1036,12.1449,81.0385,23.0769,81.0385L23.0769,81.0385z"/>
	</g>
</g>
</svg>
