<?xml version="1.0" encoding="utf-8"?>
<!-- Generator: Adobe Illustrator 26.5.0, SVG Export Plug-In . SVG Version: 6.00 Build 0)  -->
<svg version="1.1" xmlns="http://www.w3.org/2000/svg" xmlns:xlink="http://www.w3.org/1999/xlink" x="0px" y="0px"
	 viewBox="0 0 253.31 368.6" style="enable-background:new 0 0 253.31 368.6;" xml:space="preserve">
<style type="text/css">
	.st0{fill:#FFFFFF;}
</style>
<g id="Layer_1">
	<g>
		<g>
			<path class="st0" d="M194.25,184.11c5.17,3.46,11.32,6.72,17.52,3.79c2.72-1.29,4.43-3.84,5.25-6.66
				c0.72-2.47,0.75-5.33,1.74-7.62c0.54-1.24,0.37-2.68-0.9-3.42c-1.06-0.62-2.88-0.35-3.42,0.9c-1.03,2.37-1.35,4.8-1.88,7.31
				c-0.42,2.04-0.98,3.88-2.78,4.9c-1.73,0.98-3.9,0.93-5.84,0.36c-2.62-0.76-4.92-2.37-7.17-3.88c-1.12-0.75-2.77-0.22-3.42,0.9
				C192.63,181.92,193.12,183.36,194.25,184.11L194.25,184.11z"/>
		</g>
	</g>
	<path d="M124.55,4.76c-52.19,0-94.5,67.16-94.5,150s42.31,150,94.5,150s94.5-67.16,94.5-150S176.74,4.76,124.55,4.76z
		 M91.69,110.19c-9.2,0-16.02-7.52-16.42-16.42c-0.4-8.87,7.83-16.42,16.42-16.42c9.2,0,16.02,7.52,16.42,16.42
		C108.51,102.64,100.28,110.19,91.69,110.19z M123.62,145.65c-15.43,0-15.4-23.93,0-23.93
		C139.04,121.71,139.02,145.65,123.62,145.65z M152.88,108.86c-9.2,0-16.02-7.52-16.42-16.42c-0.4-8.87,7.83-16.42,16.42-16.42
		c9.2,0,16.02,7.52,16.42,16.42C169.69,101.31,161.47,108.86,152.88,108.86z"/>
</g>
<g id="Layer_1_copy">
	<g>
		<g>
			<path class="st0" d="M194.25,184.11c5.17,3.46,11.32,6.72,17.52,3.79c2.72-1.29,4.43-3.84,5.25-6.66
				c0.72-2.47,0.75-5.33,1.74-7.62c0.54-1.24,0.37-2.68-0.9-3.42c-1.06-0.62-2.88-0.35-3.42,0.9c-1.03,2.37-1.35,4.8-1.88,7.31
				c-0.42,2.04-0.98,3.88-2.78,4.9c-1.73,0.98-3.9,0.93-5.84,0.36c-2.62-0.76-4.92-2.37-7.17-3.88c-1.12-0.75-2.77-0.22-3.42,0.9
				C192.63,181.92,193.12,183.36,194.25,184.11L194.25,184.11z"/>
		</g>
	</g>
	<path d="M247.7,136.11c-4.4-7.73-14.02-11.73-22.47-8.46c-2.88,1.11-5.21,3-7.18,5.3C211.4,60.44,172.08,4.76,124.55,4.76
		c-47.46,0-86.75,55.54-93.48,127.92c-1.6-2.8-3.52-5.42-6.22-7.25c-8.03-5.43-18.88-1.37-22.91,7.06
		c-4.58,9.57-0.42,20.08,5.53,27.95c6.6,8.73,14.41,16.6,22.68,23.79v148.99c0,1.15,0.32,2.09,0.84,2.82
		c4.43,16.06,26.32,19.68,35.54,5.23c2.25-3.53,2.43-7.11,3.09-11.1c0.66-3.96,4.45-5.96,8.28-4.46c9.09,3.56,5.66,15.96,8.77,22.97
		c2.8,6.31,9.65,9.71,16.41,9.19c7.78-0.61,12.96-6.17,14.62-13.59c0.92-4.14,0.57-8.84,2.66-12.65c3.25-5.93,7.24,0.6,8.37,4.31
		c2.57,8.47,4.44,16.83,12.37,22.04c6.96,4.57,16.99,4.37,22.97-1.82c6.37-6.59,3.75-15.07,4.25-23.07
		c0.62-0.58,1.09-1.41,1.29-2.51c0.8-4.3,5.4-3.01,8.1-1.22c3.25,2.15,5.54,5.72,7.39,9.07c3.52,6.38,5.36,13.63,9.19,19.83
		c3.27,5.3,8.44,10.22,15.06,10.33c5.3,0.09,9.52-3.26,10.28-7.94c0.51-0.74,0.83-1.68,0.81-2.83
		c-0.77-58.18-1.29-116.36-1.59-174.55c0.26-0.12,0.51-0.27,0.77-0.45c8.58-6.06,19.16-11.7,25.51-20.26
		C250.78,154.99,252.52,144.56,247.7,136.11z M91.69,110.19c-9.2,0-16.02-7.52-16.42-16.42c-0.4-8.87,7.83-16.42,16.42-16.42
		c9.2,0,16.02,7.52,16.42,16.42C108.51,102.64,100.28,110.19,91.69,110.19z M123.62,145.65c-15.43,0-15.4-23.93,0-23.93
		C139.04,121.71,139.02,145.65,123.62,145.65z M152.88,108.86c-9.2,0-16.02-7.52-16.42-16.42c-0.4-8.87,7.83-16.42,16.42-16.42
		c9.2,0,16.02,7.52,16.42,16.42C169.69,101.31,161.47,108.86,152.88,108.86z"/>
</g>
</svg>
