<?xml version="1.0" encoding="utf-8"?>
<!-- Generator: Adobe Illustrator 26.5.1, SVG Export Plug-In . SVG Version: 6.00 Build 0)  -->
<svg version="1.1" id="Layer_1" xmlns="http://www.w3.org/2000/svg" xmlns:xlink="http://www.w3.org/1999/xlink" x="0px" y="0px"
	 viewBox="0 0 1000 300" style="enable-background:new 0 0 1000 300;" xml:space="preserve">
<polygon style="fill:#2A5A2C;" points="833.824,68.4879 826.2964,61.0144 818.7687,68.4879 674.8796,68.4879 659.4954,53.2144 
	649.3859,63.2511 644.1111,58.0144 636.419,65.6512 628.7268,58.0144 618.1774,68.4879 429.2375,68.4879 413.8532,53.2144 
	403.7437,63.2511 398.469,58.0144 387.9195,68.4879 121.3473,68.4879 123.7646,66.0879 108.3803,50.8144 92.996,66.0879 
	95.4134,68.4879 0,69.8229 0,301.1992 1000,299.8642 1000,68.4879 "/>
<ellipse style="fill:#231F20;" cx="212.8651" cy="54.7053" rx="12.2719" ry="15.9112"/>
<rect x="200.5932" y="54.7053" style="fill:#231F20;" width="24.5438" height="15.9112"/>
<ellipse style="fill:#231F20;" cx="875.7535" cy="56.6662" rx="7.981" ry="11.8217"/>
<rect x="867.7725" y="58.9776" style="fill:#231F20;" width="15.962" height="10.6413"/>
<ellipse style="fill:#231F20;" cx="498.9845" cy="49.9323" rx="11.4727" ry="18.5556"/>
<rect x="487.5119" y="50.8144" style="fill:#231F20;" width="22.9453" height="17.6735"/>
</svg>
