<?xml version="1.0" encoding="utf-8"?>
<!-- Generator: Adobe Illustrator 26.5.1, SVG Export Plug-In . SVG Version: 6.00 Build 0)  -->
<svg version="1.1" id="Layer_1" xmlns="http://www.w3.org/2000/svg" xmlns:xlink="http://www.w3.org/1999/xlink" x="0px" y="0px"
	 viewBox="0 0 1000 300" style="enable-background:new 0 0 1000 300;" xml:space="preserve">
<polygon style="fill:#2A5A2C;" points="833.824,68.4879 826.2964,61.0144 818.7687,68.4879 674.8796,68.4879 659.4954,53.2144 
	649.3859,63.2511 644.1111,58.0144 636.419,65.6512 628.7268,58.0144 618.1774,68.4879 429.2375,68.4879 413.8532,53.2144 
	403.7437,63.2511 398.469,58.0144 387.9195,68.4879 121.3473,68.4879 123.7646,66.0879 108.3803,50.8144 92.996,66.0879 
	95.4134,68.4879 0,69.8229 0,301.1992 1000,299.8642 1000,68.4879 "/>
<ellipse style="opacity:0.2;enable-background:new    ;" cx="506.6795" cy="235.2063" rx="13.2" ry="6"/>
<ellipse style="opacity:0.2;enable-background:new    ;" cx="326.3391" cy="252.9946" rx="20.4" ry="5.7883"/>
<ellipse style="opacity:0.2;enable-background:new    ;" cx="346.7391" cy="176.0068" rx="12.6" ry="4.2"/>
<ellipse style="fill:#231F20;" cx="187.0024" cy="43.4549" rx="14" ry="25.5"/>
<rect x="173.0024" y="43.4549" style="fill:#231F20;" width="28" height="25.5"/>
<rect x="181.5155" y="30.2589" transform="matrix(-0.6336 0.7737 -0.7737 -0.6336 329.6467 -93.6586)" style="fill:#711712;" width="10.9739" height="1.9491"/>
<rect x="181.6817" y="30.2589" transform="matrix(0.7737 0.6336 -0.6336 0.7737 62.1103 -111.4108)" style="fill:#711712;" width="10.6413" height="1.9491"/>
<ellipse style="fill:#231F20;" cx="34.6741" cy="37.7786" rx="16.5439" ry="31.1763"/>
<rect x="18.1302" y="34.5358" style="fill:#231F20;" width="33.0878" height="35.7482"/>
<rect x="24.5682" y="23.104" transform="matrix(0.7071 0.7071 -0.7071 0.7071 27.3287 -18.005)" style="fill:#B72725;" width="21.6603" height="1.7644"/>
<rect x="22.69" y="24.0725" transform="matrix(0.7071 -0.7071 0.7071 0.7071 -7.4102 32.0195)" style="fill:#B72725;" width="24.5116" height="1.7644"/>
<ellipse style="fill:#9D9FA2;" cx="958.6393" cy="48.7684" rx="10.8907" ry="19.7195"/>
<rect x="947.7487" y="50.8144" style="fill:#9D9FA2;" width="21.7814" height="17.6735"/>
</svg>
