<?xml version="1.0" encoding="utf-8"?>
<!-- Generator: Adobe Illustrator 26.5.1, SVG Export Plug-In . SVG Version: 6.00 Build 0)  -->
<svg version="1.1" id="Layer_1" xmlns="http://www.w3.org/2000/svg" xmlns:xlink="http://www.w3.org/1999/xlink" x="0px" y="0px"
	 viewBox="0 0 1000 300" style="enable-background:new 0 0 1000 300;" xml:space="preserve">
<polygon style="fill:#2A5A2C;" points="833.824,68.4879 826.2964,61.0144 818.7687,68.4879 674.8796,68.4879 659.4954,53.2144 
	649.3859,63.2511 644.1111,58.0144 636.419,65.6512 628.7268,58.0144 618.1774,68.4879 429.2375,68.4879 413.8532,53.2144 
	403.7437,63.2511 398.469,58.0144 387.9195,68.4879 121.3473,68.4879 123.7646,66.0879 108.3803,50.8144 92.996,66.0879 
	95.4134,68.4879 0,69.8229 0,301.1992 1000,299.8642 1000,68.4879 "/>
<ellipse style="opacity:0.2;enable-background:new    ;" cx="915.9112" cy="127.3539" rx="13.2" ry="6"/>
<ellipse style="opacity:0.2;enable-background:new    ;" cx="326.3391" cy="252.9946" rx="20.4" ry="5.7883"/>
<ellipse style="opacity:0.2;enable-background:new    ;" cx="61.1844" cy="196.5834" rx="12.6" ry="4.2"/>
<ellipse style="fill:#717375;" cx="493.941" cy="44.1682" rx="19.1765" ry="24.3197"/>
<rect x="474.7645" y="41.1312" style="fill:#717375;" width="38.3531" height="28.3768"/>
<ellipse style="fill:#717375;" cx="966.8143" cy="39.7344" rx="12.0823" ry="28.7535"/>
<rect x="954.732" y="38.3995" style="fill:#717375;" width="24.1646" height="30.0884"/>
</svg>
