<?xml version="1.0" encoding="utf-8"?>
<!-- Generator: Adobe Illustrator 26.5.1, SVG Export Plug-In . SVG Version: 6.00 Build 0)  -->
<svg version="1.1" id="Layer_1" xmlns="http://www.w3.org/2000/svg" xmlns:xlink="http://www.w3.org/1999/xlink" x="0px" y="0px"
	 viewBox="0 0 1000 300" style="enable-background:new 0 0 1000 300;" xml:space="preserve">
<polygon style="fill:#2A5A2C;" points="833.824,68.4879 826.2964,61.0144 818.7687,68.4879 674.8796,68.4879 659.4954,53.2144 
	649.3859,63.2511 644.1111,58.0144 636.419,65.6512 628.7268,58.0144 618.1774,68.4879 429.2375,68.4879 413.8532,53.2144 
	403.7437,63.2511 398.469,58.0144 387.9195,68.4879 121.3473,68.4879 123.7646,66.0879 108.3803,50.8144 92.996,66.0879 
	95.4134,68.4879 0,69.8229 0,301.1992 1000,299.8642 1000,68.4879 "/>
<path style="fill:#FFFFFF;" d="M790.2526,157.6279c-0.0922-0.0381-0.1866-0.0566-0.2802-0.084l0.0112-0.0271
	c1.3896,0.5739,2.9814-0.0874,3.5553-1.477c0.5739-1.3897-0.0873-2.9814-1.4771-3.5553c-1.3896-0.5739-2.9814,0.0874-3.5553,1.4771
	l-20.2653-8.3692c0.7355-1.7809-0.112-3.8209-1.8929-4.5564c-1.7809-0.7355-3.8209,0.112-4.5564,1.8929
	c-0.6315,1.5293-0.0902,3.2442,1.2015,4.1655c-0.9465,0.1132-1.8077,0.7086-2.1974,1.6523
	c-0.5739,1.3896,0.0874,2.9815,1.4771,3.5553c1.2906,0.533,2.7448-0.0082,3.4068-1.2l20.8517,8.6113
	c-0.1961,1.2179,0.4528,2.4555,1.6426,2.9468c1.3896,0.5739,2.9814-0.0874,3.5553-1.477
	C792.3035,159.7936,791.6422,158.2018,790.2526,157.6279z"/>
</svg>
