<?xml version="1.0" encoding="utf-8"?>
<!-- Generator: Adobe Illustrator 26.5.1, SVG Export Plug-In . SVG Version: 6.00 Build 0)  -->
<svg version="1.1" id="Layer_1" xmlns="http://www.w3.org/2000/svg" xmlns:xlink="http://www.w3.org/1999/xlink" x="0px" y="0px"
	 viewBox="0 0 112.8205 181.5385" style="enable-background:new 0 0 112.8205 181.5385;" xml:space="preserve">
<ellipse style="fill:#8D9092;" cx="56.1538" cy="80.5128" rx="47.4359" ry="75.8974"/>
<g>
	<g>
		<path style="fill:#8D9092;" d="M17.9487,83.8846c10.9387,0,10.9568-17,0-17C7.01,66.8846,6.9919,83.8846,17.9487,83.8846
			L17.9487,83.8846z"/>
	</g>
</g>
<g>
	<g>
		<path style="fill:#8D9092;" d="M9.4487,83.5897c0,26.8376,0,53.6752,0,80.5128c0,10.9387,17,10.9568,17,0
			c0-26.8376,0-53.6752,0-80.5128C26.4487,72.6511,9.4487,72.6329,9.4487,83.5897L9.4487,83.5897z"/>
	</g>
</g>
<g>
	<g>
		<path style="fill:#8D9092;" d="M86.8846,81.5385c0,27.3504,0,54.7009,0,82.0513c0,10.9387,17,10.9568,17,0
			c0-27.3504,0-54.7009,0-82.0513C103.8846,70.5998,86.8846,70.5817,86.8846,81.5385L86.8846,81.5385z"/>
	</g>
</g>
<g>
	<g>
		<path style="fill:#8D9092;" d="M17.9487,172.0897c26.1538,0,52.3077,0,78.4615,0c10.9387,0,10.9568-17,0-17
			c-26.1538,0-52.3077,0-78.4615,0C7.01,155.0897,6.9919,172.0897,17.9487,172.0897L17.9487,172.0897z"/>
	</g>
</g>
<g>
	<g>
		<path style="fill:#8D9092;" d="M68.9759,127.5789c5.4664,7.3291,11.0893,15.0295,15.1688,23.2383
			c-0.3868-1.43-0.7737-2.8601-1.1605-4.2901c0.0638,0.534,0.1276,1.0679,0.1914,1.6019c0.3868-1.43,0.7737-2.8601,1.1605-4.2901
			c1.7453-1.0409,1.8575-1.4066,0.3366-1.097c-1.3216,0.1251-2.6434,0.2466-3.9657,0.3646c-1.9833,0.177-3.9673,0.3463-5.952,0.507
			c-4.3002,0.3483-8.6033,0.6595-12.9089,0.9333c-8.613,0.5477-17.5146,1.5091-26.1412,1.1029
			c1.43,0.3868,2.8601,0.7737,4.2901,1.1605c-0.3645-0.1755-0.729-0.351-1.0934-0.5265c1.0165,1.0165,2.0329,2.0329,3.0494,3.0494
			c-1.6541-3.6057-1.9088-8.9055-2.3769-12.8203c-0.5449-4.5575-3.5166-8.5-8.5-8.5c-4.1709,0-9.0487,3.9111-8.5,8.5
			c1.1774,9.8464,1.4004,25.8086,14.4105,26.1972c11.8234,0.3532,24.0033-1.0141,35.7855-1.9381
			c9.0023-0.706,25.5062,0.5977,27.2537-11.5131c0.8328-5.7721-3.3891-11.0959-6.3015-15.6934
			c-3.1613-4.9906-6.5359-9.8318-10.0675-14.5667c-2.7403-3.6741-7.3529-5.5509-11.6296-3.0494
			C68.4034,118.0677,66.2153,123.8776,68.9759,127.5789L68.9759,127.5789z"/>
	</g>
</g>
<g>
	<path d="M26.2996,76.1036c0,1.6323,0.0317,3.2246,0.0962,4.7764c0.0635,1.5522,0.2397,2.8076,0.5278,3.7681
		c0.5762,0.3521,1.2241,0.5684,1.9438,0.6479c0.7202,0.0801,1.3999,0.1362,2.04,0.168c0.6401,0.0322,1.1763,0.0957,1.6084,0.1919
		c0.4316,0.0962,0.6479,0.3047,0.6479,0.624c0,0.1606-0.0806,0.2964-0.2402,0.4077c-0.1606,0.1118-0.416,0.1685-0.7681,0.1685
		c-0.9282,0.0312-2.1919-0.0083-3.792-0.1201c-1.6006-0.1128-3.4243-0.168-5.4717-0.168c-2.6245,0-4.6006,0.0874-5.9282,0.2637
		c-1.3281,0.1758-2.1201,0.2642-2.376,0.2642c-0.2241,0-0.416-0.0562-0.5762-0.168c-0.1597-0.1123-0.2397-0.2642-0.2397-0.4561
		c0-0.4155,0.1919-0.6396,0.5762-0.6719c0.3838-0.0317,1.104-0.1274,2.1597-0.2881c0.7036-0.064,1.2798-0.1514,1.728-0.2642
		c0.4478-0.1118,0.8955-0.2476,1.3442-0.4077c0.1919-0.7036,0.3516-1.4238,0.48-2.1602c0.1274-0.7358,0.2397-1.6558,0.3359-2.7598
		c0.0957-1.104,0.168-2.4795,0.2158-4.1284c0.0479-1.6475,0.0723-3.7676,0.0723-6.3599c0-2.3677-0.0166-4.3755-0.0483-6.0239
		c-0.0322-1.6479-0.0884-3.0239-0.168-4.1279c-0.0801-1.104-0.1602-1.9756-0.2397-2.6162c-0.0806-0.6396-0.168-1.1353-0.2642-1.4878
		c-0.416-0.2881-0.96-0.4717-1.6318-0.5522c-0.6724-0.0791-1.3286-0.144-1.9683-0.1919c-0.6401-0.0479-1.1924-0.1201-1.6558-0.2158
		c-0.4644-0.0962-0.6963-0.3198-0.6963-0.6719c0-0.4155,0.2559-0.624,0.7681-0.624c0.5762,0,1.5601,0.0718,2.9521,0.2158
		s3.0962,0.2158,5.1118,0.2158c0.3198,0,0.5762-0.0479,0.7681-0.144c0.3198-0.1597,0.832-0.3838,1.5361-0.6719
		c0.7036-0.2881,1.5195-0.5757,2.4478-0.8638c0.9277-0.2881,1.9121-0.5439,2.9521-0.7681c1.0396-0.2236,2.0557-0.3359,3.0479-0.3359
		c1.6001,0,3.1201,0.1846,4.5601,0.5518c1.4399,0.3682,2.6958,0.9204,3.7681,1.6562c1.0718,0.7363,1.9277,1.6484,2.5679,2.7358
		c0.6401,1.0884,0.9604,2.3521,0.9604,3.792c0,1.4087-0.3286,2.7119-0.9844,3.9121c-0.6562,1.1997-1.4805,2.2964-2.4717,3.2881
		c-0.9927,0.9922-2.0806,1.8477-3.2642,2.5679c-1.1841,0.7197-2.2881,1.2886-3.312,1.7041c1.3115,0,2.5513,0.1362,3.7202,0.4077
		c1.1675,0.2725,2.2236,0.6562,3.168,1.1523c0.9434,0.4961,1.728,1.0962,2.3516,1.7998c0.624,0.7041,1.0322,1.5044,1.2241,2.3999
		c0,0.4487-0.0405,0.7441-0.1201,0.8882c-0.0801,0.144-0.2324,0.3765-0.4556,0.6958c0.6396,1.0244,1.3511,2.2319,2.1357,3.624
		c0.7837,1.3921,1.6636,2.7202,2.6401,3.9839c0.9756,1.2642,2.064,2.3354,3.2642,3.2163c1.1997,0.8794,2.5356,1.3198,4.0078,1.3198
		c0.2881,0,0.6157-0.0166,0.9839-0.0479c0.3677-0.0322,0.7202-0.0962,1.0562-0.1919c0.3359-0.0962,0.6479-0.2402,0.936-0.4321
		s0.4956-0.4487,0.624-0.7681c0.1274-0.0962,0.2554-0.144,0.3838-0.144c0.1597,0,0.2642,0.0796,0.312,0.2402
		c0.0479,0.1597,0.0879,0.3193,0.1201,0.48c-0.6406,1.4399-2.2246,2.1597-4.752,2.1597c-1.2803,0-2.5044-0.2085-3.6719-0.624
		c-1.1689-0.416-2.2886-0.9683-3.3604-1.6558c-1.0723-0.6885-2.0962-1.4805-3.0718-2.376c-0.9766-0.8955-1.896-1.8242-2.7603-2.7842
		c-0.6401-0.7036-1.3843-1.584-2.2319-2.6401c-0.8481-1.0557-1.752-2.1357-2.7119-3.2397s-1.9604-2.1436-3-3.1201
		c-1.04-0.9756-2.0723-1.7354-3.0962-2.2798c-0.48-0.2236-1.0244-0.3916-1.6318-0.5039c-0.6084-0.1118-1.1924-0.1924-1.752-0.2402
		c-0.5601-0.0479-1.0801-0.0718-1.5601-0.0718s-0.8481,0-1.104,0c-0.1919,0-0.3525,0.0078-0.48,0.0239
		c-0.1284,0.0166-0.2241,0.0239-0.2881,0.0239V76.1036z M27.1155,55.8956c-0.1602,0.6084-0.2876,1.4565-0.3838,2.5444
		s-0.1763,2.2798-0.2402,3.5757c-0.0645,1.2959-0.1123,2.6401-0.1436,4.0322c-0.0327,1.3921-0.0483,2.7119-0.0483,3.96
		c0.3198,0.2563,0.936,0.4004,1.8481,0.4321c0.9121,0.0322,1.896,0.0479,2.9521,0.0479c0.9277,0,1.7036-0.0796,2.3276-0.2402
		c0.624-0.1597,1.2075-0.4478,1.752-0.8638c0.3198-0.2236,0.6797-0.5918,1.0801-1.104c0.3999-0.5117,0.7837-1.1196,1.1523-1.8242
		c0.3672-0.7031,0.6792-1.4951,0.936-2.376c0.2554-0.8794,0.3838-1.8154,0.3838-2.8081c0-1.4399-0.1606-2.7275-0.48-3.8638
		c-0.3203-1.1353-0.7524-2.1118-1.2959-2.9282c-0.5444-0.8159-1.1846-1.4399-1.9199-1.8716
		c-0.7368-0.4321-1.5205-0.6479-2.3521-0.6479c-0.4487,0-0.9526,0.0884-1.5122,0.2637c-0.5601,0.1763-1.1123,0.4082-1.6558,0.6963
		c-0.5449,0.2876-1.0249,0.6162-1.4404,0.9839c-0.416,0.3682-0.6885,0.7603-0.8159,1.1758L27.1155,55.8956z"/>
	<path d="M58.5555,86.6158c-0.5762,0-1.2163,0.0073-1.9199,0.0239c-0.7046,0.0156-1.3921,0.0317-2.064,0.0479
		c-0.6724,0.0161-1.3042,0.0483-1.896,0.0962c-0.5928,0.0479-1.0488,0.0879-1.3682,0.1201l-0.7681,0.0957
		c-0.1606,0-0.2964-0.0884-0.4077-0.2637c-0.1118-0.1758-0.1685-0.3438-0.1685-0.5039c0-0.1279,0.0649-0.2642,0.1924-0.4082
		s0.3037-0.2158,0.5278-0.2158c1.3442,0,2.4155-0.0796,3.2158-0.2402c0.7998-0.1597,1.2798-0.3677,1.4404-0.624
		c0.1919-0.3838,0.3911-1.2397,0.5996-2.5679c0.208-1.3276,0.3916-2.8799,0.5522-4.6562c0.1597-1.7759,0.2881-3.6396,0.3838-5.5918
		c0.0962-1.9517,0.144-3.7598,0.144-5.4238c0-1.8242-0.0083-3.3521-0.0239-4.584c-0.0166-1.2319-0.0322-2.248-0.0479-3.0483
		c-0.0166-0.7993-0.0322-1.416-0.0483-1.8477c-0.0161-0.4321-0.0239-0.7441-0.0239-0.936c-0.0322-1.0239-0.1763-1.7041-0.4316-2.04
		c-0.2568-0.3359-0.7202-0.5356-1.3921-0.6001c-0.48-0.064-1.0405-0.0796-1.6802-0.0479c-0.6406,0.0322-1.104,0.0322-1.3921,0
		c-0.2241-0.0317-0.416-0.0723-0.5757-0.1201c-0.1606-0.0479-0.2402-0.2158-0.2402-0.5039c0-0.3198,0.0796-0.5356,0.2402-0.6479
		c0.1597-0.1118,0.3359-0.168,0.5278-0.168c0.2559,0,1.0801,0.0562,2.4722,0.168c1.3916,0.1123,3.3838,0.168,5.9756,0.168
		c1.6958,0,3.144-0.04,4.3442-0.1201c1.2002-0.0796,2.0234-0.1514,2.4722-0.2158c0.2231,0,0.4395,0.0239,0.6479,0.0718
		c0.2075,0.0479,0.312,0.2002,0.312,0.4561c0,0.5444-0.3682,0.8481-1.104,0.9121c-0.2568,0-0.5444,0.0161-0.8643,0.0479
		c-0.3203,0.0322-0.6323,0.0645-0.936,0.0962c-0.3042,0.0322-0.584,0.0801-0.8398,0.1436c-0.2563,0.0649-0.4487,0.1128-0.5762,0.144
		c-0.1602,0.0645-0.312,0.6479-0.4561,1.752c-0.1436,1.104-0.272,2.4722-0.3838,4.104c-0.1123,1.6323-0.2158,3.3926-0.312,5.2803
		c-0.0962,1.8887-0.1606,3.6323-0.1919,5.2319c-0.0322,1.2163-0.0562,2.6323-0.0723,4.248c-0.0161,1.6162,0,3.168,0.0483,4.6558
		c0.0479,1.4883,0.1196,2.7769,0.2158,3.8643c0.0962,1.0884,0.2402,1.7124,0.4321,1.8721c0.1274,0.0957,0.3672,0.1846,0.7197,0.2637
		c0.3521,0.0806,0.7681,0.1606,1.248,0.2402c0.48,0.0801,0.9678,0.1362,1.4644,0.168c0.4956,0.0322,0.9517,0.0479,1.3677,0.0479
		c0.3521,0,0.5762,0.0322,0.6719,0.0962c0.0962,0.0645,0.144,0.2241,0.144,0.48c0,0.2881-0.1196,0.4956-0.3599,0.624
		c-0.2397,0.1274-0.4883,0.1919-0.7441,0.1919c-0.1919,0-0.48-0.0166-0.8638-0.0479c-0.3843-0.0322-0.9121-0.0723-1.584-0.1201
		s-1.5205-0.0884-2.5439-0.1201c-1.0244-0.0322-2.2886-0.0479-3.792-0.0479H58.5555z"/>
	<path d="M73.7708,72.2159c0-3.9038-0.0322-7.0874-0.0957-9.5522c-0.0645-2.4634-0.1606-4.3921-0.2881-5.7837
		c-0.1284-1.3921-0.2881-2.3438-0.48-2.856c-0.1919-0.5117-0.4321-0.7681-0.7202-0.7681c-0.0957,0-0.2876,0.0083-0.5757,0.0239
		c-0.2881,0.0166-0.6001,0.0239-0.936,0.0239s-0.6323-0.0073-0.8882-0.0239c-0.2563-0.0156-0.3838-0.0557-0.3838-0.1201
		c0-0.0957,0-0.2798,0-0.5518c0-0.2715,0.0635-0.4395,0.1919-0.5044c0.1597-0.0312,0.5117-0.0479,1.0562-0.0479
		c0.5435,0,1.1758,0.0166,1.896,0.0479c0.7197,0.0322,1.4639,0.0566,2.2319,0.0723c0.7681,0.0166,1.4712,0.0239,2.1118,0.0239
		c0.6396,0,1.1597,0,1.5601,0c0.3999,0,0.5835-0.0312,0.5522-0.0962c0.1274,0,0.4395-0.1035,0.9355-0.312
		c0.4961-0.2075,1.1201-0.4395,1.8721-0.6958c0.7515-0.2559,1.6157-0.4873,2.5918-0.6958c0.9766-0.208,1.9922-0.312,3.0488-0.312
		c3.999,0,7.1348,0.8398,9.4067,2.52c2.2725,1.6797,3.4082,3.9922,3.4082,6.936c0,2.4956-0.4961,4.7275-1.4883,6.6958
		c-0.9922,1.9678-2.2959,3.6479-3.9106,5.04c-1.6172,1.3921-3.4404,2.4561-5.4727,3.1919c-2.0322,0.7363-4.0879,1.104-6.168,1.104
		c-0.6401,0-1.3364-0.0312-2.0879-0.0962c-0.7524-0.0635-1.3042-0.1753-1.6558-0.3359c0,0.8003,0,1.8408,0,3.1201
		c0,1.2803,0.0156,2.5605,0.0479,3.8398c0.0312,1.2803,0.0957,2.4409,0.1919,3.48c0.0962,1.0396,0.2236,1.7202,0.3843,2.04
		c0.0957,0.2236,0.2954,0.3604,0.5996,0.4082c0.3037,0.0479,0.6479,0.064,1.0322,0.0479c0.3838-0.0166,0.7754-0.0479,1.1758-0.0957
		c0.3999-0.0483,0.7441-0.0723,1.0327-0.0723c0.0957,0.0317,0.1592,0.1035,0.1914,0.2163c0.0312,0.1113,0.0479,0.2397,0.0479,0.3838
		s-0.0166,0.2715-0.0479,0.3838c-0.0322,0.1118-0.0957,0.1685-0.1914,0.1685c-0.6089,0-1.3047,0.0718-2.0884,0.2158
		c-0.7847,0.144-1.6162,0.3359-2.4961,0.5762c-0.8804,0.2397-1.7603,0.5195-2.6401,0.8398c-0.8804,0.3193-1.7202,0.6553-2.52,1.0078
		c-0.7681,0.3198-1.728,0.8237-2.8799,1.5122c-1.1519,0.6875-2.3042,1.3755-3.4561,2.064c-1.1519,0.6875-2.208,1.2876-3.168,1.7998
		c-0.96,0.5117-1.6318,0.7681-2.0161,0.7681c-0.1597,0-0.3433-0.0645-0.5518-0.1919c-0.208-0.1284-0.3843-0.2725-0.5283-0.4321
		c-0.144-0.1606-0.1992-0.312-0.168-0.4561c0.0322-0.144,0.2085-0.248,0.5283-0.312c0.8003-0.1279,1.7441-0.4482,2.832-0.96
		c1.0879-0.5122,2.144-1.0723,3.168-1.6797c1.0234-0.6084,1.9272-1.1929,2.7119-1.752c0.7837-0.5605,1.2876-0.9526,1.5117-1.1763
		c0.1602-0.1606,0.3281-0.8721,0.5044-2.1357c0.1753-1.2646,0.3433-2.7998,0.5039-4.6084c0.1597-1.8071,0.2954-3.7754,0.4077-5.9038
		C73.7147,76.1119,73.7708,74.1041,73.7708,72.2159z M79.4832,72.1197c0.1597,0.4487,0.7197,0.8726,1.6797,1.272
		c0.96,0.4004,2.208,0.6001,3.7437,0.6001c1.4082,0,2.6963-0.2642,3.8643-0.792s2.1758-1.3198,3.0244-2.376
		c0.8477-1.0562,1.5039-2.3594,1.9678-3.9121c0.4639-1.5518,0.6963-3.3516,0.6963-5.3999c0-1.5039-0.2246-2.8716-0.6719-4.104
		c-0.4492-1.2314-1.0645-2.2798-1.8486-3.144c-0.7842-0.8638-1.7041-1.5361-2.7598-2.0161s-2.1924-0.7197-3.4082-0.7197
		c-0.6719,0-1.3359,0.0884-1.9912,0.2637c-0.6567,0.1763-1.2485,0.3843-1.7764,0.624c-0.5283,0.2402-0.9604,0.4966-1.2964,0.7681
		c-0.3359,0.2725-0.5361,0.5205-0.5996,0.7441c-0.0649,0.1919-0.1201,0.6719-0.1685,1.4399
		c-0.0479,0.7681-0.0957,1.7041-0.1436,2.8081c-0.0483,1.104-0.0962,2.3203-0.144,3.6479
		c-0.0483,1.3281-0.0806,2.6323-0.0962,3.9121c-0.0166,1.2803-0.0322,2.4883-0.0479,3.624
		C79.4905,70.4962,79.4832,71.4161,79.4832,72.1197z"/>
</g>
</svg>
