<?xml version="1.0" encoding="utf-8"?>
<!-- Generator: Adobe Illustrator 26.5.1, SVG Export Plug-In . SVG Version: 6.00 Build 0)  -->
<svg version="1.1" id="Layer_1" xmlns="http://www.w3.org/2000/svg" xmlns:xlink="http://www.w3.org/1999/xlink" x="0px" y="0px"
	 viewBox="0 0 84.6154 148.2051" style="enable-background:new 0 0 84.6154 148.2051;" xml:space="preserve">
<ellipse style="fill:#8F9194;" cx="42.7417" cy="57.1795" rx="35.5622" ry="53.5897"/>
<g>
	<g>
		<path style="fill:#8F9194;" d="M6.7692,57.4359c0,23.0769,0,46.1538,0,69.2308c0,5.1476,8,5.1562,8,0
			c0-23.0769,0-46.1538,0-69.2308C14.7692,52.2883,6.7692,52.2798,6.7692,57.4359L6.7692,57.4359z"/>
	</g>
</g>
<g>
	<g>
		<path style="fill:#8F9194;" d="M69.8462,54.8718c0,24.9573,0,49.9145,0,74.8718c0,5.1476,8,5.1561,8,0
			c0-24.9573,0-49.9145,0-74.8718C77.8462,49.7242,69.8462,49.7156,69.8462,54.8718L69.8462,54.8718z"/>
	</g>
</g>
<g>
	<g>
		<path style="fill:#8F9194;" d="M10.7692,130.1538c20.8547,0,41.7094,0,62.5641,0c5.1476,0,5.1561-8,0-8
			c-20.8547,0-41.7094,0-62.5641,0C5.6216,122.1538,5.6131,130.1538,10.7692,130.1538L10.7692,130.1538z"/>
	</g>
</g>
<g>
	<g>
		<path style="fill:#8F9194;" d="M73.8462,125.7436c-21.1966,0-42.3932,0-63.5897,0c-5.1476,0-5.1561,8,0,8
			c21.1966,0,42.3932,0,63.5897,0C78.9938,133.7436,79.0023,125.7436,73.8462,125.7436L73.8462,125.7436z"/>
	</g>
</g>
<g>
	<g>
		<path style="fill:#8F9194;" d="M11.2821,132.2051c5.1476,0,5.1561-8,0-8C6.1344,124.2051,6.1259,132.2051,11.2821,132.2051
			L11.2821,132.2051z"/>
	</g>
</g>
<g>
	<g>
		<path style="fill:#8F9194;" d="M10.4259,88.7826c-0.0596,4.9011,0.1048,9.7891,0.6045,14.667
			c0.2462,2.4031,0.5578,4.8041,0.9184,7.1928c0.1802,1.2108,0.3788,2.4186,0.5959,3.6233c0.1253,1.2996,0.227,1.551,0.3052,0.7542
			c1.2949-0.9957,2.5897-1.9914,3.8846-2.9871c-0.2849,0.113-0.5698,0.226-0.8548,0.3389c-7.0187,2.783-5.6276,11.819,1.728,12.7678
			c13.7437,1.7729,27.2279-2.2583,40.9603-1.6696c5.7293,0.2456,11.7839,0.7264,14.006-5.9735
			c0.8633-2.6029,0.3684-5.5889,0.2093-8.2495c-0.2384-3.9862-0.4767-7.9725-0.7151-11.9587
			c-0.4351-7.2755-10.4922-8.8753-12.7678-1.728c-0.6016,1.8894-1.8297,5.8355-3.5744,6.6735
			c-1.9395,0.9316-7.8323-0.6203-9.9546-0.6636c-3.4455-0.0704-6.7271,0.4057-10.1162,0.9355
			c-1.2646,0.1977-2.6536,0.6991-3.9391,0.447c-0.4038-0.0792,1.2427-1.1228-0.1438,0.4291
			c5.5587-6.2222-3.6046-15.4471-9.1924-9.1924c-3.9391,4.4092-4.7865,10.6536-1.5467,15.7909
			c3.9167,6.2104,10.8834,6.3559,17.4056,5.2293c4.1839-0.7227,8.0859-0.6833,12.3195-0.3714
			c3.167,0.2334,6.4119,0.8107,9.507-0.2392c6.3695-2.1606,9.888-9.6689,11.7708-15.5828c-4.2559-0.576-8.5119-1.152-12.7678-1.728
			c0.1589,2.6575,0.3178,5.315,0.4767,7.9725c0.0993,1.6609,0.1986,3.3219,0.298,4.9828c0.1339,2.2386-0.7594,3.6373,1.9014,1.8006
			c2.602-1.7961,1.4706-1.2248-0.3897-1.3761c-1.2396-0.1008-2.473-0.1882-3.7168-0.2229c-2.7976-0.0779-5.5951,0.0423-8.3849,0.252
			c-10.5827,0.7953-21.0151,2.8137-31.6452,1.4425c0.576,4.2559,1.152,8.5119,1.728,12.7678
			c6.5347-2.5911,6.783-7.9159,5.7447-14.0975c-1.2276-7.3083-1.7446-14.618-1.6544-22.0272
			C23.5277,80.4146,10.5278,80.4095,10.4259,88.7826L10.4259,88.7826z"/>
	</g>
</g>
<g style="enable-background:new    ;">
	<path d="M31.5684,74.6154c-0.2158-0.2158-0.3726-0.3779-0.4678-0.4863c-0.0962-0.1074-0.2046-0.2334-0.3242-0.3779
		c-0.1206-0.1436-0.27-0.3535-0.4502-0.6299c-0.1797-0.2754-0.4624-0.6895-0.8457-1.2422
		c-0.4565-0.6709-0.8584-1.2773-1.2061-1.8174c-0.3481-0.54-0.7021-1.0742-1.062-1.6025c-0.3599-0.5273-0.7505-1.0615-1.1699-1.6016
		c-0.4204-0.54-0.918-1.1465-1.4941-1.8184c-0.4805-0.5518-1.0024-1.0674-1.5659-1.5479c-0.5645-0.4795-1.1582-0.7793-1.7822-0.9004
		c-0.4561-0.0947-0.8042-0.1436-1.0439-0.1436c-0.2158,0-0.4922-0.0117-0.8281-0.0361c0,1.5605,0,2.916,0,4.0684
		c0,1.1514,0.0122,2.124,0.0361,2.916c0.0239,0.7686,0.0479,1.4277,0.0723,1.9795c0.0234,0.5527,0.1558,1.0078,0.396,1.3682
		c0.1914,0.3125,0.5635,0.6299,1.1157,0.9541c0.5518,0.3242,1.3198,0.5098,2.3042,0.5576v0.3604h-11.52v-0.3604
		c0.5996-0.0957,1.1758-0.2393,1.728-0.4316c0.5518-0.1914,0.9839-0.4795,1.2959-0.8643c0.1196-0.1436,0.2158-0.3594,0.2881-0.6475
		c0.0718-0.2881,0.126-0.6123,0.1621-0.9727c0.0356-0.3594,0.0654-0.7432,0.0898-1.1514c0.0234-0.4082,0.0361-0.8037,0.0361-1.1885
		c0-0.3359,0.0054-0.792,0.0181-1.3682c0.0117-0.5752,0.0234-1.2061,0.0356-1.8896c0.0117-0.6836,0.0181-1.3857,0.0181-2.1064
		c0-0.7432,0-1.4395,0-2.0879v-7.0195c0-0.4316-0.0063-0.8701-0.0181-1.3145c-0.0122-0.4434-0.0356-0.8633-0.0718-1.2598
		c-0.0361-0.3955-0.0962-0.7559-0.1802-1.0801c-0.0845-0.3242-0.1978-0.5576-0.3418-0.7021
		c-0.3604-0.3828-0.7622-0.6416-1.2061-0.7734c-0.4443-0.1318-0.9902-0.2461-1.6382-0.3418v-0.3604c0.1919,0,0.6841,0,1.4761,0
		c0.8154,0,1.7397-0.0059,2.772-0.0186c1.0317-0.0117,2.064-0.0176,3.0962-0.0176c1.0312,0,1.8721,0,2.52,0
		c1.6074,0,3.0356,0.0488,4.2837,0.1445c1.2476,0.0957,2.3882,0.4199,3.4199,0.9717c1.0562,0.5518,1.9082,1.3018,2.5562,2.25
		s0.9722,2.1416,0.9722,3.582c0,0.8877-0.1621,1.6865-0.4863,2.3936c-0.3237,0.708-0.7559,1.332-1.2959,1.8721
		s-1.1699,1.0029-1.8896,1.3857c-0.7202,0.3848-1.4761,0.709-2.2681,0.9727v0.1074c0.4077,0.2168,0.8037,0.5283,1.188,0.9365
		c0.3833,0.4082,0.7559,0.8643,1.1157,1.3682c0.624,0.9121,1.3018,1.8955,2.0342,2.9521c0.7319,1.0557,1.3857,1.9922,1.9619,2.8076
		c0.8877,1.248,1.7515,2.1602,2.5923,2.7363c0.8394,0.5752,1.8232,0.9482,2.9517,1.1152v0.3604H31.5684z M28.0044,52.1877
		c-0.6001-0.9365-1.4761-1.6797-2.6279-2.2324c-0.5762-0.2637-1.1826-0.4551-1.8184-0.5762
		c-0.6357-0.1191-1.3018-0.1797-1.9976-0.1797c-0.5044,0-0.9126,0.0127-1.2241,0.0361c-0.3125,0.0244-0.5522,0.0479-0.7202,0.0723
		c-0.0239,0.1436-0.0483,0.2695-0.0718,0.3779c-0.0244,0.1074-0.0425,0.2461-0.0542,0.4141
		c-0.0122,0.168-0.0239,0.4014-0.0356,0.7012c-0.0127,0.3008-0.0308,0.7266-0.0542,1.2783
		c-0.0244,0.8408-0.042,1.7881-0.0542,2.8438c-0.0122,1.0566-0.0181,2.0762-0.0181,3.0605s0,1.8486,0,2.5918
		c0,0.7197,0,1.1758,0,1.3682c0.9839,0,1.9019-0.042,2.7544-0.126c0.8516-0.084,1.6738-0.2578,2.4658-0.5225
		c0.7676-0.2393,1.4277-0.5635,1.98-0.9717c0.5518-0.4082,1.002-0.8701,1.3501-1.3857c0.3477-0.5156,0.606-1.0742,0.7739-1.6738
		c0.1675-0.5996,0.252-1.2246,0.252-1.8721C28.9043,54.1916,28.604,53.1232,28.0044,52.1877z"/>
	<path d="M39.3438,74.6154v-0.3604c0.6001-0.0957,1.1577-0.252,1.6743-0.4678c0.5156-0.2158,0.9541-0.5273,1.314-0.9355
		c0.1196-0.1445,0.21-0.3477,0.27-0.6123c0.0596-0.2637,0.1079-0.5762,0.144-0.9355c0.0361-0.3604,0.0596-0.7383,0.0718-1.1348
		c0.0117-0.3955,0.0181-0.7852,0.0181-1.1699c0-0.3359,0.0059-0.792,0.0181-1.3682c0.0117-0.5752,0.0234-1.2061,0.0361-1.8896
		c0.0117-0.6836,0.0181-1.3857,0.0181-2.1064c0-0.7432,0-1.4395,0-2.0879v-7.0195c0-0.4316,0-0.8643,0-1.2959
		c0-0.4326-0.0181-0.834-0.0542-1.2061s-0.0898-0.708-0.1621-1.0078c-0.0718-0.2998-0.1797-0.5342-0.3237-0.7021
		c-0.3364-0.4082-0.7505-0.7021-1.2422-0.8818c-0.4922-0.1807-1.0503-0.3066-1.6738-0.3779v-0.3604h10.7637v0.3604
		c-0.5039,0.0713-1.0439,0.2041-1.6191,0.3955c-0.5762,0.1924-1.0205,0.5762-1.332,1.1523
		c-0.2168,0.4082-0.3311,0.9238-0.3428,1.5479s-0.0303,1.2119-0.0537,1.7637c0,0.6006-0.0059,1.1943-0.0176,1.7822
		c-0.0127,0.5879-0.0186,1.1826-0.0186,1.7822s0,1.2236,0,1.8721c0,0.624,0,1.3076,0,2.0518v8.1357
		c0,0.6963,0.0117,1.3682,0.0361,2.0166c0.0234,0.6475,0.1318,1.1035,0.3242,1.3672c0.2881,0.4092,0.7432,0.7207,1.3682,0.9365
		c0.623,0.2158,1.1875,0.3477,1.6914,0.3955v0.3604H39.3438z"/>
	<path d="M74.5156,58.5959c-0.2881,0.7197-0.666,1.3555-1.1338,1.9072c-0.4678,0.5527-1.0137,1.0264-1.6377,1.4219
		c-0.625,0.3965-1.2598,0.7148-1.9082,0.9541c-0.6719,0.2402-1.3926,0.4209-2.1602,0.54c-0.7686,0.1211-1.542,0.2109-2.3223,0.2705
		c-0.7793,0.0596-1.542,0.0898-2.2852,0.0898c-0.7207,0-1.3682,0-1.9443,0c0,0.7686,0,1.4277,0,1.9795c0,0.5283,0,0.9971,0,1.4043
		c0,0.4082,0.0059,0.7861,0.0176,1.1338c0.0127,0.3486,0.0186,0.7266,0.0186,1.1348c0.0234,0.7676,0.0479,1.4277,0.0723,1.9795
		c0.0234,0.5527,0.1553,1.0078,0.3955,1.3682c0.1914,0.3125,0.5635,0.624,1.1162,0.9355c0.5518,0.3125,1.3193,0.4922,2.3037,0.54
		v0.3604H53.5283v-0.3604c0.5996-0.0957,1.1758-0.2393,1.7275-0.4316c0.5518-0.1914,0.9844-0.4795,1.2959-0.8643
		c0.1201-0.1436,0.2158-0.3594,0.2881-0.6475s0.126-0.6123,0.1621-0.9727c0.0361-0.3594,0.0654-0.7432,0.0898-1.1514
		c0.0234-0.4082,0.0361-0.8037,0.0361-1.1885c0-0.3359,0.0059-0.792,0.0186-1.3682c0.0117-0.5752,0.0234-1.2061,0.0352-1.8896
		s0.0186-1.3857,0.0186-2.1064c0-0.7432,0-1.4395,0-2.0879v-7.0195c0-0.4316-0.0068-0.8701-0.0186-1.3145
		c-0.0117-0.4434-0.0352-0.8633-0.0713-1.2598c-0.0361-0.3955-0.0967-0.7559-0.1807-1.0801s-0.1973-0.5576-0.3418-0.7021
		c-0.3604-0.3828-0.8223-0.6416-1.3857-0.7734c-0.5645-0.1318-1.1699-0.2461-1.8184-0.3418v-0.3604c0.1445,0,0.4326,0,0.8643,0
		c0.4561,0,0.9902-0.0059,1.6016-0.0186c0.6123-0.0117,1.2783-0.0176,1.998-0.0176c0.7207,0,1.4346-0.0059,2.1426-0.0176
		c0.707-0.0117,1.373-0.0186,1.998-0.0186c0.6475,0,1.1875,0,1.6201,0c1.584,0,2.9873,0.0781,4.2119,0.2344
		c1.2236,0.1562,2.376,0.5342,3.4561,1.1338c1.0557,0.5762,1.9316,1.3926,2.6279,2.4482c0.6953,1.0566,1.0439,2.3037,1.0439,3.7441
		C74.9482,57.0715,74.8037,57.8752,74.5156,58.5959z M69.998,52.2951c-0.708-1.0801-1.6377-1.8955-2.79-2.4473
		c-0.5762-0.2646-1.1885-0.4443-1.8359-0.54c-0.6484-0.0957-1.3203-0.1445-2.0156-0.1445c-0.5049,0-0.8945,0.0186-1.1709,0.0537
		c-0.2754,0.0361-0.498,0.0664-0.666,0.0908c-0.0234,0.1436-0.0537,0.2695-0.0898,0.3779
		c-0.0361,0.1074-0.0664,0.2461-0.0898,0.4141c-0.0244,0.168-0.0479,0.4014-0.0723,0.7012
		c-0.0234,0.3008-0.0479,0.7266-0.0713,1.2783c-0.0244,0.8408-0.042,1.8604-0.0547,3.0605
		c-0.0117,1.2002-0.0176,2.376-0.0176,3.5273c0,1.1523,0,2.1602,0,3.0244s0,1.3916,0,1.584c0.9834,0,1.9082-0.0303,2.7725-0.0898
		c0.8633-0.0596,1.667-0.2217,2.4111-0.4863c1.5361-0.5273,2.7119-1.3975,3.5283-2.6104c0.8154-1.2109,1.2236-2.5732,1.2236-4.0859
		C71.0596,54.6115,70.7061,53.3752,69.998,52.2951z"/>
</g>
</svg>
