<?xml version="1.0" encoding="utf-8"?>
<!-- Generator: Adobe Illustrator 26.5.1, SVG Export Plug-In . SVG Version: 6.00 Build 0)  -->
<svg version="1.1" id="Layer_1" xmlns="http://www.w3.org/2000/svg" xmlns:xlink="http://www.w3.org/1999/xlink" x="0px" y="0px"
	 viewBox="0 0 75.8974 113.8462" style="enable-background:new 0 0 75.8974 113.8462;" xml:space="preserve">
<ellipse style="stroke:#000000;stroke-miterlimit:10;" cx="40" cy="48.0881" rx="31.2821" ry="43.7067"/>
<g>
	<g>
		<path d="M9.359,49.2308c0,14.853,0,29.706,0,44.5591c0,6.4345,10,6.4452,10,0c0-0.5836,0-1.1672,0-1.7508c-3.3333,0-6.6667,0-10,0
			c0,1.7989,0,3.5979,0,5.3968c0,6.4345,10,6.4452,10,0c0-1.7989,0-3.5979,0-5.3968c0-6.4345-10-6.4452-10,0
			c0,0.5836,0,1.1672,0,1.7508c3.3333,0,6.6667,0,10,0c0-14.853,0-29.706,0-44.5591C19.359,42.7962,9.359,42.7856,9.359,49.2308
			L9.359,49.2308z"/>
	</g>
</g>
<g>
	<g>
		<path d="M61.6667,48.7179c0,16.5812,0,33.1624,0,49.7436c0,6.4345,10,6.4452,10,0c0-16.5812,0-33.1624,0-49.7436
			C71.6667,42.2834,61.6667,42.2728,61.6667,48.7179L61.6667,48.7179z"/>
	</g>
</g>
<g>
	<g>
		<path d="M14.359,101.4103c6.4345,0,6.4452-10,0-10C7.9245,91.4103,7.9138,101.4103,14.359,101.4103L14.359,101.4103z"/>
	</g>
</g>
<g>
	<g>
		<path d="M14.359,101.9231c17.6068,0,35.2137,0,52.8205,0c6.4345,0,6.4452-10,0-10c-17.6068,0-35.2137,0-52.8205,0
			C7.9245,91.9231,7.9138,101.9231,14.359,101.9231L14.359,101.9231z"/>
	</g>
</g>
<g>
	<g>
		<path d="M64.1057,85.7407c-6.6217,0.1042-13.2436,0.119-19.8654,0.0111c-3.3106-0.054-6.6208-0.1359-9.93-0.2456
			c-1.9855-0.0659-3.9708-0.142-5.9555-0.2277c-0.9885-0.0427-3.9038-0.674-4.5159-0.2695c-0.9625-0.3231-1.0291,0.2037-0.2,1.5804
			c-0.2195,1.6978,0.4579,2.2161,2.0322,1.5547c1.3733,0.4252,3.5138-0.0483,4.9345-0.0481
			c3.2901,0.0005,6.5794,0.0687,9.8667,0.2046c6.907,0.2855,13.7868,0.8946,20.6459,1.747c6.3706,0.7917,6.3131-9.2155,0-10
			c-10.454-1.2991-20.9628-1.9936-31.4996-1.9517c-6.202,0.0247-16.1591,0.7881-15.2077,9.6041
			c0.9174,8.5006,11.8208,7.5144,17.914,7.7371c10.5899,0.387,21.1856,0.4705,31.7808,0.3038
			C70.5343,95.6396,70.5537,85.6393,64.1057,85.7407L64.1057,85.7407z"/>
	</g>
</g>
<g>
	<g>
		<path d="M8.3333,46.1538c0,17.7778,0,35.5556,0,53.3333c0,6.4345,10,6.4452,10,0c0-17.7778,0-35.5556,0-53.3333
			C18.3333,39.7193,8.3333,39.7087,8.3333,46.1538L8.3333,46.1538z"/>
	</g>
</g>
<g>
	<g>
		<path d="M13.3333,103.9744c17.7778,0,35.5556,0,53.3333,0c6.4345,0,6.4452-10,0-10c-17.7778,0-35.5556,0-53.3333,0
			C6.8988,93.9744,6.8882,103.9744,13.3333,103.9744L13.3333,103.9744z"/>
	</g>
</g>
<g>
	<g>
		<path d="M30.1864,27.2495c0.3419,0.3419,0.6838,0.6838,1.0256,1.0256c0.544,0.544,1.3521,0.8787,2.1213,0.8787
			c0.413,0.0156,0.7983-0.0705,1.1558-0.2584c0.3719-0.121,0.6938-0.3278,0.9655-0.6203c0.5248-0.5717,0.9145-1.3223,0.8787-2.1213
			c-0.0356-0.7958-0.3045-1.5472-0.8787-2.1213c-0.3419-0.3419-0.6838-0.6838-1.0256-1.0256
			c-0.544-0.544-1.3521-0.8787-2.1213-0.8787c-0.413-0.0156-0.7983,0.0705-1.1558,0.2584c-0.3719,0.121-0.6938,0.3278-0.9655,0.6203
			c-0.5248,0.5717-0.9145,1.3223-0.8787,2.1213C29.3433,25.924,29.6122,26.6754,30.1864,27.2495L30.1864,27.2495z"/>
	</g>
</g>
<g>
	<g>
		<path style="fill:#A11E21;" d="M29.6736,26.2239c4.7863,4.7863,9.5726,9.5727,14.359,14.359
			c2.7338,2.7338,6.9777-1.5076,4.2426-4.2426c-4.7863-4.7863-9.5726-9.5726-14.359-14.359
			C31.1824,19.2474,26.9385,23.4889,29.6736,26.2239L29.6736,26.2239z"/>
	</g>
</g>
<g>
	<g>
		<path style="fill:#A11E21;" d="M45.571,21.4684c-5.1282,5.1282-10.2564,10.2564-15.3846,15.3846
			c-2.7338,2.7338,1.5076,6.9777,4.2426,4.2426c5.1282-5.1282,10.2564-10.2564,15.3846-15.3846
			C52.5475,22.9772,48.306,18.7334,45.571,21.4684L45.571,21.4684z"/>
	</g>
</g>
</svg>
