<?xml version="1.0" encoding="utf-8"?>
<!-- Generator: Adobe Illustrator 26.5.1, SVG Export Plug-In . SVG Version: 6.00 Build 0)  -->
<svg version="1.1" id="Layer_1" xmlns="http://www.w3.org/2000/svg" xmlns:xlink="http://www.w3.org/1999/xlink" x="0px" y="0px"
	 viewBox="0 0 4000 1500" style="enable-background:new 0 0 4000 1500;" xml:space="preserve">
<linearGradient id="SVGID_1_" gradientUnits="userSpaceOnUse" x1="2000" y1="-0.7244" x2="2000" y2="1499.2756" gradientTransform="matrix(1 0 0 -1 0 1499.2756)">
	<stop  offset="0" style="stop-color:#F9B2A8"/>
	<stop  offset="1" style="stop-color:#3D54A5"/>
</linearGradient>
<rect y="0" style="fill:url(#SVGID_1_);" width="4000" height="1500"/>
<g id="Layer_1_00000165196023454563702040000011578649503754351286_">
	<ellipse style="fill:#FFFEF4;stroke:#999999;stroke-miterlimit:10;" cx="2579.1023" cy="156.0468" rx="106.2436" ry="108.7153"/>
</g>
<g id="Layer_3">
	<path style="opacity:0.5;fill:#C3C4C3;stroke:#999999;stroke-miterlimit:10;enable-background:new    ;" d="M2659.9612,85.7861
		c3.2822,6.8709,5.9338,14.1386,7.9326,21.8171l3.7651,30.1876c0.5474,15.6343-2.4785,30.2179-9.0776,43.7507
		c-4.2507,14.078-11.5149,26.2598-21.7932,36.5453c-9.5466,11.0736-20.8535,18.9001-33.9204,23.4796
		c-12.5605,7.1098-26.0967,10.3698-40.6079,9.7801c-19.0254-0.0637-36.7578-5.2315-53.197-15.5037
		c-7.1104-5.9187-14.2209-11.8372-21.3315-17.756c-0.0671-0.0728-0.1304-0.1479-0.1975-0.2209
		c19.157,28.4759,51.2295,47.1488,87.5686,47.1488c58.6768,0,106.2437-48.6735,106.2437-108.7153
		C2685.3459,129.3907,2675.7871,104.77,2659.9612,85.7861z"/>
</g>
<g id="Layer_2_00000155853914768654388210000011925001441124625847_">
	<ellipse style="fill:#E9E9EA;stroke:#999999;stroke-miterlimit:10;" cx="2539.1567" cy="87.4933" rx="8.5896" ry="9.2543"/>
	<ellipse style="fill:#E9E9EA;stroke:#999999;stroke-miterlimit:10;" cx="2623.2178" cy="139.2453" rx="3.9195" ry="4.2229"/>
	<ellipse style="fill:#E9E9EA;stroke:#999999;stroke-miterlimit:10;" cx="2541.7627" cy="216.5365" rx="2.6061" ry="2.8078"/>
	<ellipse style="fill:#E9E9EA;stroke:#999999;stroke-miterlimit:10;" cx="2636.1438" cy="82.0126" rx="3.5025" ry="3.7735"/>
	<ellipse style="fill:#E9E9EA;stroke:#999999;stroke-miterlimit:10;" cx="2488.2866" cy="141.2219" rx="7.7556" ry="8.3558"/>
	<ellipse style="fill:#E9E9EA;stroke:#999999;stroke-miterlimit:10;" cx="2645.4004" cy="220.7368" rx="9.2568" ry="8.805"/>
	<ellipse style="fill:#E9E9EA;stroke:#999999;stroke-miterlimit:10;" cx="2566.5933" cy="256.496" rx="6.338" ry="6.8284"/>
	<ellipse style="fill:#E9E9EA;stroke:#999999;stroke-miterlimit:10;" cx="2600.4512" cy="180.8446" rx="9.8405" ry="10.602"/>
	<ellipse style="fill:#E9E9EA;stroke:#999999;stroke-miterlimit:10;" cx="2548.6638" cy="61.7969" rx="2.4184" ry="2.6056"/>
	<ellipse style="fill:#FFFFFF;stroke:#999999;stroke-miterlimit:10;" cx="2499.5913" cy="157.8725" rx="2.0481" ry="2.2066"/>
</g>
</svg>
