<?xml version="1.0" encoding="utf-8"?>
<!-- Generator: Adobe Illustrator 26.5.1, SVG Export Plug-In . SVG Version: 6.00 Build 0)  -->
<svg version="1.1" id="Layer_1" xmlns="http://www.w3.org/2000/svg" xmlns:xlink="http://www.w3.org/1999/xlink" x="0px" y="0px"
	 viewBox="0 0 220.6964 175.0274" style="enable-background:new 0 0 220.6964 175.0274;" xml:space="preserve">
<g>
	<g>
		<path style="fill:#7D7E81;" d="M56.6177,139.6596c9.6769,0,18.9475-8.5092,18.5-18.5c-0.4489-10.0233-8.1286-18.5-18.5-18.5
			c-9.6769,0-18.9475,8.5092-18.5,18.5C38.5667,131.183,46.2463,139.6596,56.6177,139.6596L56.6177,139.6596z"/>
	</g>
</g>
<g>
	<g>
		<path style="fill:#7D7E81;" d="M23.943,134.4742c9.6769,0,18.9475-8.5092,18.5-18.5c-0.4489-10.0233-8.1286-18.5-18.5-18.5
			c-9.6769,0-18.9475,8.5092-18.5,18.5C5.8919,125.9975,13.5716,134.4742,23.943,134.4742L23.943,134.4742z"/>
	</g>
</g>
<g>
	<g>
		<path style="fill:#7D7E81;" d="M87.8656,128.6843c9.6769,0,18.9475-8.5092,18.5-18.5c-0.4489-10.0233-8.1286-18.5-18.5-18.5
			c-9.6769,0-18.9475,8.5092-18.5,18.5C69.8146,120.2076,77.4942,128.6843,87.8656,128.6843L87.8656,128.6843z"/>
	</g>
</g>
<g>
	<g>
		<path style="fill:#7D7E81;" d="M123.7631,129.1971c9.6769,0,18.9475-8.5092,18.5-18.5c-0.4489-10.0233-8.1286-18.5-18.5-18.5
			c-9.6769,0-18.9475,8.5092-18.5,18.5C105.712,120.7204,113.3916,129.1971,123.7631,129.1971L123.7631,129.1971z"/>
	</g>
</g>
<g>
	<g>
		<path style="fill:#7D7E81;" d="M159.3096,132.6747c9.6769,0,18.9475-8.5092,18.5-18.5c-0.4489-10.0233-8.1286-18.5-18.5-18.5
			c-9.6769,0-18.9475,8.5092-18.5,18.5C141.2586,124.1981,148.9382,132.6747,159.3096,132.6747L159.3096,132.6747z"/>
	</g>
</g>
<g>
	<g>
		<path style="fill:#7D7E81;" d="M141.1989,114.3253c9.6769,0,18.9475-8.5092,18.5-18.5c-0.4489-10.0233-8.1286-18.5-18.5-18.5
			c-9.6769,0-18.9475,8.5092-18.5,18.5C123.1479,105.8486,130.8275,114.3253,141.1989,114.3253L141.1989,114.3253z"/>
	</g>
</g>
<g>
	<g>
		<path style="fill:#7D7E81;" d="M106.3272,113.7099c11.7692,0,23.0442-10.349,22.5-22.5c-0.546-12.1905-9.8861-22.5-22.5-22.5
			c-11.7692,0-23.0443,10.349-22.5,22.5C84.3732,103.4004,93.7133,113.7099,106.3272,113.7099L106.3272,113.7099z"/>
	</g>
</g>
<g>
	<g>
		<path style="fill:#7D7E81;" d="M72.9938,113.1971c11.7692,0,23.0443-10.349,22.5-22.5c-0.546-12.1905-9.8861-22.5-22.5-22.5
			c-11.7692,0-23.0442,10.349-22.5,22.5C51.0398,102.8876,60.38,113.1971,72.9938,113.1971L72.9938,113.1971z"/>
	</g>
</g>
<g>
	<g>
		<path style="fill:#7D7E81;" d="M43.7631,113.7099c11.7692,0,23.0442-10.349,22.5-22.5c-0.546-12.1905-9.8861-22.5-22.5-22.5
			c-11.7692,0-23.0442,10.349-22.5,22.5C21.8091,103.4004,31.1492,113.7099,43.7631,113.7099L43.7631,113.7099z"/>
	</g>
</g>
<g>
	<g>
		<path style="fill:#7D7E81;" d="M139.1477,114.2227c11.7692,0,23.0442-10.349,22.5-22.5c-0.546-12.1905-9.8861-22.5-22.5-22.5
			c-11.7693,0-23.0443,10.349-22.5,22.5C117.1937,103.9133,126.5338,114.2227,139.1477,114.2227L139.1477,114.2227z"/>
	</g>
</g>
<g>
	<g>
		<path style="fill:#7D7E81;" d="M122.2246,93.8125c9.6769,0,18.9475-8.5092,18.5-18.5c-0.4489-10.0233-8.1286-18.5-18.5-18.5
			c-9.6769,0-18.9475,8.5092-18.5,18.5C104.1735,85.3358,111.8532,93.8125,122.2246,93.8125L122.2246,93.8125z"/>
	</g>
</g>
<g>
	<g>
		<path style="fill:#7D7E81;" d="M95.0451,45.5304c-0.5128,0-1.0256,0-1.5385,0c-2.5471-0.0961-4.923,0.435-7.1277,1.5933
			c-2.2935,0.7461-4.2781,2.0212-5.9538,3.8252c-1.8041,1.6757-3.0791,3.6603-3.8252,5.9538
			c-1.1583,2.2047-1.6894,4.5806-1.5933,7.1277c0.2203,1.6393,0.4406,3.2787,0.6608,4.918c0.879,3.134,2.4649,5.8551,4.7577,8.1634
			c1.2481,0.9642,2.4961,1.9285,3.7442,2.8927c2.8855,1.6735,5.9979,2.5154,9.3373,2.5258c0.5128,0,1.0256,0,1.5385,0
			c2.5471,0.0961,4.923-0.435,7.1277-1.5933c2.2935-0.7461,4.2781-2.0212,5.9538-3.8252c1.8041-1.6757,3.0791-3.6603,3.8252-5.9538
			c1.1583-2.2047,1.6894-4.5806,1.5933-7.1277c-0.2203-1.6393-0.4406-3.2787-0.6608-4.918c-0.879-3.134-2.4649-5.8551-4.7577-8.1634
			c-1.2481-0.9642-2.4961-1.9285-3.7442-2.8927C101.4969,46.3827,98.3845,45.5408,95.0451,45.5304L95.0451,45.5304z"/>
	</g>
</g>
<g>
	<g>
		<path style="fill:#7D7E81;" d="M68.8913,75.8637c9.6769,0,18.9475-8.5092,18.5-18.5c-0.4489-10.0233-8.1286-18.5-18.5-18.5
			c-9.6769,0-18.9475,8.5092-18.5,18.5C50.8402,67.3871,58.5199,75.8637,68.8913,75.8637L68.8913,75.8637z"/>
	</g>
</g>
<g>
	<g>
		<path style="fill:#7D7E81;" d="M64.5368,77.1119c0.1709-0.1709,0.3419-0.3419,0.5128-0.5128
			c1.8041-1.6757,3.0791-3.6603,3.8252-5.9538c1.1583-2.2047,1.6894-4.5806,1.5933-7.1277c0.0961-2.5471-0.435-4.923-1.5933-7.1277
			c-0.7461-2.2935-2.0212-4.2781-3.8252-5.9538c-1.2481-0.9642-2.4961-1.9285-3.7442-2.8927
			c-2.8855-1.6735-5.9979-2.5154-9.3373-2.5258c-1.6393,0.2203-3.2787,0.4406-4.918,0.6608
			c-3.134,0.879-5.8551,2.4649-8.1634,4.7577c-0.1709,0.1709-0.3419,0.3419-0.5128,0.5128
			c-1.8041,1.6757-3.0791,3.6603-3.8252,5.9538c-1.1583,2.2047-1.6894,4.5806-1.5933,7.1277
			c-0.0961,2.5471,0.435,4.923,1.5933,7.1277c0.7461,2.2935,2.0212,4.2781,3.8252,5.9538c1.2481,0.9642,2.4961,1.9285,3.7442,2.8927
			c2.8855,1.6735,5.9979,2.5154,9.3373,2.5258c1.6393-0.2203,3.2787-0.4406,4.918-0.6608
			C59.5074,80.9906,62.2285,79.4047,64.5368,77.1119L64.5368,77.1119z"/>
	</g>
</g>
<g>
	<g>
		<path style="fill:#7D7E81;" d="M95.5579,63.0432c9.6769,0,18.9475-8.5092,18.5-18.5c-0.4489-10.0233-8.1286-18.5-18.5-18.5
			c-9.6769,0-18.9475,8.5092-18.5,18.5C77.5069,54.5666,85.1865,63.0432,95.5579,63.0432L95.5579,63.0432z"/>
	</g>
</g>
<g>
	<g>
		<path style="fill:#7D7E81;" d="M110.9425,74.3253c9.6769,0,18.9475-8.5092,18.5-18.5c-0.4489-10.0233-8.1286-18.5-18.5-18.5
			c-9.6769,0-18.9475,8.5092-18.5,18.5C92.8915,65.8486,100.5711,74.3253,110.9425,74.3253L110.9425,74.3253z"/>
	</g>
</g>
<g>
	<g>
		<path style="fill:#7D7E81;" d="M77.6092,62.0176c9.6769,0,18.9475-8.5092,18.5-18.5c-0.449-10.0233-8.1286-18.5-18.5-18.5
			c-9.6769,0-18.9475,8.5092-18.5,18.5C59.5582,53.5409,67.2378,62.0176,77.6092,62.0176L77.6092,62.0176z"/>
	</g>
</g>
<g>
	<g>
		<path style="fill:#7D7E81;" d="M87.3528,39.4535c9.6769,0,18.9475-8.5092,18.5-18.5c-0.449-10.0233-8.1286-18.5-18.5-18.5
			c-9.6769,0-18.9475,8.5092-18.5,18.5C69.3017,30.9768,76.9814,39.4535,87.3528,39.4535L87.3528,39.4535z"/>
	</g>
</g>
<g>
	<g>
		<path style="fill:#7D7E81;" d="M107.8656,45.6073c9.6769,0,18.9475-8.5092,18.5-18.5c-0.4489-10.0233-8.1286-18.5-18.5-18.5
			c-9.6769,0-18.9475,8.5092-18.5,18.5C89.8146,37.1307,97.4942,45.6073,107.8656,45.6073L107.8656,45.6073z"/>
	</g>
</g>
<g>
	<g>
		<path style="fill:#7D7E81;" d="M61.0755,11.6124c-0.6829,0.3437-1.3657,0.6873-2.0486,1.031
			c-2.1559,1.1626-3.8861,2.7508-5.1905,4.7648c-1.6352,1.7868-2.739,3.8839-3.3113,6.2914c-0.771,2.459-0.8811,4.918-0.3304,7.3771
			c0.1117,2.462,0.8434,4.7548,2.1954,6.8783c0.9642,1.2481,1.9285,2.4961,2.8927,3.7442c2.3083,2.2928,5.0295,3.8787,8.1634,4.7577
			c1.6393,0.2203,3.2787,0.4406,4.918,0.6608c3.3394-0.0104,6.4518-0.8523,9.3373-2.5258c0.6829-0.3437,1.3657-0.6873,2.0486-1.031
			c2.1559-1.1626,3.8861-2.7508,5.1905-4.7648c1.6352-1.7868,2.7389-3.8839,3.3113-6.2914c0.771-2.459,0.8811-4.918,0.3304-7.377
			c-0.1117-2.462-0.8434-4.7548-2.1954-6.8783c-0.9642-1.2481-1.9285-2.4961-2.8927-3.7442
			c-2.3083-2.2928-5.0295-3.8787-8.1634-4.7577c-1.6393-0.2203-3.2787-0.4406-4.918-0.6608
			C67.0734,9.097,63.961,9.9389,61.0755,11.6124L61.0755,11.6124z"/>
	</g>
</g>
<g>
	<g>
		<path style="fill:#7D7E81;" d="M48.3784,64.0689c9.6769,0,18.9475-8.5092,18.5-18.5c-0.4489-10.0233-8.1286-18.5-18.5-18.5
			c-9.6769,0-18.9475,8.5092-18.5,18.5C30.3274,55.5922,38.007,64.0689,48.3784,64.0689L48.3784,64.0689z"/>
	</g>
</g>
<g>
	<g>
		<path style="fill:#7D7E81;" d="M21.4508,58.1284c-0.1709,0.1709-0.3419,0.3419-0.5128,0.5128
			c-1.8041,1.6757-3.0791,3.6603-3.8252,5.9538c-1.1583,2.2047-1.6894,4.5806-1.5933,7.1277
			c-0.0961,2.5471,0.435,4.923,1.5933,7.1277c0.7461,2.2935,2.0212,4.2781,3.8252,5.9538c1.2481,0.9642,2.4961,1.9285,3.7442,2.8927
			c2.8855,1.6735,5.9979,2.5154,9.3373,2.5258c1.6393-0.2203,3.2787-0.4406,4.918-0.6608c3.134-0.879,5.8551-2.4649,8.1634-4.7577
			c0.1709-0.1709,0.3419-0.3419,0.5128-0.5128c1.8041-1.6757,3.0791-3.6603,3.8252-5.9538
			c1.1583-2.2047,1.6894-4.5806,1.5933-7.1277c0.0961-2.5471-0.435-4.923-1.5933-7.1277c-0.7461-2.2935-2.0212-4.2781-3.8252-5.9538
			c-1.2481-0.9642-2.4961-1.9285-3.7442-2.8927c-2.8855-1.6735-5.9979-2.5154-9.3373-2.5258
			c-1.6393,0.2203-3.2787,0.4406-4.918,0.6608C26.4803,54.2497,23.7591,55.8356,21.4508,58.1284L21.4508,58.1284z"/>
	</g>
</g>
<g>
	<g>
		<path style="fill:#7D7E81;" d="M106.8015,49.6714c0,0.1709,0,0.3419,0,0.5128c-0.0961,2.5471,0.435,4.923,1.5933,7.1277
			c0.7461,2.2935,2.0212,4.2781,3.8252,5.9538c1.6757,1.8041,3.6603,3.0791,5.9538,3.8252
			c2.2047,1.1583,4.5806,1.6894,7.1277,1.5933c1.6393-0.2203,3.2787-0.4406,4.918-0.6608c3.134-0.879,5.8551-2.4649,8.1635-4.7577
			c0.9642-1.2481,1.9285-2.4961,2.8927-3.7442c1.6735-2.8855,2.5154-5.9979,2.5258-9.3373c0-0.1709,0-0.3419,0-0.5128
			c0.0961-2.5471-0.435-4.923-1.5933-7.1277c-0.7461-2.2935-2.0211-4.2781-3.8252-5.9538
			c-1.6757-1.8041-3.6603-3.0791-5.9538-3.8252c-2.2047-1.1583-4.5806-1.6894-7.1277-1.5933
			c-1.6393,0.2203-3.2787,0.4406-4.918,0.6608c-3.134,0.879-5.8551,2.4649-8.1634,4.7577
			c-0.9642,1.2481-1.9285,2.4961-2.8927,3.7442C107.6538,43.2196,106.8119,46.332,106.8015,49.6714L106.8015,49.6714z"/>
	</g>
</g>
<g>
	<g>
		<path style="fill:#7D7E81;" d="M143.763,87.1458c9.6769,0,18.9475-8.5092,18.5-18.5c-0.4489-10.0233-8.1286-18.5-18.5-18.5
			c-9.6769,0-18.9475,8.5092-18.5,18.5C125.712,78.6691,133.3916,87.1458,143.763,87.1458L143.763,87.1458z"/>
	</g>
</g>
<g>
	<g>
		<path style="fill:#7D7E81;" d="M159.6605,94.3253c9.6769,0,18.9475-8.5092,18.5-18.5c-0.4489-10.0233-8.1286-18.5-18.5-18.5
			c-9.6769,0-18.9475,8.5092-18.5,18.5C141.6094,85.8486,149.2891,94.3253,159.6605,94.3253L159.6605,94.3253z"/>
	</g>
</g>
<g>
	<g>
		<path style="fill:#7D7E81;" d="M193.5066,124.0689c9.6769,0,18.9475-8.5092,18.5-18.5c-0.4489-10.0233-8.1286-18.5-18.5-18.5
			c-9.6769,0-18.9475,8.5092-18.5,18.5C175.4556,115.5922,183.1352,124.0689,193.5066,124.0689L193.5066,124.0689z"/>
	</g>
</g>
<g>
	<g>
		<path style="fill:#7D7E81;" d="M174.0195,109.1971c9.6769,0,18.9475-8.5092,18.5-18.5c-0.4489-10.0233-8.1286-18.5-18.5-18.5
			c-9.6769,0-18.9475,8.5092-18.5,18.5C155.9684,100.7204,163.6481,109.1971,174.0195,109.1971L174.0195,109.1971z"/>
	</g>
</g>
<g>
	<g>
		<path style="fill:#F3EB49;" d="M155.1858,121.9883c3.3254,0,6.6508,0,9.9762,0c0.6434,0,0.6445-1,0-1c-3.3254,0-6.6508,0-9.9762,0
			C154.5424,120.9883,154.5413,121.9883,155.1858,121.9883L155.1858,121.9883z"/>
	</g>
</g>
<g>
	<g>
		<path style="fill:#F3EB49;" d="M164.662,121.4883c0,1.5888,0,3.1776,0,4.7664c0,0.6435,1,0.6445,1,0c0-1.5888,0-3.1776,0-4.7664
			C165.662,120.8449,164.662,120.8438,164.662,121.4883L164.662,121.4883z"/>
	</g>
</g>
<g>
	<g>
		<path style="fill:#F3EB49;" d="M154.7967,121.4883c0,1.2193,0,2.4386,0,3.658c0,0.6434,1,0.6445,1,0c0-1.2193,0-2.4386,0-3.658
			C155.7967,120.8449,154.7967,120.8438,154.7967,121.4883L154.7967,121.4883z"/>
	</g>
</g>
<g>
	<g>
		<path style="fill:#F3EB49;" d="M164.662,126.1439c0,0.8498,0,1.6997,0,2.5495c0,0.2616,0.23,0.5121,0.5,0.5
			c0.2709-0.0121,0.5-0.2197,0.5-0.5c0-0.8498,0-1.6996,0-2.5495c0-0.2615-0.23-0.5121-0.5-0.5
			C164.8911,125.656,164.662,125.8636,164.662,126.1439L164.662,126.1439z"/>
	</g>
</g>
<g>
	<g>
		<path style="fill:#F3EB49;" d="M164.7924,128.3234c-1.1756,1.1524-2.3511,2.3047-3.5267,3.4571
			c-0.4603,0.4512,0.247,1.1582,0.7071,0.7071c1.1756-1.1524,2.3511-2.3047,3.5267-3.4571
			C165.9598,128.5792,165.2525,127.8723,164.7924,128.3234L164.7924,128.3234z"/>
	</g>
</g>
<g>
	<g>
		<path style="fill:#F3EB49;" d="M154.6858,125.1463c0,0.5542,0,1.1085,0,1.6627c0,0.2615,0.23,0.5121,0.5,0.5
			c0.2709-0.0121,0.5-0.2197,0.5-0.5c0-0.5542,0-1.1085,0-1.6627c0-0.2615-0.23-0.5121-0.5-0.5
			C154.9149,124.6584,154.6858,124.866,154.6858,125.1463L154.6858,125.1463z"/>
	</g>
</g>
<g>
	<g>
		<path style="fill:#F3EB49;" d="M154.8421,126.4654c-0.5569,0.5515-1.1138,1.1031-1.6707,1.6546
			c-0.1861,0.1843-0.1983,0.525,0,0.7071c0.2004,0.184,0.5085,0.1967,0.7071,0c0.5569-0.5515,1.1138-1.1031,1.6707-1.6546
			c0.1861-0.1843,0.1983-0.525,0-0.7071C155.3488,126.2814,155.0407,126.2687,154.8421,126.4654L154.8421,126.4654z"/>
	</g>
</g>
<g>
	<g>
		<path style="fill:#F3EB49;" d="M161.2258,132.0188c0,1.2193,0,2.4386,0,3.6579c0,0.6434,1,0.6445,1,0c0-1.2193,0-2.4386,0-3.6579
			C162.2258,131.3753,161.2258,131.3743,161.2258,132.0188L161.2258,132.0188z"/>
	</g>
</g>
<g>
	<g>
		<path style="fill:#F3EB49;" d="M152.8014,128.4717c0,1.9214,0,3.8427,0,5.7641c0,0.6434,1,0.6445,1,0c0-1.9214,0-3.8427,0-5.7641
			C153.8014,127.8282,152.8014,127.8272,152.8014,128.4717L152.8014,128.4717z"/>
	</g>
</g>
<g>
	<g>
		<path style="fill:#F3EB49;" d="M161.3722,135.5449c-1.1824,1.1824-2.3647,2.3647-3.5471,3.5471
			c-0.4556,0.4556,0.2513,1.1629,0.7071,0.7071c1.1824-1.1824,2.3647-2.3647,3.5471-3.5471
			C162.535,135.7964,161.8281,135.0891,161.3722,135.5449L161.3722,135.5449z"/>
	</g>
</g>
<g>
	<g>
		<path style="fill:#F3EB49;" d="M152.9642,133.7879c-0.7074,0.6966-1.4147,1.3932-2.1221,2.0898
			c-0.1867,0.1838-0.198,0.5254,0,0.7071c0.2009,0.1844,0.5079,0.1961,0.7071,0c0.7074-0.6966,1.4147-1.3932,2.1221-2.0898
			c0.1867-0.1838,0.198-0.5254,0-0.7071C153.4704,133.6035,153.1633,133.5917,152.9642,133.7879L152.9642,133.7879z"/>
	</g>
</g>
<g>
	<g>
		<path style="fill:#F3EB49;" d="M157.3461,139.2238c0,1.3302,0,2.6603,0,3.9905c0,0.6434,1,0.6445,1,0c0-1.3302,0-2.6603,0-3.9905
			C158.3461,138.5804,157.3461,138.5793,157.3461,139.2238L157.3461,139.2238z"/>
	</g>
</g>
<g>
	<g>
		<path style="fill:#F3EB49;" d="M150.6953,136.231c0,1.5519,0,3.1037,0,4.6556c0,0.6434,1,0.6445,1,0c0-1.5518,0-3.1037,0-4.6556
			C151.6953,135.5875,150.6953,135.5865,150.6953,136.231L150.6953,136.231z"/>
	</g>
</g>
<g>
	<g>
		<path style="fill:#F3EB49;" d="M157.6034,142.8608c-2.143,2.1431-4.2861,4.2861-6.4291,6.4291
			c-0.4556,0.4556,0.2513,1.1629,0.7071,0.7071c2.143-2.1431,4.2861-4.2861,6.4291-6.4291
			C158.7662,143.1123,158.0593,142.405,157.6034,142.8608L157.6034,142.8608z"/>
	</g>
</g>
<g>
	<g>
		<path style="fill:#F3EB49;" d="M150.8062,140.554c0,2.9559,0,5.9118,0,8.8678c0,0.6435,1,0.6445,1,0c0-2.9559,0-5.9118,0-8.8678
			C151.8062,139.9106,150.8062,139.9095,150.8062,140.554L150.8062,140.554z"/>
	</g>
</g>
<g>
	<g>
		<path style="fill:#F3EB49;" d="M155.0741,128.7881c-0.063,0.4125-0.053,1.7545-0.2226,2.0328
			c1.3682-0.3587,2.7364-0.7175,4.1046-1.0762c0.8602,1.1956,1.1725,1.439,0.937,0.7302c-0.061-0.3578-0.0922-0.3663-0.0935-0.0256
			c-0.2572,0.4413-0.5143,0.8825-0.7715,1.3238c0.4125-0.521,1.1335-0.8944,1.5938-1.4526c0.2772-0.3362,0.4485-0.6539,0.6322-1.044
			c0.0154-0.0327,0.5232-1.0817,0.1769-0.6645c-1.7071-0.7071-3.4142-1.4142-5.1213-2.1213
			c-0.1167,1.5068-0.6255,2.9918-1.0088,4.4463c-0.3224,1.2235-0.4859,2.7598-1.2451,3.7981
			c-0.9636,1.3178-0.2122,3.3327,1.0763,4.1046c1.5097,0.9044,3.1534,0.2246,4.1046-1.0763
			c1.0896-1.4902,1.3892-3.4831,1.8499-5.2314c0.5284-2.0048,1.0624-3.9661,1.2231-6.0414
			c0.1936-2.4984-3.4875-4.0898-5.1213-2.1213c-0.3687,0.4442-0.6836,0.8493-0.9436,1.3627
			c-0.1477,0.3044-0.2738,0.617-0.3784,0.9378c-0.1412,0.3722-0.0883,0.3005,0.1587-0.215
			c-0.9224,0.8459-1.7084,1.2926-2.0673,2.6156c-0.4728,1.7429,0.1474,5.0349,1.9701,5.855
			c1.5004,0.6751,3.1879,0.4275,4.1046-1.0762c0.622-1.0204,0.6505-2.3081,0.8275-3.466c0.2464-1.6128-0.4084-3.2077-2.0953-3.6904
			C157.3479,126.2874,155.3186,127.1881,155.0741,128.7881L155.0741,128.7881z"/>
	</g>
</g>
<g>
	<g>
		<path style="fill:#F3EB49;" d="M162.6708,122.8405c-1.1282-0.2673-2.1239-0.0556-3.2505,0.0472
			c-0.3112,0.0284-0.6146,0.0466-0.8931-0.0285c-0.1012-0.0273-0.3719-0.22-0.3103-0.0625
			c-0.5974-1.5282-2.881-1.3815-2.9464,0.3988c-0.043,1.1692-0.1656,2.322-0.4036,3.4681c-0.0755,0.3636-0.16,0.7252-0.2535,1.0846
			c-0.0239,0.0897-0.0479,0.1794-0.0718,0.2691c-0.1588,0.3885-0.0731,0.3739,0.2569-0.0437
			c-0.1221-0.0799-0.8074,0.4253-0.8713,0.4826c-0.241,0.2162-0.4068,0.4561-0.5424,0.7444
			c-0.4745,1.0088-0.1971,2.3128-0.1322,3.3799c0.0381,0.6273,0.0763,1.2546,0.1145,1.882c0.0176,0.2895,0.036,0.579,0.0528,0.8686
			c0.0121,0.1804,0.0221,0.361,0.03,0.5416c-0.0659,0.4983,0.1319,0.3958,0.5935-0.3076c0.2524,0.0683,0.5047,0.1365,0.7571,0.2048
			c0.1467,0.2438,0.2934,0.4876,0.4401,0.7314c-0.0683,0.2523-0.1365,0.5047-0.2048,0.7571
			c-0.0258,0.0335-0.0516,0.067-0.0773,0.1005c0.6207-0.5215,0.5379-1.5834,0-2.1213c-0.6174-0.6174-1.4958-0.5188-2.1213,0
			c-0.9252,0.7674-1.3364,1.8003-1.4882,2.9619c0.9821-0.1329,1.9643-0.2659,2.9464-0.3988
			c-0.0706-0.3975-0.1413-0.795-0.2119-1.1925c-0.1418-0.7981-1.1161-1.248-1.8452-1.0477
			c-0.8415,0.2313-1.1899,1.0447-1.0477,1.8452c0.0706,0.3975,0.1413,0.795,0.2119,1.1925
			c0.1288,0.7249,0.9715,1.1759,1.6458,1.0744c0.7991-0.1202,1.2008-0.7097,1.3006-1.4732
			c0.0461-0.3528,0.3561-0.6303,0.6095-0.8405c-0.7071-0.7071-1.4142-1.4142-2.1213-2.1213
			c-1.7537,1.4734,0.4284,4.1381,2.3437,3.0896c1.8739-1.0258,1.1944-3.7287,1.0893-5.4571
			c-0.0293-0.4826-0.0587-0.9651-0.088-1.4477c-0.0134-0.221,0.0562-0.9735-0.0477-1.092c0.1266,0.1446-0.911,0.7979,0.0401,0.3095
			c0.2153-0.1106,0.4032-0.2469,0.573-0.4215c0.3426-0.3523,0.5151-0.8057,0.6493-1.2695c0.5386-1.8615,0.8026-3.8197,0.8737-5.7533
			c-0.9821,0.1329-1.9643,0.2658-2.9464,0.3988c0.4738,1.2122,1.4065,1.9726,2.6918,2.216
			c1.2939,0.2451,2.6066-0.3733,3.8574-0.0769C163.7505,126.1782,164.5517,123.2862,162.6708,122.8405L162.6708,122.8405z"/>
	</g>
</g>
<g>
	<g>
		<path style="fill:#F3EB49;" d="M151.6139,139.2321c0.2948,2.8764,0.2543,5.78-0.1512,8.644
			c-0.0796,0.5621,0.5659,0.8594,0.9139,0.3853c0.8532-1.1626,1.7769-2.2672,2.7634-3.3189
			c-0.2786-0.1622-0.5571-0.3243-0.8357-0.4865c-0.3805,1.0986-1.0575,2.0173-1.963,2.7414
			c-0.5038,0.4029,0.2081,1.1005,0.7071,0.7071c0.7628-0.6014,1.5008-1.2327,2.2067-1.9002
			c0.6125-0.5792,1.2946-1.1781,1.7812-1.8712c0.4907-0.699,0.5037-1.5582,0.588-2.3785c0.1071-1.0424,0.2143-2.0849,0.3215-3.1273
			c-0.3333,0-0.6667,0-1,0c-0.0027,1.4356,0.0078,3.071-0.8978,4.2739c-0.8563,1.1374-2.3171,1.6308-3.2444,2.7107
			c0.2618,0.0337,0.5235,0.0675,0.7853,0.1012c-0.2796-0.4896-0.125-1.2978-0.1243-1.8414
			c0.0009-0.7306,0.0018-1.4612,0.0027-2.1918c0.0018-1.4228,0.0035-2.8455,0.0053-4.2683c0.0008-0.6435-0.9985-0.6445-1,0
			c-0.0051,2.1883-0.0103,4.3766-0.0154,6.5649c-0.0013,0.5725,0.8161,0.6675,0.9821,0.1329
			c0.369-1.1884,0.8303-2.337,1.3894-3.4487c-0.3106-0.0841-0.6212-0.1682-0.9317-0.2524
			c-0.1033,1.0589-0.2066,2.1177-0.3098,3.1766c-0.0557,0.5712,0.836,0.6633,0.9821,0.1329
			c0.3887-1.4104,0.9475-2.7476,1.6788-4.0148c-0.3106-0.0841-0.6212-0.1682-0.9317-0.2524
			c0.1448,1.3609,0.1954,2.7247,0.1517,4.0926c-0.0164,0.5142,0.6768,0.6556,0.9317,0.2524c0.6-0.9489,0.9067-2.0177,0.9124-3.1397
			c0.0025-0.4911-0.6879-0.687-0.9317-0.2524c-0.7621,1.3581-1.5241,2.7162-2.2862,4.0742
			c0.3106,0.0841,0.6212,0.1682,0.9317,0.2524c0.0549-1.1011,0.6143-2.1671,1.0142-3.1788
			c0.4068-1.0292,0.8137-2.0585,1.2205-3.0877c0.2114-0.5348-0.6377-0.8655-0.9139-0.3853c-1.528,2.6566-3.056,5.3132-4.5841,7.9698
			c-0.3228,0.5612,0.5163,1.0439,0.8635,0.5047c1.6173-2.5119,3.2298-5.0356,4.4604-7.7652
			c-0.2878-0.1682-0.5757-0.3365-0.8635-0.5047c-0.778,1.7673-1.5215,3.5493-2.2294,5.3458
			c-0.2171,0.5509,0.6181,0.8338,0.9139,0.3853c0.8914-1.3519,1.8362-2.6666,2.84-3.9375c0.388-0.4913-0.2493-1.1836-0.7071-0.7071
			c-1.5555,1.6191-3.0855,3.2822-3.9003,5.4106c0.3274,0.0443,0.6548,0.0886,0.9821,0.1329
			c0.1018-2.8495,0.6144-5.6525,1.5162-8.3572c-0.3274-0.0443-0.6548-0.0886-0.9821-0.1329
			c-0.1755,1.3218-0.351,2.6436-0.5265,3.9654c0.3333,0,0.6667,0,1,0c0.036-0.37,0.072-0.7399,0.108-1.1099c-0.3333,0-0.6667,0-1,0
			c0.0084,0.3808,0.0591,1.1006-0.3446,1.3254c-0.2206,0.1228-0.522,0.0216-0.6462-0.1895
			c-0.0868-0.1476-0.0285-0.2912-0.0237-0.4413c0.0061-0.1899-0.0904,0.2292-0.1252,0.3047
			c0.3106,0.0841,0.6212,0.1682,0.9317,0.2524c-0.0144-0.2089-0.1174-0.9011,0.245-0.9276c-0.1667-0.1667-0.3333-0.3333-0.5-0.5
			c0.0356,0.7833-0.1563,1.4766-0.5874,2.1315c0.2878,0.1682,0.5756,0.3365,0.8635,0.5047
			c0.0758-0.1643,0.1516-0.3286,0.2273-0.4928c0.2677-0.5805-0.5939-1.0891-0.8635-0.5047
			c-0.0758,0.1643-0.1515,0.3286-0.2273,0.4928c-0.2671,0.5791,0.5044,1.0501,0.8635,0.5047
			c0.521-0.7914,0.7669-1.6898,0.7239-2.6362c-0.0116-0.2549-0.2201-0.5204-0.5-0.5c-1.0397,0.0759-1.307,1.0295-1.245,1.9276
			c0.0308,0.4465,0.7064,0.7414,0.9317,0.2523c0.199-0.4318,0.3859-0.9046,0.1852-1.3722
			c-0.1586-0.3696-0.5421-0.6595-0.9575-0.6129c-0.888,0.0996-1.1807,1.2763-0.8688,1.9829
			c0.3319,0.752,1.2704,1.0968,2.0085,0.7198c0.8153-0.4165,0.9268-1.4043,0.9088-2.2218c-0.0145-0.6544-0.9386-0.6307-1,0
			c-0.036,0.37-0.072,0.7399-0.108,1.1099c-0.0631,0.6485,0.9174,0.6225,1,0c0.1755-1.3218,0.351-2.6436,0.5265-3.9654
			c0.0775-0.5835-0.8136-0.6384-0.9821-0.1329c-0.929,2.7862-1.4471,5.6881-1.5519,8.623
			c-0.0214,0.5994,0.7918,0.6301,0.9821,0.1329c0.7478-1.9537,2.2186-3.4866,3.6431-4.9693
			c-0.2357-0.2357-0.4714-0.4714-0.7071-0.7071c-1.0567,1.338-2.0578,2.7164-2.9963,4.1398
			c0.3046,0.1284,0.6093,0.2569,0.9139,0.3853c0.6762-1.7162,1.3854-3.4186,2.1286-5.1069c0.2561-0.5818-0.5983-1.093-0.8635-0.5047
			c-1.2306,2.7297-2.843,5.2533-4.4604,7.7652c0.2878,0.1682,0.5757,0.3365,0.8635,0.5047c1.528-2.6566,3.056-5.3132,4.5841-7.9698
			c-0.3046-0.1284-0.6093-0.2569-0.9139-0.3853c-0.434,1.0978-0.8679,2.1957-1.3019,3.2935
			c-0.4158,1.052-0.9114,2.0927-0.9685,3.2388c-0.0249,0.5,0.6949,0.6745,0.9317,0.2523c0.7621-1.3581,1.5241-2.7162,2.2862-4.0742
			c-0.3106-0.0841-0.6212-0.1682-0.9317-0.2524c-0.0048,0.9557-0.2652,1.8274-0.7758,2.635
			c0.3106,0.0841,0.6212,0.1682,0.9317,0.2523c0.0436-1.3678-0.0069-2.7317-0.1517-4.0926
			c-0.0494-0.4645-0.6639-0.7164-0.9317-0.2523c-0.7724,1.3384-1.369,2.7638-1.7796,4.2536
			c0.3274,0.0443,0.6548,0.0886,0.9821,0.1329c0.1033-1.0589,0.2066-2.1177,0.3098-3.1766
			c0.0481-0.4935-0.7158-0.6817-0.9317-0.2524c-0.5973,1.1876-1.096,2.418-1.4902,3.6876c0.3274,0.0443,0.6548,0.0886,0.9821,0.1329
			c0.0051-2.1883,0.0103-4.3766,0.0154-6.5649c-0.3333,0-0.6667,0-1,0c-0.002,1.5766-0.0039,3.1532-0.0059,4.7297
			c-0.0009,0.7691-0.0019,1.5381-0.0029,2.3072c-0.0008,0.611-0.0513,1.2216,0.2615,1.7693
			c0.1503,0.2632,0.5742,0.347,0.7853,0.1012c1.0244-1.1929,2.6184-1.7206,3.5031-3.0598c0.8932-1.3519,0.9291-3.0684,0.932-4.6319
			c0.0012-0.6562-0.9355-0.6274-1,0c-0.0918,0.8935-0.1837,1.787-0.2755,2.6806c-0.0915,0.8904-0.0561,1.8093-0.6684,2.5194
			c-1.0761,1.2478-2.3698,2.3525-3.6606,3.3702c0.2357,0.2357,0.4714,0.4714,0.7071,0.7071
			c1.0406-0.8322,1.7851-1.9265,2.2202-3.1826c0.1646-0.4752-0.5031-0.841-0.8357-0.4865c-1.045,1.114-2.0161,2.29-2.9198,3.5213
			c0.3046,0.1284,0.6093,0.2569,0.9139,0.3853c0.4188-2.9576,0.4917-5.9372,0.187-8.9098
			C152.5489,138.5982,151.5482,138.5915,151.6139,139.2321L151.6139,139.2321z"/>
	</g>
</g>
<g>
	<g>
		<path style="fill:#F3EB49;" d="M159.5283,137.2556c0.6542-0.1026,1.0384-0.6522,1.252-1.2347
			c0.2904-0.7921,0.3714-1.683,0.5292-2.508c-0.3214-0.0886-0.6429-0.1772-0.9643-0.2658
			c-0.1904,1.1875-0.2327,2.3734-0.0973,3.5694c0.0705,0.6227,1.007,0.6597,1,0c-0.0202-1.8901,0.1315-3.7714,0.4675-5.6318
			c-0.3274-0.0443-0.6548-0.0886-0.9821-0.1329c0.1887,1.6694-1.4364,3.0128-2.4435,4.135
			c-1.2261,1.3662-2.4522,2.7325-3.6784,4.0987c0.2786,0.1622,0.5571,0.3243,0.8357,0.4865
			c0.8674-2.067,2.0129-4.0042,3.2136-5.8921c0.5429-0.8536,1.0707-1.7312,1.672-2.5453c0.5265-0.7128,1.2171-1.4533,2.1637-1.4705
			c-0.1439-0.2508-0.2878-0.5016-0.4317-0.7524c-0.3202,0.5843-0.6403,1.1686-0.9605,1.7529
			c-0.3133,0.5719,0.4993,1.0276,0.8635,0.5047c0.3281-0.4711,0.6562-0.9422,0.9843-1.4133
			c0.3686-0.5293-0.4979-1.0297-0.8635-0.5047c-0.3281,0.4711-0.6562,0.9422-0.9843,1.4133
			c0.2878,0.1682,0.5757,0.3365,0.8635,0.5047c0.3202-0.5843,0.6403-1.1686,0.9605-1.7529
			c0.1782-0.3251-0.0428-0.7594-0.4317-0.7523c-2.1905,0.0398-3.3642,2.4326-4.391,4.0293
			c-1.3632,2.1198-2.6456,4.2845-3.6226,6.6127c-0.196,0.467,0.5186,0.8399,0.8357,0.4865
			c1.3599-1.5153,2.7198-3.0305,4.0796-4.5458c1.091-1.2157,2.5373-2.6064,2.3352-4.395c-0.0574-0.5078-0.8728-0.7383-0.9821-0.1329
			c-0.3518,1.9479-0.5244,3.9181-0.5032,5.8976c0.3333,0,0.6667,0,1,0c-0.1247-1.1012-0.114-2.2084,0.0616-3.3035
			c0.1001-0.6245-0.8422-0.9043-0.9643-0.2658c-0.1274,0.6663-0.2377,1.3387-0.3843,2.001
			c-0.0915,0.4136-0.2152,0.9675-0.6985,1.0433C158.6285,136.3908,158.8977,137.3545,159.5283,137.2556L159.5283,137.2556z"/>
	</g>
</g>
<g>
	<g>
		<path style="fill:#F3EB49;" d="M164.0629,129.5899c1.2971-2.0741,1.6862-4.5972,1.1838-6.9788
			c-0.1721-0.8157-1.0944-1.2218-1.8452-1.0477c-0.4777,0.1108-0.9585,0.2068-1.4429,0.2837
			c-0.0651,0.0103-0.2815,0.0149-0.3356,0.0505c0.1933-0.0253,0.2328-0.0306,0.1184-0.0159
			c-0.0561,0.0073-0.1122,0.0142-0.1684,0.0209c-0.2434,0.0291-0.4874,0.0535-0.7317,0.0736
			c-0.9591,0.0791-1.9219,0.0872-2.8825,0.0317c0.1329,0.9821,0.2658,1.9643,0.3988,2.9464
			c0.2167-0.0542,0.4345-0.1024,0.6546-0.1404c0.055-0.0096,0.1101-0.0185,0.1653-0.0266c0.1142-0.0171,0.0735-0.0117-0.1223,0.0162
			c0.0503,0.0211,0.2768-0.028,0.3333-0.0324c0.4459-0.0345,0.8923-0.0297,1.3379,0.0052c0.7842,0.0614,1.5343-0.7337,1.5-1.5
			c-0.0388-0.8651-0.66-1.4343-1.5-1.5c-1.0592-0.0829-2.1366,0.0276-3.1664,0.2851c-0.7252,0.1813-1.1706,0.9299-1.0744,1.6458
			c0.1022,0.7606,0.7193,1.257,1.4732,1.3006c2.0907,0.1209,4.2008-0.0787,6.2401-0.5517
			c-0.6151-0.3492-1.2301-0.6984-1.8452-1.0477c0.0269,0.1277,0.0486,0.2561,0.0732,0.3843
			c0.025,0.1648,0.0211,0.1287-0.0119-0.1084c0.008,0.0647,0.0152,0.1295,0.0216,0.1943c0.0222,0.2271,0.0345,0.4551,0.0367,0.6832
			c0.0022,0.2282-0.0056,0.4565-0.0232,0.684c-0.0085,0.1096-0.0625,0.2836-0.0398,0.3892
			c0.0327-0.2371,0.0364-0.2732,0.0112-0.1084c-0.0079,0.0483-0.0163,0.0965-0.0253,0.1445
			c-0.0854,0.465-0.212,0.9223-0.3788,1.3647c-0.023,0.061-0.0468,0.1217-0.0713,0.1821c0.0891-0.2077,0.101-0.2372,0.0358-0.0887
			c-0.0424,0.0881-0.082,0.1774-0.1256,0.265c-0.1163,0.2337-0.2456,0.4599-0.384,0.6812
			c-0.4167,0.6663-0.1634,1.6816,0.5381,2.0523C162.7476,130.5174,163.6181,130.301,164.0629,129.5899L164.0629,129.5899z"/>
	</g>
</g>
<g>
	<g>
		<path style="fill:#F3EB49;" d="M53.0779,123.6594c3.3254,0,6.6508,0,9.9762,0c0.6435,0,0.6445-1,0-1c-3.3254,0-6.6508,0-9.9762,0
			C52.4344,122.6594,52.4334,123.6594,53.0779,123.6594L53.0779,123.6594z"/>
	</g>
</g>
<g>
	<g>
		<path style="fill:#F3EB49;" d="M54.5557,110.6971c0,1.759,0,3.5181,0,5.2771c0,0.6435,1,0.6445,1,0c0-1.759,0-3.518,0-5.2771
			C55.5557,110.0536,54.5557,110.0526,54.5557,110.6971L54.5557,110.6971z"/>
	</g>
</g>
<g>
	<g>
		<path style="fill:#F3EB49;" d="M69.035,120.714c-1.7107,1.6624-3.4214,3.3249-5.1321,4.9873
			c-0.4623,0.4493,0.2451,1.1561,0.7071,0.7071c1.7107-1.6624,3.4214-3.3249,5.1321-4.9873
			C70.2044,120.9718,69.497,120.2651,69.035,120.714L69.035,120.714z"/>
	</g>
</g>
<g>
	<g>
		<path style="fill:#F3EB49;" d="M54.3944,115.9741c0,0.7996,0,1.5991,0,2.3987c0,0.2615,0.23,0.5121,0.5,0.5
			c0.2709-0.0121,0.5-0.2197,0.5-0.5c0-0.7996,0-1.5991,0-2.3987c0-0.2615-0.23-0.5121-0.5-0.5
			C54.6235,115.4863,54.3944,115.6938,54.3944,115.9741L54.3944,115.9741z"/>
	</g>
</g>
<g>
	<g>
		<path style="fill:#F3EB49;" d="M54.5552,118.0336c-0.8104,0.7957-1.6209,1.5913-2.4313,2.387
			c-0.1869,0.1835-0.1977,0.5256,0,0.7071c0.2011,0.1846,0.5076,0.1958,0.7071,0c0.8104-0.7957,1.6209-1.5913,2.4313-2.387
			c0.1869-0.1835,0.1977-0.5256,0-0.7071C55.0612,117.849,54.7547,117.8378,54.5552,118.0336L54.5552,118.0336z"/>
	</g>
</g>
<g>
	<g>
		<path style="fill:#F3EB49;" d="M63.9115,125.8886c0,1.759,0,3.5181,0,5.2771c0,0.6434,1,0.6445,1,0c0-1.759,0-3.5181,0-5.2771
			C64.9115,125.2452,63.9115,125.2441,63.9115,125.8886L63.9115,125.8886z"/>
	</g>
</g>
<g>
	<g>
		<path style="fill:#F3EB49;" d="M51.6522,120.7715c0,2.7718,0,5.5436,0,8.3154c0,0.6434,1,0.6445,1,0c0-2.7718,0-5.5436,0-8.3154
			C52.6522,120.128,51.6522,120.127,51.6522,120.7715L51.6522,120.7715z"/>
	</g>
</g>
<g>
	<g>
		<path style="fill:#F3EB49;" d="M64.0579,131.132c-1.7206,1.7057-3.4412,3.4114-5.1618,5.1172
			c-0.4577,0.4537,0.2494,1.1609,0.7071,0.7071c1.7206-1.7057,3.4412-3.4114,5.1618-5.1172
			C65.2227,131.3853,64.5157,130.6782,64.0579,131.132L64.0579,131.132z"/>
	</g>
</g>
<g>
	<g>
		<path style="fill:#F3EB49;" d="M51.8224,128.5973c-1.0294,1.0049-2.0588,2.0099-3.0881,3.0148
			c-0.1875,0.183-0.1974,0.5259,0,0.7071c0.2016,0.185,0.5071,0.1953,0.7071,0c1.0294-1.0049,2.0588-2.0099,3.0881-3.0148
			c0.1875-0.183,0.1974-0.5259,0-0.7071C52.3279,128.4122,52.0224,128.402,51.8224,128.5973L51.8224,128.5973z"/>
	</g>
</g>
<g>
	<g>
		<path style="fill:#F3EB49;" d="M58.2658,136.2829c0,1.9189,0,3.8379,0,5.7568c0,0.6434,1,0.6445,1,0c0-1.9189,0-3.8379,0-5.7568
			C59.2658,135.6394,58.2658,135.6384,58.2658,136.2829L58.2658,136.2829z"/>
	</g>
</g>
<g>
	<g>
		<path style="fill:#F3EB49;" d="M48.5874,131.9653c0,2.2388,0,4.4775,0,6.7163c0,0.6434,1,0.6445,1,0c0-2.2388,0-4.4775,0-6.7163
			C49.5874,131.3218,48.5874,131.3207,48.5874,131.9653L48.5874,131.9653z"/>
	</g>
</g>
<g>
	<g>
		<path style="fill:#F3EB49;" d="M58.5735,141.6861c-3.1186,3.0916-6.2372,6.1832-9.3558,9.2749
			c-0.4577,0.4537,0.2494,1.1609,0.7071,0.7071c3.1186-3.0916,6.2372-6.1832,9.3558-9.2749
			C59.7383,141.9395,59.0312,141.2323,58.5735,141.6861L58.5735,141.6861z"/>
	</g>
</g>
<g>
	<g>
		<path style="fill:#F3EB49;" d="M48.7487,138.2018c0,4.2643,0,8.5286,0,12.7929c0,0.6435,1,0.6445,1,0c0-4.2643,0-8.5286,0-12.7929
			C49.7487,137.5583,48.7487,137.5573,48.7487,138.2018L48.7487,138.2018z"/>
	</g>
</g>
<g>
	<g>
		<path style="fill:#F3EB49;" d="M56.0487,121.5809c-0.1239,0.8041-0.0485,2.5779-0.4616,3.2497
			c1.3682-0.3587,2.7364-0.7175,4.1046-1.0762c0.7591,0.8648,1.0044,0.9514,0.736,0.2598c-0.0451-0.61-0.2433-0.5517-0.5945,0.175
			c0.2226-0.3953,1.0759-0.7145,1.4163-1.0397c0.948-0.9057,1.0046-2.2037,1.7672-3.1146
			c-1.7071-0.7071-3.4142-1.4142-5.1213-2.1213c-0.18,2.3034-0.9261,4.5451-1.5168,6.7674
			c-0.4998,1.8802-0.7757,4.205-1.9496,5.7965c-2.294,3.1102,2.9108,6.106,5.1808,3.0283c1.5148-2.0537,1.9127-4.8159,2.5544-7.2298
			c0.7371-2.7726,1.5068-5.4914,1.7312-8.3624c0.1959-2.5062-3.4824-4.0788-5.1213-2.1213
			c-0.8308,0.9923-1.1762,2.3441-1.9692,3.2161c-0.9845,1.0826-1.9312,1.4108-2.3808,2.9798
			c-0.5654,1.9728,0.1623,6.0205,2.2393,6.947c1.5073,0.6723,3.1797,0.4279,4.1046-1.0762c0.825-1.3417,0.8313-3.1573,1.0665-4.683
			C62.4166,119.3985,56.636,117.7705,56.0487,121.5809L56.0487,121.5809z"/>
	</g>
</g>
<g>
	<g>
		<path style="fill:#F3EB49;" d="M65.6052,113.288c-1.5662-0.3679-2.9832-0.0501-4.5486,0.0918
			c-0.62,0.0562-2.1093,0.1432-2.4097-0.6187c-0.601-1.5242-2.8803-1.3847-2.9464,0.3988
			c-0.0647,1.7447-0.2537,3.4699-0.6118,5.1797c-0.1099,0.5245-0.2329,1.0463-0.3689,1.5646
			c-0.0448,0.1706-0.1241,0.6955-0.2076,0.7888c-0.1602,0.179-0.7561,0.3486-0.9666,0.5255
			c-0.2882,0.2421-0.4867,0.5256-0.6482,0.8603c-0.6474,1.3417-0.2204,3.2031-0.1335,4.6201c0.0555,0.905,0.111,1.81,0.1665,2.715
			c0.0256,0.4177,0.0524,0.8353,0.0769,1.2531c0.0191,0.326,0.0912,3.274,1.0733,2.4559c1.4879-1.2393-0.6434-3.3366-2.1213-2.1213
			c-1.198,0.9852-1.767,2.2963-1.9657,3.8034c0.9821-0.1329,1.9643-0.2658,2.9464-0.3988
			c-0.1028-0.5734-0.2056-1.1469-0.3084-1.7203c-0.3401-1.8973-3.2318-1.0934-2.8928,0.7975
			c0.1028,0.5734,0.2056,1.1469,0.3084,1.7203c0.1313,0.7322,0.9692,1.1659,1.6458,1.0744
			c0.7999-0.1081,1.2013-0.7195,1.3006-1.4732c0.0943-0.7154,0.5536-1.2434,1.087-1.682c-0.7071-0.7071-1.4142-1.4142-2.1213-2.1213
			c-1.9596,1.6322,0.4519,4.5284,2.5832,3.4144c1.1184-0.5846,1.5092-1.7769,1.5085-2.9676
			c-0.0009-1.4379-0.1734-2.8966-0.2615-4.3317c-0.0427-0.6961-0.0854-1.3923-0.1281-2.0884
			c-0.0271-0.4411-0.2485-1.2527-0.0572-1.6637c-0.0133,0.0286-0.0062,0.1084,0.3844-0.0385
			c0.2696-0.1014,0.5001-0.3018,0.6956-0.5042c0.4136-0.4282,0.6056-0.978,0.7692-1.5384c0.7675-2.6298,1.1457-5.3899,1.247-8.1234
			c-0.9821,0.1329-1.9643,0.2658-2.9464,0.3988c0.604,1.532,1.8236,2.44,3.4403,2.7332c1.8827,0.3414,3.77-0.544,5.6134-0.1109
			C66.6855,116.6219,67.4869,113.73,65.6052,113.288L65.6052,113.288z"/>
	</g>
</g>
<g>
	<g>
		<path style="fill:#F3EB49;" d="M49.9241,136.2948c0.4344,4.1685,0.3679,8.3794-0.2282,12.5289
			c-0.081,0.5639,0.5654,0.8568,0.9139,0.3853c1.252-1.6938,2.6083-3.304,4.057-4.8327c-0.2786-0.1622-0.5571-0.3243-0.8357-0.4865
			c-0.5585,1.6193-1.5716,2.9959-2.9151,4.0524c-0.5062,0.3981,0.206,1.0981,0.7071,0.7071c1.064-0.8303,2.0942-1.702,3.0825-2.6213
			c0.9383-0.8728,1.9762-1.7735,2.7196-2.824c0.7087-1.0014,0.6917-2.3202,0.8134-3.4944c0.1482-1.4291,0.2964-2.8583,0.4445-4.2874
			c-0.3333,0-0.6667,0-1,0c-0.0031,2.1154-0.0031,4.5092-1.3407,6.2771c-1.2611,1.6668-3.3974,2.3714-4.7538,3.9555
			c0.2618,0.0337,0.5235,0.0675,0.7853,0.1012c-0.2486-0.4187-0.2135-0.883-0.2137-1.3536
			c-0.0002-0.4993,0.0013-0.9985,0.0019-1.4978c0.0013-1.0401,0.0026-2.0802,0.0039-3.1204
			c0.0026-2.0387,0.0051-4.0773,0.0077-6.116c0.0008-0.6435-0.9985-0.6445-1,0c-0.0075,3.1569-0.0149,6.3138-0.0224,9.4707
			c-0.0014,0.5729,0.8156,0.667,0.9821,0.1329c0.5406-1.7334,1.2213-3.4098,2.0448-5.0281
			c-0.3106-0.0841-0.6212-0.1682-0.9317-0.2524c-0.1503,1.5275-0.3006,3.0551-0.4509,4.5826
			c-0.0562,0.5714,0.8356,0.663,0.9821,0.1329c0.5675-2.0531,1.3916-4.0054,2.466-5.8447
			c-0.3106-0.0841-0.6212-0.1682-0.9317-0.2524c0.2126,1.9621,0.2863,3.9316,0.2208,5.9041
			c-0.0172,0.5173,0.6748,0.6512,0.9317,0.2523c0.854-1.3256,1.2959-2.8415,1.2966-4.4178
			c0.0002-0.4913-0.6859-0.6867-0.9317-0.2523c-1.109,1.9592-2.218,3.9184-3.3269,5.8776c0.3106,0.0841,0.6212,0.1682,0.9317,0.2523
			c0.0631-1.5581,0.8501-3.0549,1.4182-4.4798c0.614-1.5398,1.2279-3.0796,1.8419-4.6194c0.2133-0.535-0.6364-0.8635-0.9139-0.3853
			c-2.2236,3.8325-4.4472,7.6649-6.6708,11.4974c-0.3251,0.5604,0.5145,1.042,0.8635,0.5047
			c2.3522-3.6215,4.7026-7.2606,6.4909-11.2024c-0.2878-0.1682-0.5756-0.3365-0.8635-0.5047
			c-1.1247,2.5314-2.1988,5.0848-3.2213,7.6591c-0.219,0.5513,0.6173,0.8316,0.9139,0.3853
			c1.3072-1.9675,2.6955-3.8782,4.1683-5.7251c0.3912-0.4905-0.2479-1.1809-0.7071-0.7071
			c-2.2276,2.2981-4.4557,4.6702-5.6172,7.7078c0.3274,0.0443,0.6548,0.0886,0.9821,0.1329
			c0.1449-4.1288,0.8941-8.2009,2.2145-12.1152c-0.3274-0.0443-0.6548-0.0886-0.9821-0.1329
			c-0.2554,1.9068-0.5108,3.8137-0.7661,5.7206c0.3333,0,0.6667,0,1,0c0.0524-0.5337,0.1047-1.0675,0.1571-1.6012
			c-0.3333,0-0.6667,0-1,0c0.0183,0.7336,0.0363,2.1506-0.9957,2.2118c-0.5152,0.0306-0.9432-0.3516-0.9847-0.8599
			c-0.0103-0.1268,0.1181-1.028,0.4766-0.7221c0.2138,0.1824-0.103,0.7488-0.1858,0.9237c0.3106,0.0841,0.6212,0.1682,0.9317,0.2524
			c-0.035-0.4892-0.148-1.5319,0.5842-1.5595c-0.1667-0.1667-0.3333-0.3333-0.5-0.5c0.0619,1.1585-0.2371,2.2254-0.8859,3.1866
			c0.2878,0.1682,0.5756,0.3365,0.8635,0.5047c0.1103-0.237,0.2205-0.474,0.3308-0.711c0.2698-0.5798-0.592-1.0883-0.8635-0.5047
			c-0.1103,0.237-0.2205,0.474-0.3308,0.711c-0.2701,0.5806,0.4995,1.044,0.8635,0.5047c0.7379-1.0932,1.0927-2.3742,1.0224-3.6914
			c-0.014-0.2621-0.2178-0.5106-0.5-0.5c-1.3808,0.0521-1.6651,1.4281-1.5842,2.5595c0.0321,0.4488,0.7016,0.7384,0.9317,0.2523
			c0.2429-0.5129,0.4893-1.0856,0.3084-1.6597c-0.1553-0.493-0.6254-0.9002-1.1551-0.8773
			c-1.1936,0.0515-1.5446,1.7201-1.1186,2.6083c0.4646,0.9686,1.7434,1.3851,2.682,0.8373c1.023-0.5971,1.136-1.9045,1.1095-2.9666
			c-0.0163-0.6544-0.9381-0.6307-1,0c-0.0524,0.5337-0.1047,1.0675-0.1571,1.6012c-0.0636,0.6485,0.9167,0.6221,1,0
			c0.2554-1.9068,0.5108-3.8137,0.7661-5.7206c0.0783-0.5845-0.8122-0.6366-0.9821-0.1329
			c-1.3479,3.9957-2.1023,8.1669-2.2502,12.381c-0.021,0.5992,0.7919,0.6304,0.9821,0.1329c1.0943-2.862,3.2645-5.1048,5.36-7.2666
			c-0.2357-0.2357-0.4714-0.4714-0.7071-0.7071c-1.5261,1.9135-2.9703,3.8887-4.3247,5.9275
			c0.3046,0.1284,0.6092,0.2569,0.9139,0.3853c0.9907-2.4941,2.0309-4.9678,3.1205-7.4203c0.2584-0.5815-0.597-1.0922-0.8635-0.5047
			c-1.7882,3.9417-4.1386,7.5809-6.4909,11.2024c0.2878,0.1682,0.5756,0.3365,0.8635,0.5047
			c2.2236-3.8325,4.4472-7.665,6.6708-11.4974c-0.3046-0.1284-0.6092-0.2569-0.9139-0.3853
			c-0.6447,1.6168-1.2893,3.2336-1.934,4.8503c-0.5812,1.4575-1.2973,2.9214-1.3618,4.5146
			c-0.0202,0.4996,0.6923,0.6754,0.9317,0.2524c1.109-1.9592,2.218-3.9184,3.3269-5.8776
			c-0.3106-0.0841-0.6212-0.1682-0.9317-0.2524c-0.0007,1.4092-0.3975,2.7293-1.1601,3.913
			c0.3106,0.0841,0.6212,0.1682,0.9317,0.2524c0.0655-1.9725-0.0082-3.942-0.2208-5.9041
			c-0.0505-0.4658-0.6617-0.7147-0.9317-0.2524c-1.1157,1.9102-1.9774,3.9513-2.5668,6.0836
			c0.3274,0.0443,0.6548,0.0886,0.9821,0.1329c0.1503-1.5275,0.3006-3.0551,0.4509-4.5826
			c0.0487-0.4949-0.7143-0.6797-0.9317-0.2524c-0.8618,1.6937-1.5798,3.4528-2.1456,5.267
			c0.3274,0.0443,0.6548,0.0886,0.9821,0.1329c0.0075-3.1569,0.0149-6.3138,0.0224-9.4707c-0.3333,0-0.6667,0-1,0
			c-0.0028,2.2051-0.0055,4.4101-0.0083,6.6152c-0.0014,1.0817-0.0027,2.1635-0.0041,3.2452
			c-0.0011,0.9079-0.1339,1.9185,0.3492,2.732c0.1539,0.2592,0.5718,0.3506,0.7853,0.1012c1.4636-1.7092,3.7581-2.4463,5.0435-4.343
			c1.2964-1.9129,1.3407-4.3709,1.3439-6.5967c0.001-0.6564-0.935-0.6272-1,0c-0.1317,1.2703-0.2634,2.5407-0.3951,3.811
			c-0.1284,1.2388-0.0561,2.6787-0.8981,3.6804c-1.5789,1.8784-3.5457,3.5238-5.474,5.0286
			c0.2357,0.2357,0.4714,0.4714,0.7071,0.7071c1.4799-1.1638,2.5593-2.7166,3.1723-4.4937
			c0.1644-0.4766-0.5018-0.8388-0.8357-0.4865c-1.5077,1.591-2.9106,3.2726-4.2133,5.0351
			c0.3046,0.1284,0.6092,0.2569,0.9139,0.3853c0.6096-4.2431,0.7084-8.5301,0.2639-12.7947
			C50.8581,135.6611,49.8574,135.6543,49.9241,136.2948L49.9241,136.2948z"/>
	</g>
</g>
<g>
	<g>
		<path style="fill:#F3EB49;" d="M61.1531,133.23c0.8953-0.1287,1.4039-0.8995,1.6864-1.6933
			c0.4-1.1238,0.5214-2.3837,0.7467-3.5516c-0.3214-0.0886-0.6429-0.1772-0.9643-0.2658c-0.2755,1.691-0.33,3.3874-0.1334,5.0905
			c0.0718,0.622,1.0075,0.6602,1,0c-0.0312-2.7461,0.1946-5.4817,0.6885-8.1834c-0.3274-0.0443-0.6548-0.0886-0.9821-0.1329
			c0.2916,2.4185-2.0275,4.3599-3.492,5.9776c-1.8278,2.019-3.6556,4.0381-5.4834,6.0571c0.2618,0.202,0.5235,0.4039,0.7853,0.6059
			c1.2794-3.0274,2.9479-5.8612,4.7185-8.6235c0.8241-1.2856,1.6216-2.6158,2.548-3.8312c0.8051-1.0562,1.8499-2.1028,3.2617-2.1206
			c-0.1439-0.2508-0.2878-0.5016-0.4317-0.7524c-0.4659,0.8429-0.9318,1.6859-1.3977,2.5288
			c-0.3159,0.5716,0.4979,1.0252,0.8635,0.5047c0.4774-0.6796,0.9549-1.3593,1.4323-2.0389
			c0.3707-0.5277-0.4959-1.0279-0.8635-0.5047c-0.4774,0.6796-0.9549,1.3593-1.4323,2.0389
			c0.2878,0.1682,0.5756,0.3365,0.8635,0.5047c0.4659-0.8429,0.9318-1.6859,1.3977-2.5288
			c0.1804-0.3263-0.0445-0.7572-0.4317-0.7524c-3.0563,0.0385-4.7328,3.453-6.1697,5.6667c-1.9545,3.0113-3.8216,6.09-5.222,9.4038
			c-0.2011,0.476,0.3674,1.0675,0.7853,0.6059c1.9939-2.2026,3.9879-4.4052,5.9818-6.6078c1.5248-1.6843,3.587-3.641,3.2864-6.1341
			c-0.0609-0.5049-0.871-0.7408-0.9821-0.1329c-0.5098,2.789-0.7564,5.614-0.7242,8.4493c0.3333,0,0.6667,0,1,0
			c-0.1856-1.6087-0.1628-3.2253,0.0977-4.8246c0.1018-0.6247-0.8412-0.9038-0.9643-0.2658
			c-0.1884,0.9764-0.3447,1.9664-0.5704,2.9348c-0.1549,0.665-0.3882,1.5-1.1643,1.6116
			C60.2528,132.357,60.5226,133.3207,61.1531,133.23L61.1531,133.23z"/>
	</g>
</g>
<g>
	<g>
		<path style="fill:#F3EB49;" d="M67.2229,122.0495c1.7871-2.8327,2.3484-6.2917,1.6539-9.5562
			c-0.1737-0.8165-1.093-1.2206-1.8452-1.0477c-0.6952,0.1599-1.3949,0.2984-2.0997,0.4093
			c-0.1626,0.0256-0.3254,0.0502-0.4884,0.0728c0.2205-0.0306-0.2638,0.032-0.2543,0.0309
			c-0.3542,0.0419-0.7092,0.0772-1.0648,0.1062c-1.3957,0.1141-2.7967,0.1259-4.1946,0.0457
			c0.1329,0.9821,0.2658,1.9643,0.3988,2.9464c0.3154-0.0782,0.6323-0.1477,0.9526-0.2025
			c-0.0056,0.0009,0.4755-0.0657,0.2442-0.0387c0.1613-0.0188,0.3231-0.0343,0.485-0.0467c0.6488-0.0498,1.2985-0.0428,1.947,0.0074
			c0.7842,0.0608,1.5343-0.7334,1.5-1.5c-0.0387-0.8647-0.66-1.4348-1.5-1.5c-1.4834-0.115-2.9829,0.0298-4.4262,0.3876
			c-0.7255,0.1798-1.1705,0.9311-1.0744,1.6458c0.1022,0.7603,0.7193,1.2574,1.4732,1.3006
			c2.9837,0.1711,5.9873-0.1026,8.8993-0.7722c-0.6151-0.3492-1.2301-0.6984-1.8452-1.0477
			c0.0392,0.1843,0.0708,0.3695,0.1065,0.5544c0.0268,0.1791,0.0292,0.1858,0.0072,0.0201
			c0.0117,0.0933,0.0221,0.1868,0.0314,0.2803c0.0322,0.3276,0.0501,0.6565,0.0533,0.9856
			c0.0032,0.3292-0.0081,0.6585-0.0338,0.9867c-0.0044,0.0564-0.0661,0.6284-0.0231,0.3026
			c-0.0216,0.1632-0.0497,0.3257-0.0797,0.4875c-0.1243,0.6711-0.3086,1.3309-0.5512,1.9688
			c-0.0335,0.088-0.0681,0.1756-0.1037,0.2627c0.0598-0.1414,0.0542-0.1312-0.0168,0.0306
			c-0.0612,0.1273-0.1194,0.256-0.1828,0.3823c-0.1693,0.3373-0.3575,0.6636-0.5588,0.9828
			c-0.4193,0.6647-0.1615,1.6826,0.5381,2.0523C65.9099,122.9782,66.7753,122.759,67.2229,122.0495L67.2229,122.0495z"/>
	</g>
</g>
<g>
	<g>
		<path style="fill:#F3EB49;" d="M51.3865,130.4436c-0.077,0.4-0.1829,0.7939-0.3197,1.1777
			c-0.033,0.0926-0.0677,0.1845-0.1041,0.2758c-0.0077,0.0194-0.0782,0.1851-0.0302,0.0751
			c-0.0168,0.0386-0.0336,0.0772-0.0509,0.1157c-0.0864,0.1922-0.1808,0.3804-0.2818,0.5653
			c0.3106,0.0841,0.6212,0.1682,0.9317,0.2523c-0.0184-0.3692-0.0367-0.7384-0.0551-1.1077c-0.013-0.2608-0.2207-0.5125-0.5-0.5
			c-0.2598,0.0116-0.5139,0.2202-0.5,0.5c0.0184,0.3692,0.0367,0.7384,0.0551,1.1077c0.0106,0.2125,0.147,0.432,0.3671,0.4821
			c0.2123,0.0484,0.4556-0.0301,0.5647-0.2298c0.4178-0.7646,0.7229-1.5926,0.8876-2.4485c0.0493-0.256-0.0717-0.5519-0.3492-0.6151
			C51.7547,130.0381,51.4394,130.1689,51.3865,130.4436L51.3865,130.4436z"/>
	</g>
</g>
<g>
	<g>
		<path style="fill:#F3EB49;" d="M55.7301,131.0183c0.0262-1.5295-0.9826-3.0971-0.4013-4.5653
			c0.2826-0.7138,0.6026-1.366,0.646-2.1508c0.0451-0.8161-0.4298-1.4377-0.4995-2.2072c-0.1172-1.2931,1.46-2.5987,2.0764-3.6365
			c0.8908-1.4996,1.4302-3.1928,1.952-4.8465c-0.9821-0.1329-1.9643-0.2658-2.9464-0.3988
			c-0.0011,0.0739-0.0022,0.1478-0.0033,0.2217c0.0683-0.2524,0.1365-0.5047,0.2048-0.7571
			c0.1346-0.0998,0.2692-0.1996,0.4039-0.2995c0.6151,0.3492,1.2301,0.6984,1.8452,1.0477
			c-0.2287-1.1402-0.6346-2.2137-1.1779-3.2412c-0.9027-1.7075-3.4931-0.1932-2.5904,1.5142
			c0.4259,0.8057,0.6964,1.6317,0.8754,2.5246c0.1644,0.82,1.1004,1.2166,1.8452,1.0477c0.9964-0.2261,1.5823-1.0634,1.5971-2.058
			c0.0257-1.7281-2.445-1.9878-2.9464-0.3988c-0.5183,1.6426-1.044,3.2756-2.0214,4.7116c-0.8984,1.3199-2.067,2.5759-2.1135,4.2719
			c-0.0228,0.8334,0.4288,1.5008,0.4958,2.2823c0.0578,0.6737-0.5325,1.4159-0.7085,2.0541
			c-0.4756,1.7248,0.4957,3.2015,0.4669,4.8838C52.6971,132.9495,55.6971,132.9498,55.7301,131.0183L55.7301,131.0183z"/>
	</g>
</g>
<g>
	<g>
		<path style="fill:#F3EB49;" d="M56.0886,112.5687c3.9535,0,7.9071,0,11.8606,0c1.9304,0,1.9336-3,0-3
			c-3.9535,0-7.9071,0-11.8606,0C54.1582,109.5687,54.155,112.5687,56.0886,112.5687L56.0886,112.5687z"/>
	</g>
</g>
<g>
	<g>
		<path style="fill:#F3EB49;" d="M66.5601,111.0687c0,3.2885,0,6.5769,0,9.8654c0,0.7846,0.6899,1.5363,1.5,1.5
			c0.8127-0.0364,1.5-0.6591,1.5-1.5c0-3.2885,0-6.5769,0-9.8654c0-0.7846-0.6899-1.5363-1.5-1.5
			C67.2474,109.6051,66.5601,110.2278,66.5601,111.0687L66.5601,111.0687z"/>
	</g>
</g>
<g>
	<g>
		<path style="fill:#F3EB49;" d="M66.0123,119.9066c-0.3191,0.4681-0.9006,0.7413-1.3609,1.0477
			c-0.6982,0.4648-1.3685,0.9858-1.984,1.5558c-1.1645,1.0787-2.1496,2.3705-2.9106,3.7618
			c-0.9331,1.7061,1.5271,3.1163,2.5904,1.5142c0.5692-0.8577,1.2185-1.6415,1.9578-2.3589
			c0.7865-0.7632,1.5609-1.4072,1.9702-2.4611c0.3713-0.9561,0.4732-2.0345,0.6627-3.0386
			c0.2181-1.1555,0.4361-2.3109,0.6542-3.4664c0.1382-0.7323-0.1412-1.477-0.8685-1.7696
			c-0.6283-0.2527-1.5658-0.0779-1.8731,0.6137c-0.8771,1.9736-1.7541,3.9471-2.6312,5.9207
			c0.9317,0.2524,1.8635,0.5047,2.7952,0.7571c-0.0973-2.2288-0.0044-4.454,0.2781-6.6669c-1,0-2,0-3,0
			c-0.1315,1.0482-0.263,2.0963-0.3944,3.1445c0.9317-0.2524,1.8635-0.5047,2.7952-0.7571c-0.7511-1.481-2.026-2.6171-3.4625-3.4186
			c-0.7122-0.3974-1.4721-0.718-2.2336-1.0074c-0.3877-0.1473-0.7801-0.2823-1.1747-0.41c-0.195-0.0631-0.391-0.1233-0.5868-0.1839
			c-0.0648-0.0196-0.1296-0.0392-0.1944-0.0588c-0.4831-0.2063-0.4124,0.0844,0.2121,0.8719
			c-0.1286,0.2206-0.2572,0.4413-0.3858,0.6619c0.0322-0.0411,0.0645-0.0822,0.0967-0.1233c0.4996-0.6367,0.6212-1.5002,0-2.1213
			c-0.5197-0.5197-1.6185-0.6409-2.1213,0c-0.8822,1.1243-0.6762,2.6253,0.6531,3.3157c0.8635,0.4485,1.8928,0.6273,2.8006,0.9782
			c1.5566,0.6016,3.0318,1.4829,3.8062,3.0099c0.2974,0.5865,1.0824,0.8574,1.694,0.6893c0.6897-0.1895,1.0179-0.782,1.1012-1.4464
			c0.1315-1.0482,0.263-2.0963,0.3944-3.1445c0.101-0.8052-0.7617-1.5-1.5-1.5c-0.896,0-1.3969,0.6926-1.5,1.5
			c-0.2826,2.213-0.3754,4.4381-0.2781,6.6669c0.0289,0.6625,0.4459,1.2663,1.1012,1.4464c0.59,0.1621,1.4284-0.0918,1.694-0.6893
			c0.8771-1.9736,1.7542-3.9471,2.6312-5.9207c-0.9139-0.3853-1.8277-0.7706-2.7416-1.1558
			c-0.2013,1.0666-0.4026,2.1332-0.6039,3.1997c-0.1854,0.9821-0.2341,2.1795-0.6349,3.1
			c-0.3037,0.6974-1.1887,1.2329-1.7103,1.7816c-0.7393,0.7778-1.4003,1.6334-1.9933,2.527
			c0.8635,0.5047,1.7269,1.0094,2.5904,1.5142c0.7223-1.3206,1.6375-2.4692,2.7771-3.4551
			c1.1648-1.0076,2.5869-1.6027,3.4783-2.9102c0.4565-0.6696,0.1267-1.6634-0.5381-2.0523
			C67.3232,118.9348,66.4699,119.2354,66.0123,119.9066L66.0123,119.9066z"/>
	</g>
</g>
<g>
	<g>
		<path style="fill:#F3EB49;" d="M54.3633,123.5267c-0.4863,1.9884-1.2533,3.8544-2.3565,5.5809
			c-1.085,1.6979-2.7933,2.978-3.0584,5.0738c-0.5904,4.667-0.3548,9.5916-0.1011,14.2751c0.104,1.9202,3.1047,1.9324,3,0
			c-0.131-2.418-0.1964-4.8383-0.1795-7.2599c0.0079-1.1298,0.0319-2.2596,0.0727-3.3887c0.0381-1.0534-0.0334-2.2325,0.167-3.2649
			c0.1791-0.9225,0.9649-1.572,1.5264-2.2917c0.5775-0.7402,1.113-1.5088,1.5848-2.3209c1.0139-1.745,1.7586-3.6479,2.2375-5.6062
			C57.7147,122.4492,54.8224,121.6492,54.3633,123.5267L54.3633,123.5267z"/>
	</g>
</g>
<g>
	<g>
		<path style="fill:#F3EB49;" d="M50.4773,150.1974c-0.0966-1.7437,0.9774-3.1542,2.2584-4.2175
			c1.3232-1.0982,2.837-1.9951,4.2615-2.9542c0.5508-0.3708,1.2439-0.7005,1.4475-1.3808c0.2267-0.7576,0.1643-1.6783,0.1775-2.4621
			c0.0304-1.8118-0.1199-3.6177-0.4103-5.4053c-0.069-0.4248-0.7269-0.4827-0.9139-0.1194
			c-0.6942,1.3486-1.0796,2.7921-1.1476,4.3077c0.3333,0,0.6667,0,1,0c-0.0642-1.2917,0.018-2.5702,0.264-3.8404
			c-0.3214,0-0.6429,0-0.9643,0c0.2343,1.0986,0.4685,2.1973,0.7028,3.2959c0.1015,0.4761,0.8635,0.4778,0.9643,0
			c0.1439-0.6826,0.1894-1.3592,0.1149-2.0538c-0.0509-0.4747-0.6537-0.7036-0.9317-0.2524
			c-0.2856,0.4636-0.6123,0.8607-1.0068,1.2348c0.2786,0.0735,0.5571,0.1471,0.8357,0.2206
			c-0.3491-1.0259-0.6983-2.0518-1.0474-3.0777c-0.163-0.479-0.797-0.4687-0.9643,0c-0.2603,0.7292-0.4532,1.4699-0.5816,2.2334
			c0.3274,0.0443,0.6548,0.0886,0.9821,0.1329c-0.0445-1.2179-0.089-2.4357-0.1336-3.6536c-0.0235-0.6424-0.9817-0.6451-1,0
			c-0.0402,1.4168-0.2674,2.7988-0.6756,4.1558c0.3274,0.0443,0.6548,0.0886,0.9821,0.1329
			c0.0061-1.6196,0.0122-3.2393,0.0182-4.8589c0.0024-0.6452-0.9778-0.6421-1,0c-0.0526,1.5213-0.332,2.9996-0.8252,4.4391
			c0.1164-0.1164,0.2328-0.2328,0.3492-0.3492c-0.6446,0.2636-0.9859,0.7119-1.0751,1.4028
			c0.3106-0.0841,0.6212-0.1682,0.9317-0.2524c-0.1407-0.3135-0.6196-1.4314,0.115-1.4563
			c-0.1439-0.0826-0.2878-0.1651-0.4317-0.2476c0.722,1.2906,1.444,2.5811,2.1659,3.8717c0.2878-0.1682,0.5756-0.3365,0.8635-0.5047
			c-1.5606-2.6438-3.2278-5.354-5.9111-6.9926c-0.5507-0.3363-1.0537,0.5282-0.5047,0.8635
			c2.531,1.5457,4.0821,4.1432,5.5523,6.6339c0.3273,0.5544,1.1783,0.0581,0.8635-0.5047c-0.722-1.2906-1.444-2.5811-2.1659-3.8717
			c-0.0833-0.1489-0.2599-0.2535-0.4317-0.2477c-0.6187,0.021-1.1141,0.3967-1.3098,0.9904
			c-0.2243,0.6808,0.0532,1.3512,0.3313,1.9706c0.2296,0.5114,0.8771,0.1708,0.9317-0.2523c0.0471-0.3645,0.3544-0.36,0.5616-0.5672
			c0.116-0.116,0.1533-0.2934,0.2042-0.4414c0.1644-0.4777,0.2957-0.9684,0.4064-1.4609c0.2233-0.9934,0.3437-2.0062,0.3789-3.0233
			c-0.3333,0-0.6667,0-1,0c-0.0061,1.6196-0.0122,3.2393-0.0182,4.8589c-0.0021,0.5701,0.8204,0.6707,0.9821,0.1329
			c0.4329-1.4391,0.6687-2.9196,0.7113-4.4217c-0.3333,0-0.6667,0-1,0c0.0445,1.2179,0.089,2.4357,0.1336,3.6536
			c0.0196,0.5348,0.8844,0.7138,0.9821,0.1329c0.1285-0.7635,0.3213-1.5042,0.5816-2.2334c-0.3214,0-0.6429,0-0.9643,0
			c0.3491,1.0259,0.6983,2.0518,1.0474,3.0777c0.1216,0.3575,0.5522,0.4894,0.8357,0.2206
			c0.4523-0.4288,0.8365-0.9068,1.1632-1.4371c-0.3106-0.0841-0.6212-0.1682-0.9317-0.2523c0.065,0.6064,0.0469,1.1901-0.0792,1.788
			c0.3214,0,0.6429,0,0.9643,0c-0.2343-1.0986-0.4685-2.1973-0.7028-3.2959c-0.1006-0.4717-0.8709-0.4823-0.9643,0
			c-0.2627,1.3567-0.3683,2.7256-0.2997,4.1062c0.0319,0.6424,0.9711,0.6448,1,0c0.0599-1.3351,0.3994-2.6147,1.011-3.803
			c-0.3046-0.0398-0.6092-0.0796-0.9139-0.1194c0.2889,1.7779,0.4148,3.5791,0.3697,5.3801
			c-0.012,0.4809-0.0325,0.9625-0.0715,1.442c-0.0412,0.5066-0.1442,0.6751-0.5647,0.968
			c-0.7407,0.5158-1.4985,1.0089-2.2472,1.5131c-2.3986,1.615-5.4394,3.5482-5.2565,6.851
			C49.5127,150.8374,50.5129,150.8415,50.4773,150.1974L50.4773,150.1974z"/>
	</g>
</g>
<g>
	<g>
		<path style="fill:#F3EB49;" d="M59.4615,136.1648c1.1557-1.2702,2.1809-2.6524,3.1968-4.0348
			c0.4533-0.6167,0.9791-1.2215,1.3545-1.8897c0.4652-0.828,0.572-1.7652,0.5582-2.6998c-0.011-0.7491-0.5624-1.374-1.3006-1.4732
			c-0.6977-0.0938-1.4891,0.3417-1.6458,1.0744c-0.1411,0.6598-0.2373,1.3348-0.2766,2.0086
			c-0.0178,0.306-0.0222,0.6128-0.0124,0.9192c0.0045,0.1414,0.0125,0.2827,0.0223,0.4238c0.0086,0.1236-0.0453,0.432,0.0577,0.0931
			c0.0875-0.3291,0.2662-0.5474,0.5361-0.6547c0.1217-0.0504,0.121-0.0559-0.002-0.0165c-0.1112,0.0226-0.2253,0.059-0.3323,0.0956
			c-0.3188,0.1091-0.6369,0.2421-0.9294,0.4099c-0.2882,0.1653-0.5631,0.3767-0.8122,0.5936
			c-0.1308,0.1068-0.1248,0.1047,0.018-0.0061c-0.1258,0.0715-0.135,0.085-0.0276,0.0405c0.1766-0.0724,0.3637-0.074,0.5615-0.0046
			c0.4999,0.169,0.7206,0.6069,0.6621,1.3136c0.1843-0.7613-0.2409-1.6614-1.0477-1.8452
			c-0.7722-0.1759-1.6476,0.2319-1.8452,1.0477c-0.3494,1.4429,1.0322,2.7925,2.4816,2.3699
			c0.2565-0.0748,0.5066-0.1829,0.7294-0.3315c0.1565-0.1044,0.3023-0.2276,0.448-0.3461c0.0243-0.0198,0.2255-0.1899,0.086-0.0763
			c-0.156,0.1271,0.118-0.0791,0.1525-0.1006c0.0712-0.0444,0.1452-0.083,0.2178-0.1249c0.3187-0.1838-0.1523,0.0291,0.0437-0.0256
			c0.1004-0.028,0.1988-0.0654,0.2995-0.0935c0.5753-0.1606,1.0609-0.3999,1.4043-0.9102c0.3231-0.4801,0.3218-1.0163,0.2888-1.5692
			c-0.0267-0.4472-0.0235-0.8962,0.0087-1.343c0.0068-0.0941,0.0149-0.188,0.0243-0.2819c0.0111-0.1114,0.0411-0.313,0.0073-0.0926
			c0.0357-0.2332,0.0792-0.4647,0.1286-0.6954c-0.9821-0.1329-1.9643-0.2658-2.9464-0.3988
			c0.0026,0.1742,0.0043,0.3484-0.003,0.5225c-0.0033,0.0871-0.0089,0.174-0.0166,0.2608c0.0297-0.1831,0.0297-0.1875-0.0001-0.0131
			c-0.0175,0.0695-0.1867,0.56-0.0448,0.2549c-0.0681,0.1463-0.1544,0.2833-0.2444,0.4169
			c-0.4025,0.5975-0.8518,1.1677-1.2787,1.748c-0.2109,0.2867-0.4221,0.5731-0.6353,0.858
			c-0.1137,0.152-0.2279,0.3036-0.3429,0.4546c-0.0575,0.0755-0.1152,0.1508-0.173,0.226c0.0894-0.116,0.0803-0.1048-0.0274,0.0335
			c-0.4725,0.5942-0.9538,1.1791-1.4648,1.7408c-0.528,0.5804-0.6162,1.5556,0,2.1213
			C57.9157,136.6931,58.8975,136.7847,59.4615,136.1648L59.4615,136.1648z"/>
	</g>
</g>
<g>
	<g>
		<path style="fill:#F3EB49;" d="M52.4712,120.8636c0.6974-0.7066,1.3947-1.4133,2.0921-2.1199
			c0.1839-0.1864,0.1999-0.5236,0-0.7071c-0.1985-0.1822-0.5108-0.1989-0.7071,0c-0.6974,0.7066-1.3947,1.4133-2.0921,2.1199
			c-0.1839,0.1864-0.1999,0.5236,0,0.7071C51.9626,121.0458,52.2749,121.0625,52.4712,120.8636L52.4712,120.8636z"/>
	</g>
</g>
<g>
	<g>
		<path style="fill:#F3EB49;" d="M54.7042,118.0521c0-2.6603,0-5.3207,0-7.981c0-0.6435-1-0.6445-1,0c0,2.6603,0,5.3207,0,7.981
			C53.7042,118.6955,54.7042,118.6966,54.7042,118.0521L54.7042,118.0521z"/>
	</g>
</g>
<g>
	<g>
		<path style="fill:#F3EB49;" d="M54.5367,110.4602c4.8034,0,9.6067,0,14.4101,0c0.6435,0,0.6445-1,0-1
			c-4.8034,0-9.6067,0-14.4101,0C53.8933,109.4602,53.8922,110.4602,54.5367,110.4602L54.5367,110.4602z"/>
	</g>
</g>
<g>
	<g>
		<path style="fill:#F3EB49;" d="M68.6541,110.0653c0.2262,1.3248-0.0116,2.713-0.1354,4.0378
			c-0.1296,1.3867-0.2592,2.7733-0.3888,4.16c-0.0599,0.6404,0.9405,0.6364,1,0c0.1347-1.441,0.2694-2.8821,0.404-4.3231
			c0.1289-1.3793,0.3197-2.7623,0.0844-4.1405C69.5103,109.1664,68.5464,109.4349,68.6541,110.0653L68.6541,110.0653z"/>
	</g>
</g>
</svg>
