<?xml version="1.0" encoding="utf-8"?>
<!-- Generator: Adobe Illustrator 26.1.0, SVG Export Plug-In . SVG Version: 6.00 Build 0)  -->
<svg version="1.1" id="Layer_1" xmlns="http://www.w3.org/2000/svg" xmlns:xlink="http://www.w3.org/1999/xlink" x="0px" y="0px"
	 viewBox="0 0 100.8032 78.3133" style="enable-background:new 0 0 100.8032 78.3133;" xml:space="preserve">
<g>
	<g>
		<path style="fill:#AFB1B4;" d="M23.8956,70.8112c10.2,0,19.9717-8.9691,19.5-19.5c-0.4732-10.5651-8.568-19.5-19.5-19.5
			c-10.2,0-19.9717,8.9691-19.5,19.5C4.8688,61.8764,12.9636,70.8112,23.8956,70.8112L23.8956,70.8112z"/>
	</g>
</g>
<g>
	<g>
		<path style="fill:#AFB1B4;" d="M53.2129,72.4177c10.2,0,19.9717-8.9691,19.5-19.5c-0.4732-10.5651-8.568-19.5-19.5-19.5
			c-10.2,0-19.9717,8.9691-19.5,19.5C34.1861,63.4828,42.2808,72.4177,53.2129,72.4177L53.2129,72.4177z"/>
	</g>
</g>
<g>
	<g>
		<path style="fill:#AFB1B4;" d="M77.3092,68c10.2,0,19.9717-8.9691,19.5-19.5c-0.4732-10.5651-8.568-19.5-19.5-19.5
			c-10.2,0-19.9717,8.9691-19.5,19.5C58.2825,59.0651,66.3772,68,77.3092,68L77.3092,68z"/>
	</g>
</g>
<g>
	<g>
		<path style="fill:#AFB1B4;" d="M47.7825,52.4692c0.4017-0.2676,0.8034-0.5353,1.205-0.8029
			c2.2724-1.2254,4.0961-2.8995,5.4711-5.0224c1.7236-1.8834,2.887-4.0938,3.4903-6.6314c0.8127-2.5919,0.9287-5.1839,0.3483-7.7758
			c-0.1177-2.5951-0.889-5.0118-2.314-7.2501c-1.0164-1.3155-2.0327-2.631-3.0491-3.9466
			c-2.4331-2.4168-5.3013-4.0884-8.6047-5.0149c-1.728-0.2322-3.4559-0.4644-5.1839-0.6966
			c-3.5199,0.0109-6.8006,0.8984-9.842,2.6623c-0.4017,0.2676-0.8034,0.5353-1.205,0.8029
			c-2.2724,1.2254-4.0961,2.8995-5.4711,5.0224c-1.7236,1.8834-2.887,4.0938-3.4903,6.6314
			c-0.8127,2.5919-0.9287,5.1839-0.3483,7.7758c0.1177,2.5951,0.889,5.0118,2.314,7.2501c1.0164,1.3155,2.0327,2.631,3.0491,3.9466
			c2.4331,2.4168,5.3013,4.0884,8.6047,5.0149c1.728,0.2322,3.4559,0.4644,5.1839,0.6966
			C41.4603,55.1206,44.741,54.2332,47.7825,52.4692L47.7825,52.4692z"/>
	</g>
</g>
<g>
	<g>
		<path style="fill:#AFB1B4;" d="M60.8434,51.8373c9.9385,0,19.4596-8.7391,19-19c-0.4611-10.2942-8.3483-19-19-19
			c-9.9385,0-19.4596,8.7391-19,19C42.3045,43.1316,50.1917,51.8373,60.8434,51.8373L60.8434,51.8373z"/>
	</g>
</g>
<g>
	<g>
		<path style="fill:#AFB1B4;" d="M60.8434,49.0261c9.9385,0,19.4596-8.7391,19-19c-0.4611-10.2942-8.3483-19-19-19
			c-9.9385,0-19.4596,8.7391-19,19C42.3045,40.3203,50.1917,49.0261,60.8434,49.0261L60.8434,49.0261z"/>
	</g>
</g>
<g>
	<g>
		<path style="fill:#AFB1B4;" d="M41.9679,36.8876c8.6308,0,16.8991-7.5893,16.5-16.5c-0.4004-8.9397-7.2498-16.5-16.5-16.5
			c-8.6308,0-16.8991,7.5893-16.5,16.5C25.8683,29.3273,32.7177,36.8876,41.9679,36.8876L41.9679,36.8876z"/>
	</g>
</g>
<g>
	<g>
		<path style="fill:#AFB1B4;" d="M20.2811,43.1245c17.3732,0,17.402-27,0-27C2.9079,16.1245,2.8791,43.1245,20.2811,43.1245
			L20.2811,43.1245z"/>
	</g>
</g>
<g>
	<g>
		<path style="fill:#AFB1B4;" d="M82.5301,43.1245c17.3732,0,17.402-27,0-27C65.1569,16.1245,65.1281,43.1245,82.5301,43.1245
			L82.5301,43.1245z"/>
	</g>
</g>
</svg>
