<?xml version="1.0" encoding="utf-8"?>
<!-- Generator: Adobe Illustrator 26.1.0, SVG Export Plug-In . SVG Version: 6.00 Build 0)  -->
<svg version="1.1" id="Layer_1" xmlns="http://www.w3.org/2000/svg" xmlns:xlink="http://www.w3.org/1999/xlink" x="0px" y="0px"
	 viewBox="0 0 162.249 104.0161" style="enable-background:new 0 0 162.249 104.0161;" xml:space="preserve">
<g>
	<g>
		<path style="fill:#636466;" d="M32.5301,97.3956c12.2923,0,24.0684-10.8089,23.5-23.5c-0.5703-12.7323-10.3255-23.5-23.5-23.5
			c-12.2923,0-24.0684,10.8089-23.5,23.5C9.6004,86.6279,19.3556,97.3956,32.5301,97.3956L32.5301,97.3956z"/>
	</g>
</g>
<g>
	<g>
		<path style="fill:#636466;" d="M70.6827,97.7972c12.2923,0,24.0684-10.8089,23.5-23.5c-0.5703-12.7323-10.3255-23.5-23.5-23.5
			c-12.2923,0-24.0684,10.8089-23.5,23.5C47.753,87.0295,57.5082,97.7972,70.6827,97.7972L70.6827,97.7972z"/>
	</g>
</g>
<g>
	<g>
		<path style="fill:#636466;" d="M100.4016,99.002c12.2923,0,24.0684-10.8089,23.5-23.5c-0.5703-12.7323-10.3255-23.5-23.5-23.5
			c-12.2923,0-24.0684,10.8089-23.5,23.5C77.4719,88.2344,87.2271,99.002,100.4016,99.002L100.4016,99.002z"/>
	</g>
</g>
<g>
	<g>
		<path style="fill:#636466;" d="M134.5381,99.002c12.2923,0,24.0684-10.8089,23.5-23.5c-0.5703-12.7323-10.3255-23.5-23.5-23.5
			c-12.2923,0-24.0684,10.8089-23.5,23.5C111.6084,88.2344,121.3637,99.002,134.5381,99.002L134.5381,99.002z"/>
	</g>
</g>
<g>
	<g>
		<path style="fill:#636466;" d="M114.8594,72.2008c11.5077,0,22.5322-10.119,22-22c-0.5339-11.9196-9.6664-22-22-22
			c-11.5077,0-22.5322,10.119-22,22C93.3933,62.1204,102.5259,72.2008,114.8594,72.2008L114.8594,72.2008z"/>
	</g>
</g>
<g>
	<g>
		<path style="fill:#636466;" d="M81.5261,67.3815c11.5077,0,22.5322-10.119,22-22c-0.5339-11.9196-9.6664-22-22-22
			c-11.5077,0-22.5322,10.119-22,22C60.06,57.3012,69.1925,67.3815,81.5261,67.3815L81.5261,67.3815z"/>
	</g>
</g>
<g>
	<g>
		<path style="fill:#636466;" d="M53.4137,68.1847c11.5077,0,22.5322-10.119,22-22c-0.5339-11.9196-9.6664-22-22-22
			c-11.5077,0-22.5322,10.119-22,22C31.9475,58.1044,41.0801,68.1847,53.4137,68.1847L53.4137,68.1847z"/>
	</g>
</g>
<g>
	<g>
		<path style="fill:#636466;" d="M100,41.99c10.2,0,19.9717-8.9691,19.5-19.5c-0.4732-10.5651-8.568-19.5-19.5-19.5
			c-10.2,0-19.9717,8.9691-19.5,19.5C80.9732,33.0551,89.068,41.99,100,41.99L100,41.99z"/>
	</g>
</g>
<g>
	<g>
		<path style="fill:#636466;" d="M70.6827,43.1948c10.2,0,19.9717-8.9691,19.5-19.5c-0.4732-10.5651-8.568-19.5-19.5-19.5
			c-10.2,0-19.9717,8.9691-19.5,19.5C51.6559,34.2599,59.7507,43.1948,70.6827,43.1948L70.6827,43.1948z"/>
	</g>
</g>
<g>
	<g>
		<path style="fill:#636466;" d="M123.2932,62.8735c10.2,0,19.9717-8.9691,19.5-19.5c-0.4732-10.5651-8.568-19.5-19.5-19.5
			c-10.2,0-19.9717,8.9691-19.5,19.5C104.2664,53.9386,112.3612,62.8735,123.2932,62.8735L123.2932,62.8735z"/>
	</g>
</g>
<g>
	<g>
		<path style="fill:#636466;" d="M51.004,54.4398c10.2,0,19.9717-8.9691,19.5-19.5c-0.4732-10.5651-8.568-19.5-19.5-19.5
			c-10.2,0-19.9717,8.9691-19.5,19.5C31.9772,45.5049,40.072,54.4398,51.004,54.4398L51.004,54.4398z"/>
	</g>
</g>
<g>
	<g>
		<path style="fill:#636466;" d="M24.8996,70.9056c10.2,0,19.9717-8.9691,19.5-19.5c-0.4732-10.5651-8.568-19.5-19.5-19.5
			c-10.2,0-19.9717,8.9691-19.5,19.5C5.8728,61.9708,13.9676,70.9056,24.8996,70.9056L24.8996,70.9056z"/>
	</g>
</g>
<g>
	<g>
		<path style="fill:#636466;" d="M132.5301,75.7249c10.2,0,19.9717-8.9691,19.5-19.5c-0.4732-10.5651-8.568-19.5-19.5-19.5
			c-10.2,0-19.9717,8.9691-19.5,19.5C113.5033,66.79,121.5981,75.7249,132.5301,75.7249L132.5301,75.7249z"/>
	</g>
</g>
</svg>
