<?xml version="1.0" encoding="utf-8"?>
<!-- Generator: Adobe Illustrator 26.5.1, SVG Export Plug-In . SVG Version: 6.00 Build 0)  -->
<svg version="1.1" id="Layer_1" xmlns="http://www.w3.org/2000/svg" xmlns:xlink="http://www.w3.org/1999/xlink" x="0px" y="0px"
	 viewBox="0 0 150 207.25" style="enable-background:new 0 0 150 207.25;" xml:space="preserve">
<ellipse style="stroke:#000000;stroke-miterlimit:10;" cx="80.07" cy="89.86" rx="56.16" ry="83.33"/>
<g>
	<g>
		<path d="M23.59,90.59c-1.12,31.38-1.91,62.78-2.37,94.18c-0.12,8.37,12.88,8.37,13,0c0.46-31.4,1.25-62.8,2.37-94.18
			C36.89,82.23,23.89,82.24,23.59,90.59L23.59,90.59z"/>
	</g>
</g>
<g>
	<g>
		<path d="M123.93,98.55c0,29.95,0,59.9,0,89.86c0,8.36,13,8.38,13,0c0-29.95,0-59.9,0-89.86
			C136.93,90.19,123.93,90.17,123.93,98.55L123.93,98.55z"/>
	</g>
</g>
<g>
	<g>
		<path d="M20.74,186.48c6.21,10.58,21.42,13.82,31.04,5.81c0.94-0.79,4.77-6.17,5.82-6.05c0.42,0.05,2.46,3.73,2.96,4.54
			c3.38,5.42,7.61,9.77,14.08,11.21c6.34,1.41,12.44-0.74,16.54-5.72c1.07-1.3,3.26-6.03,4.73-6.58c1.43-0.54,2.78,1.61,4.25,2.93
			c4.43,3.98,11.07,6.96,16.83,3.82c2.9-1.58,5.18-4.91,5.41-8.22c0.59-1.62,0.5-1.98-0.24-1.08c-0.45,0.13-0.6,0.33-0.45,0.58
			c0.97,1.65,2.25,3.14,3.16,4.91c3.82,7.45,15.04,0.88,11.23-6.56c-3.19-6.22-7.97-11.83-15.59-11.41
			c-3.39,0.19-6.59,1.87-8.57,4.63c-0.85,1.19-1.42,2.5-1.82,3.92c-0.16,1.03-0.34,2.06-0.53,3.09c2.38-0.93,2.91-1.49,1.57-1.68
			c-0.02-0.06-2.47-1.8-2.34-1.69c-1.33-1.16-2.55-2.4-3.96-3.47c-2.63-1.99-5.68-3.33-9.04-3.23c-6.65,0.19-10.03,5.39-13.49,10.24
			c-3.41,4.79-7.4,2.69-10.22-1.71c-3.11-4.84-6.08-9.95-12.15-11.27c-3.36-0.73-6.75,0.2-9.57,2.04c-2.8,1.82-4.29,4.85-6.88,6.8
			c-3.71,2.78-9.24,1.52-11.55-2.4C27.73,172.71,16.49,179.24,20.74,186.48L20.74,186.48z"/>
	</g>
</g>
<g>
	<g>
		<path d="M113.62,161.46c-4.7,4.02-9.41,8.05-14.11,12.07c-4.57,3.91-0.6,10.82,4.6,11.1c2.07,0.11,3.87,0.58,5.82,1.28
			c2.02,0.72,4.93-0.04,6.32-1.67c5.41-6.3,11.3-10.74,13.23-19.26c1.77-7.82,0.65-15.79-0.58-23.59
			c-1.16-7.31-12.91-5.47-12.77,1.73c0.15,7.86-10.13,14.92-15.12,19.92c-2.98,2.98-5.92,6.76-9.69,8.77
			c-3.66,1.95-7.71,2.57-11.14,5.06c-0.42,0.3-2.27,2.18-2.47,2.18c-1.92-0.01-1.83-3.03-2.91-3.61c-3.82,3.21-4.37,4.6-1.67,4.17
			c1.27-0.03,2.54-0.01,3.8,0.08c2.54,0.12,5.08,0.46,7.62,0.48c8.13,0.06,16.11-2.58,20.44-9.86c2.65-4.45-0.82-9.48-5.61-9.78
			c-6.39-0.4-11.92,3.54-17.93,5.16c-6.59,1.78-13.36,2.19-20.15,2.3c-10.26,0.16-28.41-1.94-28.26,13.34
			c3.26-1.87,6.52-3.74,9.78-5.61c0.84,1.3,1.04,1.34,0.61,0.12c-0.05-0.65-0.11-1.29-0.16-1.94c-0.19-1.93-0.26-3.89-0.33-5.83
			c-0.15-3.89-0.16-7.78-0.02-11.67c0.27-7.87,1.18-15.65,2.66-23.37c-4.18,0-8.36,0-12.54,0c3.6,8.99,5.14,18.24,7.98,27.4
			c2.4,7.72,9.6,14.51,18.16,11.44c6.62-2.38,5.98-12.84-1.73-12.77c-5.85,0.05-11.61,0.64-17.38,1.59
			c-8.23,1.36-4.74,13.89,3.46,12.54c4.63-0.77,9.24-1.08,13.93-1.13c-0.58-4.26-1.15-8.51-1.73-12.77
			c-2.54,0.91-3.95-10.34-4.45-12.34c-1.48-5.94-3.43-11.74-5.71-17.42c-2.12-5.28-11.2-7.01-12.54,0
			c-1.99,10.45-3.17,21.05-3.22,31.69c-0.04,8.5-1.32,20.18,6.44,25.68c4.1,2.91,9.83-1,9.78-5.61c0-0.23,23.01-0.59,25.91-0.88
			c4.65-0.46,9.31-1.15,13.81-2.44c4.27-1.23,9.15-4.75,13.63-4.47c-1.87-3.26-3.74-6.52-5.61-9.78
			c-2.86,4.82-10.32,3.37-14.93,3.08c-5.27-0.34-12.7-1.06-15.87,4.31c-6.09,10.35,8.64,23.55,18.65,20.19
			c2.45-0.82,3.97-2.58,6.07-3.93c2.66-1.71,5.87-2.33,8.72-3.65c5.5-2.55,9.59-7.29,13.8-11.5c8.03-8.05,19.17-16.61,18.93-29.11
			c-4.26,0.58-8.51,1.15-12.77,1.73c0.86,5.41,1.74,11.25,0.58,16.68c-1.29,6.06-6.07,9.09-9.89,13.53
			c2.11-0.56,4.22-1.11,6.32-1.67c-3.02-1.08-6.08-1.58-9.28-1.74c1.53,3.7,3.06,7.4,4.6,11.1c4.7-4.02,9.41-8.05,14.11-12.07
			C129.18,165.2,119.95,156.05,113.62,161.46L113.62,161.46z"/>
	</g>
</g>
<g>
	<g>
		<path d="M25.85,94.66c-4.33,5.4-8.59,10.84-12.81,16.32c-3.67,4.77-6.87,10.55-2.43,16.05c3.89,4.82,10.8,4.31,14.24-0.71
			c3.94-5.75,6.66-12.81,9.85-19.01c3.82-7.43-7.39-14.01-11.23-6.56c-1.68,3.27-3.36,6.54-5.05,9.81c-0.84,1.63-1.68,3.27-2.52,4.9
			c-0.28,0.54-0.56,1.09-0.84,1.63c-1.28,1.94-1.15,2.16,0.39,0.64c1.67,0.22,3.34,0.44,5.01,0.66c0.57,2.73,1.29,3.16,2.14,1.31
			c0.37-0.48,0.74-0.96,1.11-1.44c1.32-1.73,2.66-3.44,3.99-5.15c2.43-3.1,4.87-6.19,7.34-9.26C40.22,97.38,31.08,88.13,25.85,94.66
			L25.85,94.66z"/>
	</g>
</g>
<g>
	<g>
		<path d="M127.12,108.56c1.88,1.26,3.58,2.83,4.92,4.66c0.64,0.88,1.21,1.86,1.7,2.83c0.23,0.41,0.43,0.84,0.6,1.28
			c0.34,1.11,0.43,1.31,0.26,0.61c0.3-1.09,0.59-2.19,0.89-3.28c-0.13,0.2-0.25,0.41-0.38,0.61c0.78-0.78,1.55-1.55,2.33-2.33
			c-0.21,0.11-0.43,0.21-0.64,0.32c1.09-0.3,2.19-0.59,3.28-0.89c-1.65,0.16-4.17-1.81-5.72-2.84c-2.24-1.5-4.13-3.38-5.9-5.39
			c-5.55-6.28-14.71,2.94-9.19,9.19c4.93,5.58,20.63,18.72,27.07,8.5c2.84-4.52,0.14-10.08-2.4-14.13
			c-2.64-4.22-6.13-7.6-10.25-10.36C126.71,92.67,120.2,103.93,127.12,108.56L127.12,108.56z"/>
	</g>
</g>
<g>
	<g>
		<path d="M59.42,56.33c10.94,0,10.96-17,0-17C48.48,39.33,48.46,56.33,59.42,56.33L59.42,56.33z"/>
	</g>
</g>
<g>
	<g>
		<path style="fill:#FFFFFF;" d="M59.42,55.88c12.23,0,12.25-19,0-19C47.19,36.88,47.17,55.88,59.42,55.88L59.42,55.88z"/>
	</g>
</g>
<g>
	<g>
		<path style="fill:#FFFFFF;" d="M94.93,55.15c12.23,0,12.25-19,0-19C82.7,36.15,82.68,55.15,94.93,55.15L94.93,55.15z"/>
	</g>
</g>
<g>
	<g>
		<path style="fill:#FFFFFF;" d="M78.99,82.41c10.94,0,10.96-17,0-17C68.05,65.41,68.03,82.41,78.99,82.41L78.99,82.41z"/>
	</g>
</g>
</svg>
