<?xml version="1.0" encoding="utf-8"?>
<!-- Generator: Adobe Illustrator 26.5.0, SVG Export Plug-In . SVG Version: 6.00 Build 0)  -->
<svg version="1.1" id="Layer_1" xmlns="http://www.w3.org/2000/svg" xmlns:xlink="http://www.w3.org/1999/xlink" x="0px" y="0px"
	 viewBox="0 0 203.62 311.59" style="enable-background:new 0 0 203.62 311.59;" xml:space="preserve">
<style type="text/css">
	.st0{stroke:#000000;stroke-miterlimit:10;}
</style>
<path class="st0" d="M97.83,10.14c-38.02,0-68.84,52.72-68.84,117.75s30.82,117.75,68.84,117.75s68.84-52.72,68.84-117.75
	S135.85,10.14,97.83,10.14z M72.46,90.05c-16.14,0-16.11-25.04,0-25.04C88.6,65.02,88.57,90.05,72.46,90.05z M97.1,121.63
	c-12.94,0-12.92-20.08,0-20.08C110.04,101.56,110.02,121.63,97.1,121.63z M117.39,89.33c-16.14,0-16.11-25.04,0-25.04
	C133.53,64.29,133.5,89.33,117.39,89.33z"/>
<g>
	<g>
		<path d="M28.39,129.71c0.29,48.32,1.64,96.63,4.05,144.89c0.48,9.61,15.48,9.66,15,0c-2.41-48.26-3.75-96.57-4.05-144.89
			C43.33,120.06,28.33,120.04,28.39,129.71L28.39,129.71z"/>
	</g>
</g>
<g>
	<g>
		<path d="M152.64,131.16c0,48.55,0,97.1,0,145.65c0,9.65,15,9.67,15,0c0-48.55,0-97.1,0-145.65
			C167.64,121.51,152.64,121.49,152.64,131.16L152.64,131.16z"/>
	</g>
</g>
<g>
	<g>
		<path d="M33.07,275.28c3.37,13.54,19.64,21.57,32.33,15.31c7.35-3.62,11.02-11.34,17.75-15.68c2.91-1.88,6.43-3.17,9.88-2.08
			c3.44,1.08,4.15,4.04,5.07,7.19c2.15,7.44,5.55,15.31,13.76,17.53c7.83,2.11,14.97-2.83,18.75-9.41
			c1.86-3.23,2.79-6.76,3.77-10.31c0.7-2.54,1.27-6.31,3.95-7.54c6.9-3.17,13.02,8.29,15.64,12.65c4.96,8.27,17.93,0.74,12.95-7.57
			c-4.15-6.93-8.85-14.11-16.31-17.82c-7.3-3.63-16.65-3.62-23,1.94c-6.19,5.42-6.19,12.77-9.25,19.78
			c-0.43,0.98-2.34,3.85-2.58,3.83c-2.07-0.12-3.24-7.26-3.65-8.58c-2.37-7.67-7.12-13.91-15.1-16.16
			c-7.87-2.22-16.14-0.11-22.74,4.46c-3.15,2.18-5.91,4.79-8.48,7.62c-2.31,2.54-4.8,6.43-8.4,7.18c-4.4,0.92-8.82-2.12-9.87-6.34
			C45.2,261.93,30.73,265.9,33.07,275.28L33.07,275.28z"/>
	</g>
</g>
<g>
	<g>
		<path d="M37.62,202.23c2.1,24.53,5.89,48.88,11.45,72.87c1.98,8.53,12.99,8.58,17.36,2.27c11.64-16.81,2.52-35.62,3.12-53.95
			c-5.9,1.6-11.8,3.2-17.7,4.79c6.58,9.91,10.98,20.52,13.37,32.18c1.9,9.31,16.1,8.8,18.32,0c0.49-1.96,0.68-3.82,1-5.82
			c0.03-0.28,0.05-0.55,0.08-0.83c0.98-2.74,0.11-2.43-2.63,0.92c-1.6-0.43-3.2-0.86-4.79-1.3c-1.8-0.88-0.93-1.82-0.47-0.37
			c0.41,1.3,1.06,2.72,1.74,3.9c1.54,2.65,3.79,4.91,6.5,6.37c3.51,1.89,7.79,1.85,9.93,4.4c2.35,2.79,4.03,7.01,6.01,10.34
			c2.7,4.56,5.97,8.28,10.32,11.31c6.53,4.54,13.59-1.74,14.29-8.2c1.38-12.61,0.03-25.4-3.79-37.49c-1.45-4.61-6.7-8.43-11.69-6.64
			c-6.24,2.25-12.17,2.7-18.59,0.95c0,6.11,0,12.21,0,18.32c12.37-1.85,24.75-3.7,37.12-5.55c-3.9-3.9-7.79-7.79-11.69-11.69
			c-1.26,5.46-2.51,10.91-3.77,16.37c-1.7,7.36,4.5,13.13,11.69,11.69c7.48-1.5,15.59-2.3,22.85-4.61
			c9.15-2.91,9.67-10.64,8.96-18.85c-1.43-16.58-0.98-33.25,1.16-49.75c1.36-10.52-17.02-13.1-18.66-2.53
			c-2.74,17.64-6.56,35.06-11.46,52.22c5.29-1.4,10.59-2.79,15.88-4.19c-3.23-3.48-5.73-7.29-7.87-11.52
			c-5.51-10.92-21.91-1.31-16.41,9.59c2.85,5.64,6.54,10.74,10.84,15.37c4.95,5.33,13.98,2.47,15.88-4.19
			c4.9-17.16,8.72-34.58,11.46-52.22c-6.22-0.84-12.44-1.68-18.66-2.53c-1.25,9.7-1.96,19.46-2,29.24
			c-0.02,4.56,0.1,9.13,0.36,13.68c0.26,4.66,1.37,9.63,0.94,14.27c0.43-1.6,0.86-3.2,1.3-4.79c0.03-0.03,0.07-0.06,0.1-0.09
			c1.4-0.81,2.79-1.63,4.19-2.44c-7.24,2.9-16.26,3.51-23.91,5.04c3.9,3.9,7.79,7.79,11.69,11.69c1.26-5.46,2.51-10.91,3.77-16.37
			c1.76-7.63-4.54-12.75-11.69-11.69c-12.37,1.85-24.75,3.7-37.12,5.55c-9.65,1.44-8.42,16.03,0,18.32
			c9.48,2.58,19.43,2.39,28.7-0.95c-3.9-2.21-7.79-4.42-11.69-6.64c3.36,10.67,4.33,21.33,3.11,32.44c4.76-2.73,9.53-5.47,14.29-8.2
			c-3.58-2.49-5.7-8.9-8.24-12.96c-4.2-6.71-9.48-10.85-17.11-13c-0.66-0.16-1.31-0.35-1.95-0.57c1.75,1.85,2.11,1.98,1.07,0.39
			c-0.25-1.13-1.28-3.17-1.97-4.34c-2.37-4.03-6.57-6.74-11.29-6.86c-5.03-0.12-9.54,2.52-12.32,6.67
			c-2.76,4.11-2.62,8.49-3.78,13.09c6.11,0,12.21,0,18.32,0c-2.68-13.08-7.89-25.6-15.28-36.72c-5.19-7.81-17.39-4.87-17.7,4.79
			c-0.27,8.48,1.71,16.64,2.71,25c0.82,6.84,0.8,13.53-3.24,19.36c5.79,0.76,11.58,1.51,17.36,2.27
			c-5.18-22.34-8.81-44.96-10.77-67.82c-0.44-5.11-4.05-9.5-9.5-9.5C42.33,192.73,37.18,197.09,37.62,202.23L37.62,202.23z"/>
	</g>
</g>
<g>
	<g>
		<path d="M50.72,277.62c0.24,0,0.48,0,0.72,0c1.31,0.05,2.53-0.22,3.66-0.82c1.18-0.38,2.2-1.04,3.06-1.96
			c0.93-0.86,1.58-1.88,1.96-3.06c0.59-1.13,0.87-2.35,0.82-3.66c-0.11-0.84-0.23-1.68-0.34-2.53c-0.45-1.61-1.27-3.01-2.44-4.19
			c-0.64-0.5-1.28-0.99-1.92-1.49c-1.48-0.86-3.08-1.29-4.79-1.3c-0.24,0-0.48,0-0.72,0c-1.31-0.05-2.53,0.22-3.66,0.82
			c-1.18,0.38-2.2,1.04-3.06,1.96c-0.93,0.86-1.58,1.88-1.96,3.06c-0.59,1.13-0.87,2.35-0.82,3.66c0.11,0.84,0.23,1.68,0.34,2.53
			c0.45,1.61,1.27,3.01,2.44,4.19c0.64,0.5,1.28,0.99,1.92,1.49C47.41,277.18,49.01,277.61,50.72,277.62L50.72,277.62z"/>
	</g>
</g>
<g>
	<g>
		<path d="M159.22,139.49c2.77-4.54,7.84-6.3,12.89-7.07c1.89-0.29,12.27-2.04,13.37-0.36c1.96,3-6.53,5.06-7.89,5.29
			c-5.97,1.01-12.16,1.27-18.19,1.87c-8.25,0.82-8.33,13.83,0,13c9.61-0.96,21.43-0.41,30.1-5.21c7.35-4.07,11.66-13.9,7.12-21.6
			c-4.93-8.36-16.39-6.99-24.57-6c-9.72,1.17-18.77,4.86-24.06,13.52C143.63,140.09,154.87,146.63,159.22,139.49L159.22,139.49z"/>
	</g>
</g>
<g>
	<g>
		<path d="M162.19,145.8c5.82-3.52,12.14-5.78,18.94-6.38c8.27-0.73,8.35-13.74,0-13c-9.12,0.81-17.65,3.4-25.51,8.15
			C148.47,138.9,155,150.15,162.19,145.8L162.19,145.8z"/>
	</g>
</g>
<g>
	<g>
		<path d="M37.67,121.65c-8.39,0.32-17.59,0.95-24.84,5.68c-7.5,4.9-13.02,14.96-10.37,24.06c2.42,8.32,13.99,9.03,20.99,7.54
			c8.05-1.72,15.39-7.31,18.68-14.91c3.29-7.6-7.9-14.23-11.23-6.56c-1.59,3.68-4.06,6.51-7.84,8.07c-1.81,0.75-3.82,1.14-5.78,1.06
			c-0.93-0.04-1.76-0.16-2.67-0.39c-0.77-0.31-0.82-0.22-0.15,0.26c0.65,0.82,0.83,0.48,0.55-1.02c1.74-4.49,3.59-7.15,8.32-8.8
			c4.59-1.6,9.51-1.8,14.33-1.98C46.01,134.33,46.05,121.33,37.67,121.65L37.67,121.65z"/>
	</g>
</g>
<g>
	<g>
		<path d="M26.5,131.44c-4.07,2.93-7.85,6.16-11.2,9.91c-2.26,2.54-2.69,6.72,0,9.19c2.47,2.27,6.78,2.71,9.19,0
			c1.4-1.57,2.87-3.08,4.42-4.5c0.69-0.63,1.4-1.24,2.12-1.84c0.14-0.12,1.31-1.04,0.99-0.8c-0.24,0.18,1-0.72,1.03-0.74
			c2.75-1.98,4.36-5.75,2.33-8.89C33.63,131.04,29.45,129.32,26.5,131.44L26.5,131.44z"/>
	</g>
</g>
</svg>
