<?xml version="1.0" encoding="utf-8"?>
<!-- Generator: Adobe Illustrator 26.1.0, SVG Export Plug-In . SVG Version: 6.00 Build 0)  -->
<svg version="1.1" xmlns="http://www.w3.org/2000/svg" xmlns:xlink="http://www.w3.org/1999/xlink" x="0px" y="0px"
	 viewBox="0 0 1200 800" style="enable-background:new 0 0 1200 800;" xml:space="preserve">
<g id="Layer_1">
	<ellipse style="fill:#FFFEF4;stroke:#999999;stroke-miterlimit:10;" cx="1041.5" cy="136.9583" rx="91.9872" ry="87.3662"/>
</g>
<g id="Layer_3">
	<path style="opacity:0.5;fill:#C3C4C3;stroke:#999999;stroke-miterlimit:10;" d="M1111.5087,80.4952
		c2.8418,5.5216,5.1376,11.3621,6.8683,17.5327l3.2598,24.2595c0.4739,12.5641-2.1459,24.2838-7.8595,35.1591
		c-3.6803,11.3134-9.9698,21.103-18.8688,29.3687c-8.2657,8.899-18.0553,15.1886-29.3688,18.8688
		c-10.8752,5.7136-22.595,8.3334-35.1591,7.8595c-16.4724-0.0512-31.8253-4.2042-46.0586-12.4591
		c-6.1564-4.7564-12.3127-9.5127-18.4691-14.2691c-0.0581-0.0585-0.113-0.1189-0.171-0.1775
		c16.5864,22.8839,44.3551,37.8899,75.8181,37.8899c50.8031,0,91.9872-39.1152,91.9872-87.3662
		C1133.4872,115.5369,1125.2111,95.7511,1111.5087,80.4952z"/>
</g>
<g id="Layer_2">
	<circle style="fill:#E9E9EA;stroke:#999999;stroke-miterlimit:10;" cx="1006.9146" cy="81.8671" r="7.437"/>
	<circle style="fill:#E9E9EA;stroke:#999999;stroke-miterlimit:10;" cx="1079.6957" cy="123.4563" r="3.3936"/>
	<circle style="fill:#E9E9EA;stroke:#999999;stroke-miterlimit:10;" cx="1009.1709" cy="185.5693" r="2.2564"/>
	<circle style="fill:#E9E9EA;stroke:#999999;stroke-miterlimit:10;" cx="1090.8872" cy="77.4627" r="3.0325"/>
	<circle style="fill:#E9E9EA;stroke:#999999;stroke-miterlimit:10;" cx="962.8705" cy="125.0447" r="6.7149"/>
	<ellipse style="fill:#E9E9EA;stroke:#999999;stroke-miterlimit:10;" cx="1098.9017" cy="188.9448" rx="8.0146" ry="7.0759"/>
	<circle style="fill:#E9E9EA;stroke:#999999;stroke-miterlimit:10;" cx="1030.6694" cy="217.6817" r="5.4875"/>
	<circle style="fill:#E9E9EA;stroke:#999999;stroke-miterlimit:10;" cx="1059.9841" cy="156.8864" r="8.52"/>
	<circle style="fill:#E9E9EA;stroke:#999999;stroke-miterlimit:10;" cx="1015.1458" cy="61.2169" r="2.0939"/>
	<circle style="fill:#FFFFFF;stroke:#999999;stroke-miterlimit:10;" cx="972.6583" cy="138.4255" r="1.7733"/>
</g>
</svg>
