<?xml version="1.0" encoding="utf-8"?>
<!-- Generator: Adobe Illustrator 26.5.1, SVG Export Plug-In . SVG Version: 6.00 Build 0)  -->
<svg version="1.1" id="Layer_1" xmlns="http://www.w3.org/2000/svg" xmlns:xlink="http://www.w3.org/1999/xlink" x="0px" y="0px"
	 viewBox="0 0 91.7949 142.5641" style="enable-background:new 0 0 91.7949 142.5641;" xml:space="preserve">
<ellipse style="stroke:#000000;stroke-miterlimit:10;" cx="48.4615" cy="59.2308" rx="39.7436" ry="52.5641"/>
<g>
	<g>
		<path d="M8.3205,56.9231c0,24.4444,0,48.8889,0,73.3333c0,5.7911,9,5.8007,9,0c0-24.4444,0-48.8889,0-73.3333
			C17.3205,51.132,8.3205,51.1224,8.3205,56.9231L8.3205,56.9231z"/>
	</g>
</g>
<g>
	<g>
		<path d="M79.6026,56.4103c0,25.1282,0,50.2564,0,75.3846c0,5.7911,9,5.8007,9,0c0-25.1282,0-50.2564,0-75.3846
			C88.6026,50.6192,79.6026,50.6096,79.6026,56.4103L79.6026,56.4103z"/>
	</g>
</g>
<g>
	<g>
		<path d="M84.1026,126.7821c-24.1026,0-48.2051,0-72.3077,0c-5.7911,0-5.8007,9,0,9c24.1026,0,48.2051,0,72.3077,0
			C89.8936,135.7821,89.9032,126.7821,84.1026,126.7821L84.1026,126.7821z"/>
	</g>
</g>
<g>
	<g>
		<path d="M15.5553,94.8718c0.0096,9.6671,0.0193,19.3342,0.0289,29.0013c0.0027,2.738,2.151,6.3334,5.1391,6.75
			c19.4342,2.7095,38.7996-3.3687,58.1188-0.6102c5.1435,0.7344,10.0746-2.9628,8.6108-8.6108
			c-2.0682-7.9802-3.2196-15.9675-3.4595-24.2074c-0.222-7.6236-11.9822-9.8372-13.75-1.8609
			c-0.9289,4.1914-2.0499,8.3194-3.498,12.3638c-0.1151,0.3213-1.9056,4.0254-1.7502,4.4332c3.1995-1.4567,3.3925-2.049,0.579-1.777
			c-0.6392-0.0247-1.2784-0.0494-1.9176-0.0742c-8.629-0.3338-17.2608-0.6251-25.888-1.0014
			c-0.8393-0.0277-1.6781-0.0679-2.5162-0.1204c-4.3725,3.9723-4.9362,6.2969-1.6911,6.9738
			c1.0834,0.7504,2.7825,1.1547,4.012,1.5253c3.2339,0.9746,6.7151,1.4487,10.0852,1.4597
			c7.0815,0.0231,14.0574-2.0919,19.9763-5.9506c7.5191-4.9019,0.5111-17.0284-7.0661-12.0886
			c-4.1522,2.7069-8.6691,4.2188-13.6693,4.0368c-4.9509-0.1803-9.0829-3.1881-13.926-3.4427
			c-13.0151-0.6842-14.0069,16.9004-2.6054,20.6415c5.5,1.8047,12.2239,1.1519,17.9476,1.3733
			c6.0707,0.2348,12.1443,0.5491,18.2175,0.7047c5.4882,0.1406,9.0467-2.0175,11.3582-7.0017
			c2.6936-5.8081,4.471-12.1017,5.8521-18.3337c-4.5833-0.6203-9.1666-1.2406-13.75-1.8609
			c0.2749,9.4394,1.5904,18.7874,3.9596,27.9291c2.8703-2.8703,5.7406-5.7406,8.6108-8.6108
			c-19.4417-2.776-38.786,3.3056-58.1188,0.6102c1.713,2.25,3.4261,4.5,5.1391,6.7499c-0.0096-9.6671-0.0193-19.3342-0.0289-29.0013
			C29.5463,85.8639,15.5463,85.8482,15.5553,94.8718L15.5553,94.8718z"/>
	</g>
</g>
</svg>
