<?xml version="1.0" encoding="utf-8"?>
<!-- Generator: Adobe Illustrator 26.5.1, SVG Export Plug-In . SVG Version: 6.00 Build 0)  -->
<svg version="1.1" id="Layer_1" xmlns="http://www.w3.org/2000/svg" xmlns:xlink="http://www.w3.org/1999/xlink" x="0px" y="0px"
	 viewBox="0 0 100.4274 160.2848" style="enable-background:new 0 0 100.4274 160.2848;" xml:space="preserve">
<ellipse style="fill:#B1B3B6;" cx="47.1579" cy="65.7243" rx="40" ry="59.2308"/>
<g>
	<g>
		<path style="fill:#B1B3B6;" d="M7.3117,58.2884c0,27.0085,0,54.0171,0,81.0257c0,7.7214,12,7.7342,12,0
			c0-27.0086,0-54.0171,0-81.0257C19.3117,50.567,7.3117,50.5542,7.3117,58.2884L7.3117,58.2884z"/>
	</g>
</g>
<g>
	<g>
		<path style="fill:#B1B3B6;" d="M75.0041,59.3141c0,26.4957,0,52.9915,0,79.4872c0,7.7214,12,7.7342,12,0
			c0-26.4957,0-52.9915,0-79.4872C87.0041,51.5926,75.0041,51.5798,75.0041,59.3141L75.0041,59.3141z"/>
	</g>
</g>
<g>
	<g>
		<path style="fill:#B1B3B6;" d="M13.3117,144.8012c22.5641,0,45.1282,0,67.6923,0c7.7214,0,7.7342-12,0-12
			c-22.5641,0-45.1282,0-67.6923,0C5.5903,132.8012,5.5775,144.8012,13.3117,144.8012L13.3117,144.8012z"/>
	</g>
</g>
<g>
	<g>
		<path style="fill:#B1B3B6;" d="M78.944,113.6953c0.221-0.9829,0.442-1.9658,0.663-2.9487
			c-3.9286-0.5317-7.8571-1.0634-11.7857-1.595c0.0014,3.6422,0.0027,7.2844,0.0041,10.9266
			c0.0007,1.8211,0.0014,3.6422,0.002,5.4633c0.0002,0.607,0.0005,1.2141,0.0007,1.8211c-0.4167,3.4225,0.8005,2.747,3.6517-2.0266
			c-0.7306-1.0155-9.2214-0.4701-10.8442-0.5562c-3.943-0.2092-7.8855-0.4261-11.8277-0.6506
			c-3.6136-0.2058-7.2269-0.4178-10.8397-0.6366c-3.7632-0.2279-8.0913-1.1842-11.8225-0.7387
			c-2.3515-0.5776-2.601-0.2287-0.7485,1.0465c1.2236,1.7638,1.657,1.5542,1.3002-0.629c0.5317-1.4713,0.169-3.8802,0.2356-5.4091
			c0.157-3.6061,0.3141-7.2122,0.4711-10.8182c-3.7269,1.0094-7.4539,2.0189-11.1808,3.0283
			c2.2348,4.806,4.2404,13.0047,9.0256,15.9141c5.1138,3.1092,13.9486,0.9202,19.6024,0.6408
			c8.8158-0.4357,27.189,2.0007,27.8427-10.9171c0.3381-6.6812-10.4285-8.2636-11.7857-1.595
			c-0.5097,2.5047-1.0195,5.0093-1.5292,7.514c-1.5502,7.617,8.9231,10.4304,11.5714,3.1901
			c5.1989-14.2141,18.7791-25.4977,13.3193-42.0922c-1.2155-3.6945-5.3111-5.5617-8.814-3.5858
			c-8.8147,4.9722-15.2384,13.4895-24.3365,17.9174c-4.8306,2.351-9.4668,2.0492-14.5808,0.8833
			c-3.9237-0.8945-8.5989-1.619-10.3768-5.6525c-2.5075-5.6887-11.1518-2.5058-11.1808,3.0283
			c-0.0016,0.3122-0.0033,0.6244-0.0049,0.9366c0.5858-1.4142,1.1716-2.8284,1.7574-4.2426
			c4.5246,1.6281,6.1032,1.0022,4.7356-1.8777c-0.3114-1.2124-0.5937-2.4316-0.8468-3.6575
			c-0.5086-2.5876-0.5677-5.027-0.3489-7.6464c0.643-7.6955-11.3606-7.6529-12,0c-0.5349,6.4021,0.3117,17.3405,5.2253,22.0996
			c5.085,4.925,13.4454,1.4303,13.4823-5.6119c-3.7269,1.0094-7.4539,2.0189-11.1808,3.0283
			c4.6319,10.5082,21.9339,13.8688,32.0711,12.2477c13.9184-2.2258,22.0355-14.5442,33.6413-21.0908
			c-2.938-1.1953-5.876-2.3905-8.814-3.5858c2.189,6.6533-0.7867,12.8269-4.1838,18.5196
			c-3.3703,5.6478-6.8619,10.9764-9.1355,17.1924c3.8571,1.0634,7.7142,2.1267,11.5714,3.1901
			c0.5097-2.5047,1.0195-5.0093,1.5292-7.514c-3.9286-0.5317-7.8571-1.0634-11.7857-1.595
			c0.1348-2.6631,1.7446-2.0958-1.2279-1.8052c-1.935,0.1891-3.9037,0.1929-5.8459,0.2889
			c-4.222,0.2086-8.4441,0.4173-12.6661,0.626c-1.9486,0.0963-3.8973,0.1926-5.8459,0.2889
			c-0.9502,0.047-4.9632-0.7329-3.0531,0.6707c-1.0375-0.7623-1.7472-3.7574-2.3443-5.0416
			c-1.0419-2.2407-2.0838-4.4814-3.1258-6.7221c-2.6719-5.7459-10.9427-2.4403-11.1808,3.0283
			c-0.2094,4.8081-0.4188,9.6162-0.6282,14.4243c-0.1892,4.3438-0.4765,8.7498,3.4987,11.5034
			c3.5113,2.4323,8.7169,1.939,12.7968,2.1953c5.5827,0.3506,11.1664,0.6861,16.751,1.006
			c5.2561,0.3011,10.5129,0.5885,15.7705,0.8624c3.9289,0.2046,9.3069,1.4656,12.8302-0.8797
			c3.8999-2.596,3.4054-7.2959,3.4039-11.4248c-0.0019-5.1598-0.0038-10.3196-0.0058-15.4794
			c-0.0025-6.6249-10.2708-8.3319-11.7857-1.595c-0.221,0.9829-0.442,1.9658-0.663,2.9487
			C65.6814,118.0268,77.2478,121.2386,78.944,113.6953L78.944,113.6953z"/>
	</g>
</g>
<g>
	<g>
		<path style="fill:#B1B3B6;" d="M50.2348,66.3397c7.7214,0,7.7342-12,0-12C42.5134,54.3397,42.5006,66.3397,50.2348,66.3397
			L50.2348,66.3397z"/>
	</g>
</g>
<g>
	<g>
		<path style="fill:#8A181A;" d="M31.6136,76.9092c9.6338,9.6827,19.2677,19.3654,28.9015,29.0481
			c2.7272,2.741,6.9704-1.501,4.2426-4.2426c-9.6338-9.6827-19.2677-19.3654-28.9015-29.0481
			C33.129,69.9255,28.8858,74.1676,31.6136,76.9092L31.6136,76.9092z"/>
	</g>
</g>
<g>
	<g>
		<path style="fill:#8A181A;" d="M64.5238,72.5773c-10.9402,10.9402-21.8803,21.8803-32.8205,32.8205
			c-2.7338,2.7338,1.5076,6.9777,4.2426,4.2426C46.8861,98.7003,57.8262,87.7602,68.7664,76.82
			C71.5002,74.0862,67.2588,69.8423,64.5238,72.5773L64.5238,72.5773z"/>
	</g>
</g>
<g>
	<g>
		<path style="fill:#8A181A;" d="M36.86,106.7307c-0.4675-1.8584-1.2079-3.607-2.8391-4.727
			c-1.6858-1.1575-4.0379-1.176-5.6633,0.0797c-1.7163,1.326-2.0601,3.7055-0.9727,5.554c0.9822,1.6697,3.1777,2.8106,5.0841,2.0794
			c1.4605-0.5603,2.6281-2.0442,2.0953-3.6904c-0.4606-1.4232-2.1216-2.6971-3.6904-2.0953
			c-0.3137,0.1063-0.2102,0.1052,0.3106-0.0034c0.319-0.0088,0.6184,0.0628,0.8982,0.2149c0.3701,0.313,0.4428,0.3593,0.2181,0.139
			c0.2179,0.2,0.358,0.4449,0.4203,0.7345c-0.0861-0.315-0.0804-0.2119,0.0173,0.3093c-0.0067,0.5219-0.2027,0.9786-0.5882,1.3698
			c-0.1901,0.1793-0.4106,0.306-0.6615,0.3801c-0.4454,0.0352-0.5493,0.0524-0.3118,0.0514
			c0.2326,0.0065,0.1334-0.0072-0.2975-0.0411c0.3116,0.1001,0.2637,0.0762-0.1437-0.0719
			c0.2747,0.1758,0.2351,0.1428-0.1186-0.0991c-0.1934-0.2924-0.1972-0.2972-0.0112-0.0143
			c0.0864,0.1433,0.1639,0.2912,0.2328,0.4436c-0.1407-0.327-0.1519-0.3283-0.0334-0.0039
			c0.0753,0.3302,0.1863,0.6565,0.2691,0.9857c0.383,1.5224,2.1724,2.5865,3.6904,2.0953
			C36.3398,109.9113,37.2704,108.3621,36.86,106.7307L36.86,106.7307z"/>
	</g>
</g>
<g>
	<g>
		<path style="fill:#8A181A;" d="M36.0765,109.2689c-0.7899,0.3689-0.5046,0.1978-0.2276,0.1473
			c-0.2658,0.0357-0.5317,0.0714-0.7975,0.1072c0.1757-0.0177,0.3397-0.0152,0.5149,0.0067
			c-0.2658-0.0357-0.5317-0.0714-0.7975-0.1072c0.4085,0.0814,0.1946,0.1904-0.2253-0.148c0.095,0.0765,0.4623,0.3098,0.0164-0.0264
			c-0.2127-0.1776-0.2665-0.2139-0.1613-0.109c0.161,0.1708,0.0689,0.0516-0.2764-0.3575
			c-0.0644-0.1618-0.1289-0.3236-0.1933-0.4853c0.0302,0.0849,0.0505,0.1722,0.0609,0.2617
			c-0.0357-0.2658-0.0714-0.5317-0.1072-0.7975c0.0102,0.0888,0.0112,0.1777,0.0031,0.2667
			c0.0357-0.2658,0.0714-0.5317,0.1072-0.7975c-0.0206,0.148-0.1581,0.5088,0.0537,0.0311c0.118-0.2501,0.1416-0.3077,0.0709-0.1727
			c-0.1142,0.2034-0.0208,0.094,0.2801-0.328c-0.2839,0.2728,0.2797-0.1815,0.3104-0.2019
			c-0.408,0.2706,0.7089-0.2137,0.2346-0.1051c0.2658-0.0357,0.5317-0.0714,0.7975-0.1072
			c-0.0882,0.0149-0.1768,0.0189-0.266,0.0122c0.2658,0.0357,0.5317,0.0714,0.7975,0.1072c-0.368-0.0502-0.2725-0.1974,0.281,0.1647
			c0.1406,0.1117,0.2812,0.2234,0.4218,0.3351c-0.1429-0.1458-0.1167-0.1015,0.0788,0.1328
			c0.1665,0.2334,0.2102,0.2877,0.1314,0.163c-0.1227-0.2058-0.0647-0.0543,0.1742,0.4545
			c-0.0167-0.1125-0.0617-0.2225-0.0784-0.3374c0.0357,0.2658,0.0714,0.5317,0.1072,0.7975
			c-0.0077-0.0755-0.0085-0.1511-0.0021-0.2267c-0.0357,0.2658-0.0714,0.5317-0.1072,0.7975
			c0.0063-0.0746,0.0202-0.1478,0.0418-0.2195c-0.0979,0.3606-0.279,0.6726-0.5432,0.9361
			c0.5267-0.6096,0.8787-1.2935,0.8787-2.1213c0-0.7358-0.3268-1.6147-0.8787-2.1213c-1.1257-1.0333-3.1471-1.2682-4.2426,0
			c-0.7239,0.838-1.2054,1.8187-1.1466,2.9551c0.0562,1.0867,0.4784,2.1774,1.261,2.9521c1.6343,1.6177,4.3513,1.6214,5.9458-0.0758
			c1.6088-1.7126,1.7301-4.3667,0.0905-6.1098c-0.5924-0.6297-1.4718-1.1373-2.3212-1.3052
			c-1.193-0.2358-2.219-0.0613-3.3156,0.4508c-0.645,0.3012-1.1967,1.132-1.3787,1.7929c-0.1978,0.7181-0.1085,1.6743,0.3024,2.3117
			C32.9186,109.6611,34.551,109.9813,36.0765,109.2689L36.0765,109.2689z"/>
	</g>
</g>
<g>
	<g>
		<path style="fill:#8A181A;" d="M36.4386,73.7026c-0.9144-2.1344-3.8111-3.0207-5.8954-2.298
			c-2.8141,0.9758-3.9402,4.1641-2.5478,6.7615c1.2752,2.3788,4.2962,3.3272,6.6412,1.9253
			c2.3294-1.3926,3.0709-4.4413,1.8203-6.7884c-0.739-1.3869-2.7798-1.9304-4.1046-1.0762
			c-1.4097,0.9089-1.8667,2.621-1.0763,4.1046c-0.1791-0.49-0.2211-0.5882-0.1262-0.2946c-0.0506-0.5512-0.0672-0.6676-0.05-0.3492
			c-0.029,0.5894,0.1226-0.7801,0.0175-0.1956c-0.102,0.2932-0.0602,0.1966,0.1254-0.2898
			c-0.1612,0.2615-0.091,0.1865,0.2105-0.2251c-0.0341,0.0379-0.0683,0.0758-0.1024,0.1137c-0.225,0.209-0.1392,0.149,0.2573-0.1801
			c-0.2698,0.1512-0.1659,0.1152,0.3115-0.1081c-0.3069,0.0778-0.1908,0.0682,0.3483-0.0288
			c-0.0514-0.0011-0.1029-0.0023-0.1543-0.0034c0.3387-0.0141,0.6503,0.0704,0.9347,0.2534
			c-0.0909-0.0436-0.1776-0.0943-0.2601-0.1522c0.3764,0.3099,0.4826,0.3837,0.3185,0.2214
			c-0.1582-0.1665-0.0831-0.0629,0.2252,0.3107c-0.058-0.0851-0.1099-0.1737-0.1558-0.2659
			c0.1876,0.486,0.2351,0.5815,0.1424,0.2865c-0.0106-0.0495-0.0212-0.099-0.0318-0.1485c0.0554,0.5491,0.0831,0.6653,0.0833,0.3484
			c0.0126,0.3396-0.0728,0.652-0.2563,0.937c0.29-0.49-0.4979,0.52-0.1222,0.1489c-0.4353,0.311-0.5231,0.3896-0.2635,0.2358
			c-0.5087,0.1948-0.6164,0.2472-0.3233,0.1572c0.5368-0.1489-0.7899,0.0972-0.2334,0.0474c0.3153,0.0217,0.191,0.0037-0.3729-0.054
			c0.0924,0.0209,0.183,0.0479,0.2717,0.081c-0.1538-0.0618-0.3077-0.1237-0.4615-0.1855c0.2566,0.1604,0.1666,0.0845-0.2698-0.2277
			c0.3233,0.2971-0.3654-0.6968-0.0812-0.0335c0.2749,0.6416,1.1542,1.2028,1.7929,1.3787
			c0.7181,0.1977,1.6743,0.1085,2.3117-0.3024c0.6406-0.413,1.2044-1.0279,1.3787-1.7929
			C36.9323,75.1742,36.7744,74.4866,36.4386,73.7026L36.4386,73.7026z"/>
	</g>
</g>
<g>
	<g>
		<path style="fill:#8A181A;" d="M37.8926,73.8953c0.0413,0.3838,0.0525,0.3996,0.0335,0.0473
			c0.0206-0.352,0.0123-0.3366-0.0251,0.0462c0.0353-0.1637,0.0821-0.324,0.1406-0.4809c-0.1391,0.335-0.127,0.3537,0.0363,0.0561
			c-0.081,0.1748-0.2103,0.2995-0.3879,0.3741c0.2885-0.1647,0.247-0.1608-0.1243,0.0115c0.3317-0.0805,0.2834-0.0841-0.145-0.0109
			c0.2815,0.0096,0.2953,0.0002,0.0415-0.0281c-0.2509-0.0438-0.2403-0.0344,0.0318,0.0281
			c-0.3754-0.1789-0.4195-0.1878-0.1324-0.0267c-0.4129-0.2914-0.704-0.6395-0.6968-1.1815
			c0.0886-0.4539,0.0929-0.5165,0.0131-0.1879c0.1831-0.3909,0.1936-0.4446,0.0317-0.1612
			c0.2672-0.4405,0.7075-0.7539,1.2429-0.7607c-1.5685,0.0198-3.0732,1.3657-3,3c0.072,1.6084,1.3186,3.0212,3,3
			c2.201-0.0278,4.0241-1.5681,4.5636-3.6835c0.5953-2.3343-0.6965-4.6448-2.8641-5.5595c-1.9971-0.8428-4.3118-0.4046-5.885,1.0847
			c-1.666,1.5772-2.0265,3.866-1.6601,6.0279c0.2629,1.5515,2.2566,2.5593,3.6904,2.0953
			C37.4719,77.0438,38.1743,75.5578,37.8926,73.8953L37.8926,73.8953z"/>
	</g>
</g>
<g>
	<g>
		<path style="fill:#8A181A;" d="M69.1396,75.53c0.4754-1.853,0.7458-3.9576-0.3235-5.6722
			c-1.0598-1.6994-3.2924-2.8373-5.2911-2.2293c-2.1994,0.6691-3.5226,2.9341-2.9158,5.1839
			c0.4656,1.7263,1.8937,3.1059,3.3898,3.9881c1.3528,0.7977,3.3498,0.3523,4.1046-1.0763c0.7622-1.4426,0.3681-3.253-1.0762-4.1046
			c-0.125-0.0737-0.2467-0.1506-0.3691-0.2284c-0.302-0.1919-0.0717-0.106,0.066,0.0524c-0.0968-0.1114-0.2242-0.2153-0.3324-0.3164
			c-0.3678-0.3437,0.092,0.043,0.0474,0.0932c0.0235-0.0264-0.2437-0.3195-0.2099-0.358c0.0155-0.0176,0.2224,0.7205,0.2226,0.7944
			c0.0012,0.4437-0.2478,0.966-0.5345,1.2912c-0.2633,0.2987-1.5561,0.5407-1.2513,0.531c0.1619,0.0038,0.1176-0.0032-0.1329-0.021
			c-0.1468,0.009-0.2821-0.0255-0.406-0.1036c-0.4072-0.0837,0.126,0.1472-0.173-0.106c-0.3805-0.3221,0.1113,0.3075-0.1437-0.1326
			c-0.0367-0.0633-0.3214-0.6473-0.2213-0.3275c0.1049,0.3352,0.062-0.3731-0.0147-0.0262
			c-0.0116,0.0525-0.0427,0.6236,0.0019,0.2606c0.0438-0.3565-0.0495,0.199-0.0634,0.262c-0.0481,0.218-0.1037,0.4341-0.1592,0.6503
			c-0.3895,1.518,0.4966,3.3262,2.0953,3.6904C67.0116,77.9812,68.7224,77.1563,69.1396,75.53L69.1396,75.53z"/>
	</g>
</g>
<g>
	<g>
		<path style="fill:#8A181A;" d="M68.2287,77.3819c0.2359-0.181,0.633-0.2839,0.0415-0.1327c0.2902-0.0742,0.7-0.0434,0.0486-0.0497
			c0.5453,0.0052-0.3359-0.1911-0.0344-0.0379c0.0687,0.0349,0.7889,0.2894,0.3802,0.0909
			c-0.4054-0.1969,0.1494,0.1265,0.2297,0.1666c-0.5044-0.2519-0.1506-0.0968,0.0542,0.1127
			c-0.069-0.0868-0.138-0.1737-0.2071-0.2605c0.1593,0.2902,0.1535,0.2444-0.0172-0.1375
			c-0.0213,0.6077,0.0135-0.6294,0.0307,0.0656c0.7342-0.9643,1.4683-1.9286,2.2025-2.8928
			c-0.365,0.0865-0.4136,0.0949-0.1457,0.0254c-0.3455-0.0176-0.4237-0.0163-0.2346,0.0039
			c0.1882,0.0267,0.1134,0.0034-0.2245-0.0697c0.2172,0.1225,0.1653,0.0958-0.1557-0.0801
			c-1.4258-0.7687-3.2672-0.3555-4.1046,1.0763c-0.7983,1.3648-0.3547,3.3331,1.0763,4.1046
			c1.7041,0.9188,3.4987,1.1486,5.3838,0.7254c1.2504-0.2807,2.2339-1.6268,2.2025-2.8928
			c-0.1098-4.4232-5.7566-7.9133-9.5546-4.9985c-1.2832,0.9848-1.9671,2.5816-1.0763,4.1046
			C64.8629,77.5687,66.9353,78.3745,68.2287,77.3819L68.2287,77.3819z"/>
	</g>
</g>
<g>
	<g>
		<path style="fill:#8A181A;" d="M63.0397,105.9819c0.6414-0.0178,1.2864-0.1093,1.9074-0.273
			c0.2757-0.0727,0.5452-0.167,0.8201-0.2424c0.0915-0.0245,0.183-0.049,0.2745-0.0734c0.3159-0.0675,0.3683-0.0797,0.1571-0.0366
			c-0.2525-0.0778-0.5459-0.0589-0.8253-0.1589c-0.0868-0.072-0.1736-0.1441-0.2604-0.2161
			c0.2437,0.2732,0.2135,0.187-0.0907-0.2587c-0.8232-1.1253-0.2173-2.1624,1.8177-3.1112
			c0.1041,0.0073,0.2082,0.0146,0.3123,0.0219c0.0757,0.0257,0.1515,0.0513,0.2272,0.077
			c-0.2939-0.1953-0.3122-0.1982-0.0551-0.0087c-1.2107-0.9946-3.0736-1.2735-4.2426,0c-1.0109,1.1012-1.2949,3.1789,0,4.2426
			c1.4335,1.1776,3.1117,2.0572,5.0005,1.4488c1.9775-0.6369,3.054-2.7901,2.4524-4.7617
			c-0.4755-1.5582-1.8865-2.7593-3.4497-3.1303c-0.8781-0.2084-1.7706-0.0955-2.6384,0.1061
			c-0.2777,0.0645-0.5472,0.1589-0.8211,0.237c-0.181,0.0555-0.3636,0.1049-0.5479,0.1484
			c0.3369-0.0219,0.3243-0.0255-0.0379-0.0109c-1.5673,0.0434-3.074,1.3488-3,3C60.1109,104.5701,61.3592,106.0285,63.0397,105.9819
			L63.0397,105.9819z"/>
	</g>
</g>
<g>
	<g>
		<path style="fill:#8A181A;" d="M63.1639,100.8741c-1.8488,0.6626-3.455,1.8129-4.4452,3.5463
			c-1.0914,1.9106-1.2931,4.4328,0.3774,6.0935c1.6776,1.6677,4.3999,1.4448,6.0904-0.0656
			c1.527-1.3644,1.8154-3.4148,1.6437-5.3522c-0.1382-1.559-1.2808-3.077-3-3c-1.5067,0.0675-3.1484,1.326-3,3
			c0.0337,0.3801,0.037,0.7596,0.0624,1.1394c-0.0223,0.3646-0.0156,0.3778,0.0201,0.0394
			c-0.0239,0.089-0.0478,0.1779-0.0717,0.2669c0.6125-1.2546,2.8284-1.1954,2.9817,0.7117c0.0343,0.1492,0.0274,0.2982-0.0208,0.447
			c0.1041-0.326,0.0943-0.3307-0.0292-0.0142c0.08-0.161,0.1691-0.3167,0.2673-0.4674c-0.1798,0.207-0.2003,0.231-0.0615,0.0718
			c0.0965-0.1106,0.7769-0.6695,0.2945-0.337c0.1311-0.0904,1.0598-0.4997,0.4859-0.294c1.4735-0.5281,2.6204-2.0678,2.0953-3.6904
			C66.3846,101.5181,64.7456,100.3072,63.1639,100.8741L63.1639,100.8741z"/>
	</g>
</g>
<g>
	<g>
		<path style="fill:#B1B3B6;" d="M55.8758,104.2884c7.7214,0,7.7342-12,0-12C48.1544,92.2884,48.1416,104.2884,55.8758,104.2884
			L55.8758,104.2884z"/>
	</g>
</g>
<g>
	<g>
		<path style="fill:#B1B3B6;" d="M70.482,114.1895c0.1201-16.9753,0.1339-33.9508,0.0413-50.9262c-0.0503-9.2178-13.02-8.7481-14,0
			c-1.5643,13.9636-0.5302,27.9645,2.8134,41.6057c1.9679,8.0286,13.1858,5.7029,13.75-1.8609
			c1.0345-13.8705,0.9199-27.7424-0.3435-41.5939c-0.8039-8.8132-14.1281-9.1623-14,0c0.1206,8.6268,1.1552,17.1812,3.0326,25.6018
			c1.7073,7.658,14.1025,6.045,13.75-1.8609c-0.2298-5.1521-0.4595-10.3042-0.6893-15.4563
			c-4.5833,0.6203-9.1666,1.2406-13.75,1.8609c1.7142,7.4128,4.0099,14.6048,6.9076,21.6399c2.4707,5.9984,11.4916,7.2512,13.4999,0
			c1.559-5.6292,1.5335-11.291-0.1889-16.8811c-2.0532-6.6635-11.4289-6.6363-13.4999,0
			c-4.6034,14.7508-9.2067,29.5016-13.8101,44.2524c4.5,0,8.9999,0,13.4999,0c-4.5347-14.2458-5.7961-29.77-8.1664-44.4921
			c-1.2816-7.96-13.6769-5.8051-13.75,1.8609c-0.0823,8.6318-1.5535,16.8271-4.3466,24.9947c4.5,0,8.9999,0,13.4999,0
			c-2.5154-13.109-4.7364-26.2683-6.663-39.4767c-1.1657-7.9921-13.6398-5.7749-13.75,1.8609
			c-0.1842,12.7686-1.0767,25.5219-2.88,38.1672c4.5833,0.6203,9.1666,1.2406,13.75,1.8609
			c-1.8227-14.7953-3.6454-29.5906-5.4681-44.3859c-1.0829-8.7904-13.3843-9.196-14,0c-0.918,13.7119-0.5723,27.4062,1.0364,41.0543
			c1.0249,8.6954,14.1175,9.2505,14,0c-0.1207-9.5078-0.6303-18.9865-1.5295-28.4525c-0.8412-8.8549-13.6099-9.1462-14,0
			c-0.4838,11.3427-0.6418,22.689-0.4741,34.0408c0.1336,9.0401,13.6066,8.9822,14,0c0.4466-10.1983,1.2243-20.3686,2.3335-30.5162
			c-4.6667,0-9.3333,0-14,0c0.4477,12.1238,0.1788,24.2315-0.8066,36.3234c4.6667,0,9.3333,0,14,0
			c0.6583-10.5681,1.4819-20.9952,4.8967-31.0902c-4.5,0-8.9999,0-13.4999,0c1.9083,5.1556,3.7305,10.3396,5.4679,15.5553
			c2.6429,7.9341,12.7356,5.7377,13.75-1.8609c1.7164-12.8581,3.4328-25.7163,5.1492-38.5744c-4.6667,0-9.3333,0-14,0
			c0.055,1.3083,0.11,2.6166,0.165,3.9249c0.3773,8.9762,14.3793,9.0237,14,0c-0.055-1.3083-0.11-2.6166-0.165-3.9249
			c-0.3896-9.2689-12.839-8.6974-14,0c-1.7164,12.8581-3.4328,25.7163-5.1492,38.5744c4.5833-0.6203,9.1666-1.2406,13.75-1.8609
			c-1.7374-5.2157-3.5596-10.3997-5.4679-15.5553c-2.398-6.4788-11.2048-6.785-13.4999,0
			c-3.7957,11.221-4.6651,23.0657-5.3968,34.812c-0.5631,9.0391,13.2749,8.8983,14,0c0.9854-12.092,1.2543-24.1997,0.8066-36.3234
			c-0.3391-9.1849-13.0379-8.8018-14,0c-1.1092,10.1477-1.8868,20.3179-2.3335,30.5162c4.6667,0,9.3333,0,14,0
			c-0.1677-11.3518-0.0097-22.6981,0.4741-34.0408c-4.6667,0-9.3333,0-14,0c0.8992,9.466,1.4088,18.9447,1.5295,28.4525
			c4.6667,0,9.3333,0,14,0c-1.6087-13.6481-1.9544-27.3424-1.0364-41.0543c-4.6667,0-9.3333,0-14,0
			c1.8227,14.7953,3.6454,29.5906,5.4681,44.3859c0.4315,3.5025,2.3362,6.3704,6.0696,6.875
			c3.0817,0.4165,7.1888-1.567,7.6804-5.0141c1.9826-13.902,3.1776-27.8445,3.3801-41.889
			c-4.5833,0.6203-9.1666,1.2406-13.75,1.8609c1.9265,13.2084,4.1476,26.3676,6.663,39.4767c1.3962,7.2763,11.4471,6.0028,13.4999,0
			c3.1694-9.268,4.7534-18.9244,4.8467-28.7165c-4.5833,0.6203-9.1666,1.2406-13.75,1.8609
			c2.3705,14.7228,3.6316,30.2461,8.1664,44.4922c2.1058,6.6154,11.415,6.6809,13.4999,0
			c4.6034-14.7508,9.2067-29.5016,13.8101-44.2524c-4.5,0-8.9999,0-13.4999,0c1.0182,3.3045,1.1176,6.0846,0.1889,9.4375
			c4.5,0,8.9999,0,13.4999,0c-2.8976-7.035-5.1934-14.227-6.9076-21.6399c-1.7645-7.6304-14.1034-6.064-13.75,1.8609
			c0.2298,5.1521,0.4595,10.3042,0.6893,15.4563c4.5833-0.6203,9.1666-1.2406,13.75-1.8609
			c-1.6141-7.2398-2.4288-14.4634-2.5325-21.88c-4.6667,0-9.3333,0-14,0c1.2635,13.8515,1.3781,27.7234,0.3435,41.5939
			c4.5833-0.6203,9.1666-1.2406,13.75-1.8609c-3.0598-12.4831-3.7436-25.117-2.3133-37.8839c-4.6667,0-9.3333,0-14,0
			c0.0926,16.9754,0.0788,33.951-0.0413,50.9262C56.4182,123.2002,70.4182,123.2096,70.482,114.1895L70.482,114.1895z"/>
	</g>
</g>
<g>
	<g>
		<path style="fill:#8A1E1B;" d="M29.7887,35.1456C40.0151,45.4318,50.2415,55.718,60.468,66.0042
			c2.7262,2.7421,6.9693-1.5,4.2426-4.2426C54.4842,51.4754,44.2578,41.1892,34.0313,30.903
			C31.3051,28.1608,27.062,32.403,29.7887,35.1456L29.7887,35.1456z"/>
	</g>
</g>
<g>
	<g>
		<path style="fill:#8A1E1B;" d="M60.5232,29.6027C50.4226,39.673,40.3219,49.7433,30.2213,59.8135
			c-2.7381,2.7299,1.5037,6.9734,4.2426,4.2426c10.1006-10.0703,20.2013-20.1405,30.3019-30.2108
			C67.504,31.1155,63.2621,26.872,60.5232,29.6027L60.5232,29.6027z"/>
	</g>
</g>
<g>
	<g>
		<path style="fill:#8A1E1B;" d="M65.5666,32.4468c0.6916-1.8343,0.1314-4.2315-1.331-5.5445
			c-1.5954-1.4325-3.9978-1.7077-5.83-0.5256c-2.0087,1.2958-2.7257,3.8564-1.5068,5.9533c1.1853,2.0392,3.9526,2.8383,5.9894,1.62
			c1.3466-0.8055,1.9604-2.7332,1.0763-4.1046c-0.8732-1.3544-2.6634-1.9383-4.1046-1.0763
			c0.3596-0.2151,0.7917-0.2132,1.1891-0.1789c0.2717,0.0526,0.3297,0.0592,0.1738,0.02c-0.1482-0.0432-0.1012-0.0207,0.1409,0.0674
			c0.1453,0.0752,0.7406,0.6088,0.4454,0.2648c0.0562,0.0655,0.3887,0.5673,0.1918,0.2227
			c0.4089,0.7158,0.3275,1.5869-0.2547,2.1808c0.2773-0.2829-0.1767,0.1202-0.2473,0.1664
			c0.4147-0.2715-0.5421,0.1514-0.2047,0.0772c0.3526-0.0775-0.6821,0.0222-0.3205,0.0346
			c0.3223,0.0111-0.7786-0.2094-0.2434-0.0353c-0.1046-0.034-0.6358-0.2971-0.27-0.0826c-0.113-0.0803-0.226-0.1607-0.3389-0.241
			c-0.2556-0.3647-0.3228-0.4512-0.2017-0.2593c0.1639,0.3486-0.236-0.5903-0.0801-0.2338c0.2409,0.5508-0.115-0.0621,0.0107-0.1806
			c-0.01,0.0095-0.015,0.3439-0.005,0.3611c0.0766-0.4668,0.0846-0.5853,0.0239-0.3554c-0.0225,0.0872-0.0519,0.1721-0.0882,0.2546
			c-0.5547,1.4713,0.6152,3.3532,2.0953,3.6904C63.5833,34.9309,64.9727,34.0221,65.5666,32.4468L65.5666,32.4468z"/>
	</g>
</g>
<g>
	<g>
		<path style="fill:#8A1E1B;" d="M61.0784,34.0692c1.2821,0.5645,1.7293,0.9307,2.5715,1.7662
			c0.0667,0.075,0.1335,0.15,0.2002,0.225c-0.3041-0.3779-0.3449-0.8431-0.1226-1.3957c0.266-0.6242,0.8471-1.3326,1.567-1.3588
			c0.1128-0.0041,0.5962,0.1578,0.6454,0.1336c0.1579,0.1064,0.116,0.0504-0.1257-0.1681c-0.2283-0.2736-0.257-0.3061-0.086-0.0974
			c-0.934-1.2551-2.6387-2.0213-4.1046-1.0763c-1.242,0.8007-2.0783,2.7581-1.0763,4.1046c1.1426,1.5353,2.478,2.986,4.53,3.0859
			c1.8547,0.0903,3.8038-0.9951,4.3628-2.8414c1.0202-3.3694-2.5821-6.347-5.3336-7.5584
			c-1.4325-0.6307-3.2891-0.4672-4.1046,1.0763C59.3146,31.2658,59.5449,33.394,61.0784,34.0692L61.0784,34.0692z"/>
	</g>
</g>
<g>
	<g>
		<path style="fill:#8A1E1B;" d="M65.1925,64.9268c0.1675-0.3889,0.335-0.7783,0.5338-1.1524
			c0.1091-0.2053,0.2219-0.4126,0.3571-0.6024c-0.1812,0.2543-0.1035,0.1056,0.0605-0.0332
			c-0.4946,0.4185,0.2666-0.094-0.086,0.0454c-0.1589,0.0616-0.1558,0.068,0.0093,0.019c0.2216-0.0542,0.1678-0.0446-0.1614,0.0287
			c-0.7681-0.069-1.062-0.6172-1.3292-1.2604c-0.0169-0.2281-0.0242-0.2568-0.0218-0.0859
			c-0.005,0.1682,0.0009,0.1422,0.0175-0.0778c0.2951-0.5588-0.4613,0.6097,0.0667-0.2852c0.1395-0.2364,0.3319-0.2341,0.058-0.078
			c0.1388-0.0791,0.6963-0.265,0.3876-0.2393c-0.4652,0.0388,0.4483,0.0727-0.0249,0.0243c-0.2337-0.0239-0.5983-0.0941-0.187,0.01
			c-0.1875-0.0475-0.3712-0.0998-0.5561-0.1567c0.4849,0.1492-0.2637-0.1343-0.3356-0.1729
			c-1.3825-0.7413-3.3289-0.3919-4.1046,1.0763c-0.7365,1.394-0.4006,3.3127,1.0763,4.1046c2.128,1.141,4.6065,1.5933,6.8376,0.4475
			c2.0251-1.04,3.2098-3.6657,2.6152-5.8679c-0.7044-2.609-3.3954-3.8898-5.9333-3.253c-2.2428,0.5628-3.5967,2.475-4.4605,4.481
			c-0.6189,1.4372-0.475,3.2849,1.0763,4.1046C62.3794,66.6854,64.5297,66.4657,65.1925,64.9268L65.1925,64.9268z"/>
	</g>
</g>
<g>
	<g>
		<path style="fill:#8A1E1B;" d="M64.2115,60.7317c-1.5405-1.1603-3.9627-0.9909-5.4955,0.0915
			c-2.0424,1.4423-2.8065,3.9659-1.6946,6.2542c0.897,1.846,2.9448,3.1194,5.0103,3.0085c2.3657-0.1269,4.6031-1.9515,5.004-4.3334
			c0.2595-1.5416-0.4054-3.3054-2.0953-3.6904c-1.4508-0.3304-3.4118,0.4405-3.6904,2.0953
			c-0.0901,0.5354-0.1508,0.5664,0.1195,0.0565c-0.2483,0.2369-0.2491,0.2398-0.0023,0.0084
			c0.1666-0.1002,0.3473-0.1413,0.5421-0.1234c-0.2975-0.0075-0.3259-0.0062-0.0853,0.0038
			c0.1527-0.0107,0.2939,0.0289,0.4237,0.1189c-0.2867-0.1798-0.2809-0.171,0.0174,0.0264c0.1999,0.299,0.2121,0.3057,0.0365,0.0202
			c0.2028,0.5195,0.1706,0.7526-0.0186,1.2765c-0.0777,0.0909-0.1553,0.1818-0.233,0.2727
			c0.2318-0.2251,0.1868-0.2029-0.1352,0.0667c0.2888-0.1573,0.2386-0.1439-0.1505,0.0402
			c0.3295-0.0786,0.2659-0.0757-0.1905,0.0087c-0.4597-0.0932-0.5273-0.0993-0.2029-0.0182
			c-0.4007-0.1837-0.4632-0.1846-0.1876-0.0025c1.2585,0.9479,3.4079,0.2424,4.1046-1.0762
			C66.1213,63.2586,65.555,61.7436,64.2115,60.7317L64.2115,60.7317z"/>
	</g>
</g>
<g>
	<g>
		<path style="fill:#8A1E1B;" d="M35.0316,31.2684c-0.2234-0.3318,0.0436,0.182,0.0701,0.2843
			c-0.1091-0.4208,0.0312,0.2586,0.0045,0.3192c0.0146-0.0331,0.0152-0.2968-0.0001-0.329c0.037,0.0778-0.1367,0.7232-0.0105,0.3119
			c-0.0322,0.1049-0.3153,0.5966-0.0962,0.2681c-0.0589,0.0882-0.4519,0.4897-0.1608,0.2269
			c-0.073,0.0659-0.5515,0.3891-0.2044,0.1883c-0.1362,0.0625-0.2724,0.125-0.4085,0.1875
			c-0.5037,0.0436-0.635,0.0609-0.3939,0.0521c0.3823,0.032-0.6916-0.1119-0.309-0.0583c0.1056,0.0148,0.492,0.161,0.0312-0.0172
			c-0.5525-0.2136,0.219,0.2252-0.2374-0.1351c-0.4814-0.3801,0.1817,0.2978-0.189-0.1953
			c-0.3208-0.4269,0.0256,0.2806-0.1409-0.2399c-0.2052-0.641-0.1182-0.6952,0.1998-1.4328
			c0.2856-0.6625,0.3408-0.9169,0.9533-1.1814c0.8207-0.3544,1.57-0.1429,2.3606,0.4906c-0.6434-0.5156-1.2634-0.8787-2.1213-0.8787
			c-0.7358,0-1.6147,0.3268-2.1213,0.8787c-0.9999,1.0893-1.3078,3.1947,0,4.2426c1.1022,0.8832,2.2955,1.2927,3.7035,0.9536
			c1.2472-0.3004,2.3907-1.3618,2.7264-2.6057c0.6051-2.2423-0.75-4.5123-2.8194-5.3857c-1.851-0.7811-4.1521-0.4642-5.4888,1.1384
			c-1.3652,1.6368-1.7712,4.1-0.5287,5.9452c0.875,1.2995,2.6829,1.9928,4.1046,1.0763
			C35.2499,34.5383,35.969,32.6606,35.0316,31.2684L35.0316,31.2684z"/>
	</g>
</g>
<g>
	<g>
		<path style="fill:#8A1E1B;" d="M32.9264,29.6011c-3.6032-0.2426-9.9685,2.4002-7.9893,7.063
			c0.8529,2.0093,3.198,3.0271,5.2891,2.5145c1.913-0.4689,3.1431-2.0555,3.953-3.7463c0.6995-1.4604,0.4023-3.2398-1.0763-4.1046
			c-1.3106-0.7666-3.4016-0.3913-4.1046,1.0763c-0.1295,0.2704-0.2574,0.5429-0.4067,0.8032
			c-0.0972,0.1745-0.2035,0.3432-0.3188,0.5063c0.0312-0.0527,0.0624-0.1054,0.0935-0.1581
			c0.2336-0.0862,0.4218-0.2299,0.6896-0.2385c1.7807-0.057,0.6519,2.0861,1.2294,2.8212
			c-0.0522,0.0914-0.1288,0.1573-0.2299,0.1977c0.1456-0.1027,0.2962-0.197,0.4521-0.283c0.2707-0.156,0.4114-0.2124,0.5826-0.2696
			c0.7477-0.25,1.009-0.2377,1.8362-0.182c1.6184,0.109,3-1.4568,3-3C35.9264,30.8866,34.5495,29.7104,32.9264,29.6011
			L32.9264,29.6011z"/>
	</g>
</g>
<g>
	<g>
		<path style="fill:#8A1E1B;" d="M35.3666,62.617c0.5405-2.173-0.4359-4.5441-2.4455-5.6084
			c-2.2104-1.1706-4.8996-0.4148-6.2269,1.6893c-1.3215,2.095-1.0482,5.5324,1.6703,6.3492
			c1.1633,0.3495,2.4253,0.1977,3.4951-0.3667c1.145-0.604,1.7765-1.5442,2.2515-2.7098c0.5939-1.4573-0.6437-3.3597-2.0953-3.6904
			c-1.7419-0.3968-3.0544,0.5347-3.6904,2.0953c0.1099-0.2698,0.1908-0.53,0.4025-0.7443c0.1116-0.0845,0.2233-0.169,0.3349-0.2536
			c-0.2163,0.1169-0.2017,0.1163,0.044-0.0019c0.1289-0.0825,0.2699-0.1201,0.4233-0.1128
			c0.2567-0.0201,0.3037-0.0281,0.1411-0.0238c-0.3239-0.0027,0.7532,0.1901,0.2065-0.0073
			c0.5976,0.4596,1.1953,0.9191,1.7929,1.3787c0.1714,0.2745,0.25,0.5738,0.2359,0.8981c0.0002-0.3204-0.0261-0.2145-0.079,0.3177
			c0.0122-0.0526,0.0243-0.1052,0.0365-0.1578c0.0985-0.2972,0.0587-0.209-0.1194,0.2645c0.2519-0.4825-0.4755,0.4559-0.0749,0.0926
			c-0.4072,0.2877-0.4802,0.3496-0.2189,0.1858c-0.4542,0.1668-0.5689,0.2195-0.3441,0.1583
			c0.2283-0.0558,0.1021-0.0363-0.3788,0.0585c-0.3036,0.0071-0.5819-0.0725-0.8351-0.2388
			c0.4682,0.2685-0.4114-0.4995-0.036-0.0487c-0.2697-0.3825-0.3196-0.441-0.1497-0.1755
			c-0.0521-0.1306-0.1042-0.2612-0.1563-0.3919c0.0836,0.3166,0.0809,0.2234-0.0081-0.2795
			c-0.0099,0.3257,0.0029,0.235,0.0383-0.272c-0.3782,1.5205,0.4886,3.3244,2.0953,3.6904
			C33.2288,65.0659,34.9614,64.2462,35.3666,62.617L35.3666,62.617z"/>
	</g>
</g>
<g>
	<g>
		<path style="fill:#8A1E1B;" d="M35.3473,64.2804c-0.3577,0.3527-0.7757,0.5413-1.254,0.5658
			c-0.4766-0.08-0.5504-0.0739-0.2212,0.0184c-0.5593-0.1634-0.1068-0.1448,0.0469,0.1116
			c-0.2755-0.222-0.3308-0.2624-0.1659-0.1212c0.084,0.0714,0.1651,0.1459,0.2435,0.2235c0.103,0.1012,0.2027,0.2056,0.2991,0.3131
			c-0.1297-0.1168-0.213-0.258-0.2499-0.4238c-0.6733-1.5744,1.1399-3.4145,2.6097-2.5532c0.2075,0.1216,0.545,0.7232,0.3447,0.2769
			c-0.0742-0.1301-0.1417-0.2637-0.2023-0.4006c0.1553,0.3693,0.1726,0.3992,0.0518,0.0897
			c-0.5515-1.4641-2.0506-2.626-3.6904-2.0953c-1.4309,0.463-2.6876,2.118-2.0953,3.6904c0.6713,1.7823,1.6662,3.5913,3.6798,4.075
			c2.2946,0.5512,4.7948-0.8026,5.1215-3.2338c0.2898-2.1571-1.2485-3.8839-2.9179-5.0215
			c-0.7961-0.5425-1.7097-0.8478-2.6641-0.9292c-1.2475-0.1064-2.2326,0.4265-3.1785,1.1716c-1.2386,0.9757-1.0977,3.235,0,4.2426
			C32.4187,65.4868,34.0257,65.3214,35.3473,64.2804L35.3473,64.2804z"/>
	</g>
</g>
</svg>
