<?xml version="1.0" encoding="utf-8"?>
<!-- Generator: Adobe Illustrator 26.5.1, SVG Export Plug-In . SVG Version: 6.00 Build 0)  -->
<svg version="1.1" id="Layer_1" xmlns="http://www.w3.org/2000/svg" xmlns:xlink="http://www.w3.org/1999/xlink" x="0px" y="0px"
	 viewBox="0 0 134.06 256.52" style="enable-background:new 0 0 134.06 256.52;" xml:space="preserve">
<ellipse style="stroke:#000000;stroke-miterlimit:10;" cx="72.47" cy="110.14" rx="50.73" ry="102.9"/>
<g>
	<g>
		<path style="fill:#FFFFFF;" d="M55.8,60.22c12.23,0,12.25-19,0-19C43.57,41.22,43.55,60.22,55.8,60.22L55.8,60.22z"/>
	</g>
</g>
<g>
	<g>
		<path style="fill:#FFFFFF;" d="M84.06,59.5c12.23,0,12.25-19,0-19C71.83,40.5,71.81,59.5,84.06,59.5L84.06,59.5z"/>
	</g>
</g>
<g>
	<g>
		<path style="fill:#FFFFFF;" d="M71.74,86.76c10.94,0,10.96-17,0-17C60.8,69.76,60.78,86.76,71.74,86.76L71.74,86.76z"/>
	</g>
</g>
<g>
	<g>
		<path d="M31.88,126.17c12.23,0,12.25-19,0-19C19.66,107.17,19.64,126.17,31.88,126.17L31.88,126.17z"/>
	</g>
</g>
<g>
	<g>
		<path d="M22.47,112.21c-0.41,39.3,8.74,78.22,5.48,117.55c-0.74,8.98,13.26,8.93,14,0c3.26-39.34-5.89-78.25-5.48-117.55
			C36.57,103.2,22.57,103.19,22.47,112.21L22.47,112.21z"/>
	</g>
</g>
<g>
	<g>
		<path d="M110.39,117.39c0,36.23,0,72.46,0,108.7c0,9.01,14,9.02,14,0c0-36.23,0-72.46,0-108.7
			C124.39,108.38,110.39,108.37,110.39,117.39L110.39,117.39z"/>
	</g>
</g>
<g>
	<g>
		<path d="M28.62,226.44c-1.78,10.67,7.18,22.06,18.79,19.04c5.3-1.38,8.6-5.38,12.44-8.94c1.77-1.64,3.32-2.3,5.75-2.6
			c0.77-0.09,3.77-0.55,4.53-0.19c0.79,0.36,0.2,0.38,0.83,1.26c1.56,2.16,2.14,4.71,4,6.82c1.81,2.07,4.05,3.74,6.55,4.88
			c5.12,2.34,11.12,2.25,16.12-0.39c5.33-2.81,7.51-7.59,9.8-12.84c0.4-0.91,1.44-4.22,2.71-4.34c-1.14,0.1,0.13,0.62,0.42,1.3
			c0.47,1.11,1.22,2.1,1.68,3.23c1.44,3.53,4.64,5.93,8.61,4.89c3.33-0.88,6.31-5.11,4.89-8.61c-3.59-8.83-11.45-18.9-22.19-13.17
			c-4.61,2.46-7.09,6.92-9.03,11.55c-1.56,3.72-4.25,8.65-8.68,4.65c-1.78-1.61-2.14-4.14-3.27-6.16c-1.31-2.33-3.14-4.17-5.5-5.43
			c-4.63-2.46-10.84-1.84-15.81-0.9c-5.2,0.98-9.1,3.91-12.74,7.59c-0.89,0.9-2.97,3.69-4.45,3.77c-0.63,0.03-2.09-0.76-1.94-1.69
			C43.59,221.35,30.1,217.56,28.62,226.44L28.62,226.44z"/>
	</g>
</g>
<g>
	<g>
		<path d="M38.31,189.9c0.65,6.32,1.31,12.64,1.96,18.96c0.29,2.84,0.59,5.69,0.88,8.53c0.16,1.58,0.35,3.16,0.49,4.74
			c0.07,0.63,0.13,1.26,0.2,1.9c-0.1,2.4,0.64,1.59,2.2-2.42c3.43,2.64,6.86,5.27,10.28,7.91c0.46-3.16,0.56-6.23,0.79-9.41
			c0.09-1.28,0.08-2.55,0.51-3.78c0.12-0.36,0.9-1.59,0.92-1.88c0-0.05-1.3-3.87-1.42-3.9c-0.23-0.06-1.66,1.76-1.9,2.05
			c-1.94,2.31-2.57,4.31-2.95,7.31c-0.5,4.02,3.63,6.65,7,7c3.81,0.4,7.59,0.52,11.41,0.19c1.88-0.16,3.78-0.41,5.64-0.72
			c2.69-0.45,2.7,0.01,1.78-1.59c2.73,4.72,2.74,9.43,9.03,11.05c3.67,0.95,7.58-1.19,8.61-4.89c1.19-4.28,2.76-8.3,4.99-12.16
			c1.11-1.92,2.31-3.81,3.67-5.57c0.67-0.84,1.36-1.65,2.07-2.45c2.2-1.93,1.28-2.01-2.76-0.24c-1.39-1.07-2.79-2.14-4.18-3.22
			c-1.04-1.66-0.41-1.44-1.44,0.55c-0.63,1.2-1.32,2.35-2.04,3.51c-2.56,4.11,0.69,11.23,6.04,10.53
			c9.26-1.2,17.99-4.61,16.71-15.39c-1.19-10.06-2.63-20.09-3.95-30.13c-0.46-3.5-2.32-6.37-6.07-6.87
			c-3.11-0.42-7.15,1.57-7.68,5.01c-0.69,4.43-1.37,8.86-2.06,13.3c-0.5,3.21-0.35,8.8-2.41,11.49c-1.59,2.07-4.82,2.84-7.05,4.05
			c-3.22,1.73-5.58,3.83-7.75,6.75c4.26,0.56,8.53,1.11,12.79,1.67c-0.03-0.3-0.06-0.59-0.09-0.89c0.67-8.99-13.34-8.95-14,0
			c-0.13,1.7,0.05,2.99,0.59,4.61c2.02,6.1,9.22,6.47,12.79,1.67c1.6-2.15,5.66-2.98,7.91-4.29c3.16-1.85,5.78-4.26,7.47-7.53
			c1.92-3.71,2.32-7.84,2.95-11.91c0.78-5.06,1.57-10.13,2.35-15.19c-4.58-0.62-9.17-1.24-13.75-1.86
			c0.86,6.59,1.73,13.18,2.59,19.77c0.41,3.14,0.82,6.28,1.23,9.42c0.12,0.94,0.25,1.88,0.37,2.82c0.51-0.64,1.02-1.29,1.53-1.93
			c0.11,0.31-4.23,1.4-4.49,1.43c2.01,3.51,4.03,7.02,6.04,10.53c2.72-4.35,6.07-9.91,4.74-15.25c-1.42-5.7-7.65-8.37-12.81-5.46
			c-4.37,2.46-8.02,8.42-10.57,12.57c-3.23,5.24-5.61,11.02-7.26,16.94c2.87-1.63,5.74-3.26,8.61-4.89
			c2.04,0.53,1.85,1.65,0.82-1.16c-0.45-1.22-0.91-2.47-1.57-3.58c-1.62-2.72-4.2-4.62-7.26-5.39c-3.48-0.87-6.81,0.18-10.25,0.67
			c-4.43,0.63-8.9,0.5-13.33,0.04c2.33,2.33,4.67,4.67,7,7c-0.32,2.6-1.03,2.54,0.75,0.54c0.76-0.86,1.52-1.76,2.1-2.75
			c1.43-2.44,1.88-5.4,1.18-8.16c-1.3-5.12-6.56-8.97-11.75-9.1c-5.3-0.13-9.86,3.05-12.5,7.52c-3.3,5.59-2.34,11.7-3.22,17.83
			c-0.75,5.21,4.75,11.99,10.28,7.91c6.56-4.84,4.49-12.02,3.75-19.15c-0.85-8.22-1.7-16.43-2.55-24.65
			C51.4,181.02,37.39,180.93,38.31,189.9L38.31,189.9z"/>
	</g>
</g>
<g>
	<g>
		<path d="M93.02,216.67c-0.42,3.15-0.84,6.3-1.26,9.45c-0.48,3.65,3.57,7.15,7,7c4.21-0.19,6.48-3.09,7-7
			c0.42-3.15,0.84-6.3,1.26-9.45c0.48-3.65-3.57-7.15-7-7C95.82,209.86,93.54,212.76,93.02,216.67L93.02,216.67z"/>
	</g>
</g>
<g>
	<g>
		<path d="M35.45,107.6c-2.21-8.97-12.94-37.7-26.29-24.47c-12.66,12.55,5.48,29.5,13.21,38.69c5.8,6.91,15.66-3.04,9.9-9.9
			c-2.91-3.46-5.85-6.91-8.73-10.39c-0.97-1.16-1.94-2.29-2.75-3.58c-0.72-1.15-0.99-3.58-1.63-4.43c0.31-2.25-1.51-2.36-5.45-0.32
			c0.55,0.76,1.08,1.53,1.59,2.32c0.94,1.46,1.81,2.96,2.6,4.49c1.86,3.6,3.09,7.37,4.05,11.3C24.1,120.07,37.6,116.37,35.45,107.6
			L35.45,107.6z"/>
	</g>
</g>
<g>
	<g>
		<path d="M122.82,98.99c0.98-2.61,1.96-5.21,2.95-7.82c0.39-1.04,0.77-2.09,1.18-3.13c1.2-3.05,0.9-1.33,0.11-1.21
			c-1.24,0-2.48,0-3.72,0c-1.27-2.43-2.04-2.84-2.33-1.2c-0.26,0.8-0.55,1.6-0.87,2.38c-0.5,1.28-1.04,2.54-1.6,3.8
			c-1.29,2.83-2.73,5.59-4.25,8.3c-4.41,7.87,7.68,14.94,12.09,7.07c4.64-8.28,15.58-25.96,3.53-32.82
			c-12.78-7.28-17.6,13.04-20.57,20.92C106.14,103.71,119.67,107.36,122.82,98.99L122.82,98.99z"/>
	</g>
</g>
</svg>
