<?xml version="1.0" encoding="utf-8"?>
<!-- Generator: Adobe Illustrator 26.5.1, SVG Export Plug-In . SVG Version: 6.00 Build 0)  -->
<svg version="1.1" id="Layer_1" xmlns="http://www.w3.org/2000/svg" xmlns:xlink="http://www.w3.org/1999/xlink" x="0px" y="0px"
	 viewBox="0 0 263.1 354" style="enable-background:new 0 0 263.1 354;" xml:space="preserve">
<path style="stroke:#000000;stroke-miterlimit:10;" d="M31.9-7"/>
<path style="stroke:#000000;stroke-miterlimit:10;" d="M132.9,7.5c-52.2,0-94.5,67.2-94.5,150s42.3,150,94.5,150s94.5-67.2,94.5-150
	S185.1,7.5,132.9,7.5z M103.6,103.9c-8.9,0-15.5-7.3-15.9-15.9c-0.4-8.7,7.6-16,15.9-16c8.9,0,15.5,7.3,15.9,15.9
	S112,103.9,103.6,103.9z M131.9,137.2c-15,0-14.9-23.2,0-23.2C146.9,114,146.8,137.2,131.9,137.2z M158,103.1
	c-8.9,0-15.5-7.3-15.9-15.9s7.6-15.9,15.9-15.9c8.9,0,15.5,7.3,15.9,15.9C174.3,95.8,166.3,103.1,158,103.1z"/>
<path d="M262.9,134c-2.1-14.6-17.6-19.3-30.2-16.9c-6.1,1.2-12.4,3.8-17,8.1c-4.5,4.1-6,10.5-10.4,14.4c-3.7,3.2-3.2,9.5,0,12.7
	c0.9,0.9,2,1.6,3.1,2c-2.1,1.7-3.6,4.2-3.4,7c0.6,7.7,6.8,12.1,14,10.4v47.5c-2.5-1.7-5.9-2.1-9.2-0.2
	c-13.2,7.1-17.7,21.5-21.9,34.9c-1.9,6.2-4.1,11.8-8.6,16.5c-4.9,5.2-9.9,10.2-11.4,17.5c-0.2,0.8-0.2,1.6-0.2,2.3
	c-2.8,2.5-4.5,6.3-5.1,10.2c-2.5-2.1-5.6-3.7-9.4-4.4c-6.1-1.1-11.7,0.5-17.2,2.9c-1.1,0.5-2.1,1-3.2,1.5c-1.7-0.7-3.6-1-5.5-0.7
	c-4.5,0.9-8.7,0.5-13.1-0.9c-2.4-0.7-4.5-0.5-6.3,0.4c-2.1-3.2-5.1-5.9-8.9-7.6c-0.6-0.2-1.1-0.5-1.7-0.7
	c-6.8-9.2-13.6-18.4-20.4-27.5c-2.4-3.2-7-4.8-10.7-3.9c0-10.1-0.1-20.1-0.1-30.2c0-9.8-12.9-11.3-16.9-4.5v-64.3c0-0.2,0-0.5,0-0.7
	c2.6-3,5.2-6,7.8-8.9c3.9-4.5,2.4-10-1-13.2c2.8-3.7,3.3-8.8-0.2-12.4c-3.2-3.2-9.6-3.8-12.7,0c-11.4,14-36.8,20.6-37.6,41.9
	c-0.5,14.3,14.7,19,25.3,11.9c3.2-2.1,5.9-4.9,8.4-7.8V260c-0.9,5.8-2,11.6-4,17c-2.6,7-6.9,11.7-13.2,15.6
	c-7.2,4.5-14.7,8.9-19,16.5c-3.8,6.8-4.1,15.4,0.1,22.1c9.1,14.6,26.8,8.1,36.8-2.2c2.9,6.9,10.1,11.8,17.7,11.5
	c4.4-0.2,8.5-2.2,10.4-6.4c2-4.3,0.7-9,4.2-12.8c3.2-3.6,8.2-4.6,12.6-2.7c4.8,2.1,6.7,6.9,8.4,11.5c3.1,8,7.1,16.3,16.5,17.9
	c8,1.3,16.4-2.7,19.8-10.1c2.2-4.8,1.9-10.3,5.9-14.3c3.6-3.6,8.8-4.9,13.6-3.2c10.4,3.5,9.9,16.4,15.1,24.4
	c4.7,7.1,12.8,10.3,21.1,8.9c9.7-1.7,16-8.9,17.4-18.5c0.6-4.5-0.3-12.6,3.8-15.9c6-4.7,10.6,6.8,12,10.6c1.9,5,9,4,9.9-0.1
	c0.5-0.7,0.8-1.6,0.8-2.8V167.4c3.6-1.9,7-3.9,10.5-5.7C250.5,156,265.1,149,262.9,134z M217.4,152.9c-0.1,0-0.1,0-0.2-0.1
	c0.3-0.2,0.5-0.4,0.8-0.6c0.7-0.6,1.3-1.2,1.8-1.9c0.4,0.3,0.9,0.5,1.4,0.6C219.9,151.6,218.6,152.2,217.4,152.9z"/>
</svg>
