<?xml version="1.0" encoding="utf-8"?>
<!-- Generator: Adobe Illustrator 26.5.0, SVG Export Plug-In . SVG Version: 6.00 Build 0)  -->
<svg version="1.1" id="Layer_1" xmlns="http://www.w3.org/2000/svg" xmlns:xlink="http://www.w3.org/1999/xlink" x="0px" y="0px"
	 viewBox="0 0 212.32 285.51" style="enable-background:new 0 0 212.32 285.51;" xml:space="preserve">
<path d="M98.09,5.8c-38.56,0-69.83,51.15-69.83,114.24s31.26,114.24,69.83,114.24s69.83-51.15,69.83-114.24S136.65,5.8,98.09,5.8z
	 M73.19,81.18c-14.97,0-14.94-23.22,0-23.22C88.16,57.95,88.13,81.18,73.19,81.18z M97.83,118.1c-12.12,0-12.1-18.81,0-18.81
	C109.95,99.29,109.93,118.1,97.83,118.1z M119.57,80.45c-14.97,0-14.94-23.22,0-23.22C134.53,57.23,134.51,80.45,119.57,80.45z"/>
<g>
	<g>
		<path d="M31.28,125.96c1.45,1.45,2.9,2.9,4.35,4.35c2.59,2.59,7.34,2.79,9.9,0c2.57-2.79,2.77-7.13,0-9.9
			c-1.45-1.45-2.9-2.9-4.35-4.35c-2.59-2.59-7.34-2.79-9.9,0C28.72,118.86,28.52,123.2,31.28,125.96L31.28,125.96z"/>
	</g>
</g>
<g>
	<g>
		<path d="M28.75,119.57c-1.15,43.03-0.16,86.08,2.96,129.01c0.65,8.93,14.65,9,14,0c-3.12-42.93-4.1-85.98-2.96-129.01
			C42.99,110.56,28.99,110.57,28.75,119.57L28.75,119.57z"/>
	</g>
</g>
<g>
	<g>
		<path d="M153.87,129.71c0,42.75,0,85.51,0,128.26c0,9.01,14,9.02,14,0c0-42.75,0-85.51,0-128.26
			C167.87,120.7,153.87,120.69,153.87,129.71L153.87,129.71z"/>
	</g>
</g>
<g>
	<g>
		<path d="M32.79,243.23c-4.23,15.08,8.2,27.26,22.2,29.83c6.88,1.26,14.35,0.97,19.18-4.79c3.72-4.43,3.95-11.96,10.42-13.77
			c6.74-1.89,8.21,4.77,9.78,9.64c2.01,6.21,5.81,12.59,12.47,14.56c6.28,1.86,12.5-0.95,15.9-6.36c2.78-4.42,2.8-10.55,6.04-14.58
			c3.06-3.8,8.98-4.88,13.12-2.37c2.76,1.67,4.96,4.34,7.54,6.29c3.31,2.51,6.59,3.68,10.69,4.19c3.78,0.47,6.96-3.56,7-7
			c0.04-4.17-3.26-6.53-7-7c-2.71-0.34-5.54-4.2-7.51-5.83c-2.64-2.18-5.36-3.98-8.65-5c-6.45-2-13.83-0.95-19.63,2.45
			c-6.25,3.66-9.28,9.34-11.42,16.03c-0.38,1.2-1.09,5.24-2.4,5.92c0.91,0.08,0.89-0.05-0.06-0.38c-0.51-0.46-0.94-0.99-1.29-1.58
			c-0.89-1.39-1.28-2.98-1.75-4.54c-2.3-7.52-5.51-14.24-13.25-17.25c-7.3-2.84-15.3-1.26-21.35,3.57
			c-2.65,2.11-4.89,4.76-6.51,7.75c-1.96,3.61-1.58,7.06-6.34,6.71c-6.52-0.49-15.91-4.83-13.68-12.76
			C48.73,238.26,35.22,234.55,32.79,243.23L32.79,243.23z"/>
	</g>
</g>
<g>
	<g>
		<path d="M41.43,189.85c-0.97,13.76-1.93,27.53-2.9,41.29c-0.5,7.19-1.29,14.42-1.52,21.63c-0.2,6.36,4.1,10.11,10.14,11.36
			c11.96,2.49,20.83-8.33,21.26-19.39c0.2-5.24-1.34-10.43-2.76-15.41c-1.19-4.19-3.15-9.11-0.82-13.2
			c-4.26-1.8-8.53-3.6-12.79-5.39c-1.59,9.94-4.01,20.5-4.1,30.58c-0.09,9.17,8.1,15.2,16.91,13.79
			c7.68-1.23,14.03-7.77,15.93-15.21c2.42-9.47-1.98-18.98-6.92-26.81c-3.98-6.31-12.22-3.1-13.04,3.53
			c-1.08,8.72-1.31,18.4,5.1,25.29c5.71,6.15,14.27,8.01,21.62,3.67c2.5-1.48,4.23-3.06,7.24-2.23c2.81,0.77,3.97,2.53,4.75,5.17
			c2.18,7.36,3.05,13.43,10.97,16.58c4.12,1.64,9.12-2.55,8.86-6.75c-0.55-8.82-2.14-24.58,8.35-28.8
			c-2.87-1.63-5.74-3.26-8.61-4.89c1.56,6,0.8,11.73-2.28,17.12c-3.53,6.19,3.46,12.88,9.58,9.58c6.3-3.41,15.36-8.65,22.66-5.22
			c5.86,2.76,11.21-1.75,10.28-7.91c-1.23-8.16-2.34-16.34-3.29-24.55c-0.45-3.83-0.91-7.67-1.25-11.51
			c-0.18-2.08-0.89-6.07,0.58-7.89c-3.9-1.03-7.8-2.06-11.7-3.09c2.4,11.58,0.7,23.53-4.77,34.01c3.19-0.84,6.38-1.67,9.58-2.51
			c-1.54-0.91-2.33-2.62-1.44-4.32c2.82-5.37-1.84-11.85-7.91-10.28c-12.63,3.26-16.83,19.63-8.12,28.96
			c6.16,6.6,16.05-3.32,9.9-9.9c-1.71-1.83-0.23-5,1.94-5.56c-2.64-3.43-5.27-6.86-7.91-10.28c-4.42,8.41-1.82,18.59,6.46,23.48
			c3.14,1.85,7.83,0.84,9.58-2.51c7.27-13.96,9.37-29.4,6.18-44.8c-1.01-4.87-8.44-7.12-11.7-3.09c-6.17,7.62-4.9,16.23-3.88,25.38
			c1.2,10.76,2.63,21.49,4.24,32.19c3.43-2.64,6.86-5.27,10.28-7.91c-12.71-5.99-25.21-1.05-36.79,5.22
			c3.19,3.19,6.38,6.38,9.58,9.58c4.91-8.61,6.18-18.33,3.69-27.91c-0.87-3.36-5.12-6.29-8.61-4.89
			c-17.65,7.1-19.68,25.49-18.63,42.3c2.95-2.25,5.91-4.5,8.86-6.75c1.7,0.68,0.53-0.02,0.09-1.35c-0.45-1.37-0.66-2.84-0.99-4.24
			c-0.61-2.57-1.41-5.11-2.8-7.38c-3.26-5.35-9.26-8.67-15.37-9.36c-2.96-0.33-5.98-0.05-8.78,0.98c-2.25,0.82-5.2,3.83-7.38,3.81
			c-6.96-0.06-4.61-13.74-4.16-17.44c-4.35,1.18-8.7,2.36-13.04,3.53c3.45,5.47,10.48,18.08,0.61,21.26
			c-0.92,0.3-0.76,0.67-0.42-0.77c0.6-2.55,0.61-5.43,0.94-8.04c0.77-6.06,1.67-12.11,2.64-18.14c1.18-7.37-8.58-12.79-12.79-5.39
			c-4.56,8-2.79,16.32-0.38,24.7c1.06,3.68,2.55,7.79,2.03,11.68c-0.31,2.35-2.85,6.95-5.56,4.34c0.68,1.65,1.37,3.3,2.05,4.95
			c1.52-21.63,3.03-43.26,4.55-64.89C56.06,180.85,42.05,180.89,41.43,189.85L41.43,189.85z"/>
	</g>
</g>
<g>
	<g>
		<path d="M109.47,227.3c-10.94-0.86-25.58-4.56-33.95,4.78c-3.49,3.89-5.03,8.75-8.98,12.3c-3.82,3.43-7.78,6.47-9.99,11.26
			c-3.75,8.13,8.31,15.25,12.09,7.07c1.69-3.66,4.87-5.8,7.8-8.43c3.31-2.97,5.56-6.39,7.77-10.2c2.2-3.8,4.28-4.26,8.59-4.06
			c5.56,0.26,11.12,0.84,16.67,1.28C118.46,242,118.41,228,109.47,227.3L109.47,227.3z"/>
	</g>
</g>
<g>
	<g>
		<path d="M166.97,125.19c-0.68-7.06-0.38-14.28,1.89-21.06c0.77-2.31,2.43-6.82,5.46-7c2.68-0.16,3.4,2.72,3.61,4.94
			c0.64,6.46-3.51,12.88-6.95,17.97c-4.18,6.19-8.73,12.15-13.11,18.2c-4.54,6.26,5.86,12.25,10.36,6.06
			c6.44-8.88,14.09-17.67,18.54-27.77c3.72-8.45,5.21-19.72-1.75-27.04c-7.28-7.67-18.79-4.23-24.2,3.76
			c-5.98,8.84-6.85,21.66-5.86,31.95C155.71,132.81,167.71,132.89,166.97,125.19L166.97,125.19z"/>
	</g>
</g>
<g>
	<g>
		<path d="M168.57,99.08c-2.36,12.2-6.23,23.92-11.82,35.03c-3.46,6.88,6.89,12.96,10.36,6.06c6.05-12.02,10.47-24.67,13.03-37.89
			C181.6,94.72,170.04,91.49,168.57,99.08L168.57,99.08z"/>
	</g>
</g>
<g>
	<g>
		<path d="M30.53,123.21c-5.99,8.44-11.98,16.88-17.98,25.32c-2.55,3.59-5.87,7.1-5.13,11.81c0.64,4.09,3.94,6.96,7.86,7.94
			c8.62,2.17,15.61-4.78,18.64-12.08c3.73-9,6.24-18.66,9.24-27.93c2.39-7.36-9.2-10.52-11.57-3.19
			c-1.91,5.89-3.81,11.77-5.72,17.66c-0.88,2.71-1.65,5.49-2.68,8.15c-0.44,1.14-0.91,2.28-1.61,3.3c-0.47,0.68-2.48,1.94-2.67,2.36
			c0.21,0.93,0.43,1.86,0.64,2.79c0.37-0.53,0.75-1.06,1.12-1.58c1.23-1.16,2.39-3.36,3.37-4.75c1.69-2.37,3.37-4.75,5.06-7.12
			c3.93-5.54,7.86-11.08,11.8-16.62C45.37,122.96,34.97,116.96,30.53,123.21L30.53,123.21z"/>
	</g>
</g>
<g>
	<g>
		<path d="M155.51,171.86c1.5,9.5,3.21,18.87,7.31,27.65c4,8.56,9.77,16.32,14.94,24.19c1.46,2.22,2.91,4.43,4.37,6.65
			c0.98,1.48,2.46,5.12,3.92,6.06c0.21,1.28,0.62,1.29,1.23,0.03c1.33-1.07,1.02-1.36-0.94-0.88c-2.21-0.59-4.76,0.14-7.07-0.51
			c-8.78-2.47-11.23-12.96-13.3-20.63c-2.01-7.45-13.59-4.29-11.57,3.19c2.82,10.47,6.77,22.11,17.21,27.3
			c7.96,3.96,27.19,5.86,26.97-7.32c-0.09-5.65-4.23-10.47-7.17-14.95c-3.78-5.75-7.58-11.49-11.33-17.26
			c-3.54-5.46-6.89-11-8.9-17.23c-2.03-6.32-3.05-12.92-4.09-19.46C165.87,161.06,154.31,164.29,155.51,171.86L155.51,171.86z"/>
	</g>
</g>
<g>
	<g>
		<path d="M163.27,215.91c4.14,8.52,9.46,16.29,15.77,23.36c5.22,5.86,13.24-2.59,8.49-8.49c-4.81-5.96-10.61-10.9-17.16-14.85
			c-6.63-4-12.67,6.37-6.06,10.36c5.73,3.46,10.53,7.77,14.73,12.98c2.83-2.83,5.66-5.66,8.49-8.49
			c-5.63-6.32-10.19-13.32-13.89-20.93C170.26,202.91,159.91,208.99,163.27,215.91L163.27,215.91z"/>
	</g>
</g>
</svg>
