<?xml version="1.0" encoding="utf-8"?>
<!-- Generator: Adobe Illustrator 26.5.1, SVG Export Plug-In . SVG Version: 6.00 Build 0)  -->
<svg version="1.1" id="Layer_1" xmlns="http://www.w3.org/2000/svg" xmlns:xlink="http://www.w3.org/1999/xlink" x="0px" y="0px"
	 viewBox="0 0 153.87 178.99" style="enable-background:new 0 0 153.87 178.99;" xml:space="preserve">
<ellipse style="stroke:#000000;stroke-miterlimit:10;" cx="84.42" cy="75.72" rx="58.33" ry="60.51"/>
<g>
	<g>
		<path d="M137.43,57.75c1.27-3.29,4.83-8.41,8.53-9.09c-1.24,0-2.48,0-3.72,0c0.25,0.04,0.5,0.08,0.75,0.12
			c-1.03-0.6-2.06-1.2-3.09-1.8c0.18,0.16,0.36,0.32,0.54,0.48c-0.6-1.03-1.2-2.06-1.8-3.09c-0.58-2.34-0.42,0.6-0.62,1.47
			c-0.33,1.46-0.73,2.9-1.19,4.32c-0.8,2.51-1.81,4.84-3.01,7.18c-4.12,8,7.96,15.09,12.09,7.07c3.55-6.89,12.86-26.52,0.05-29.25
			c-5.12-1.09-10.15,2.72-13.7,5.98c-3.87,3.56-6.46,8.02-8.33,12.88c-1.36,3.53,1.5,7.68,4.89,8.61
			C132.77,63.73,136.07,61.29,137.43,57.75L137.43,57.75z"/>
	</g>
</g>
<g>
	<g>
		<path d="M43.52,51.92c-5.32-7.83-24.37-30.69-32.25-13.99c-5.55,11.75,1.89,25.74,13.7,29.65c8.57,2.84,12.25-10.68,3.72-13.5
			c-4.31-1.43-6.75-7.3-4.18-11.16c-0.84,0.84-1.67,1.67-2.51,2.51c0.35-0.19,0.71-0.37,1.06-0.56c-1.8,0.24-3.6,0.47-5.39,0.71
			c1.85,0.34,5.26,3.77,6.99,5.42c2.55,2.44,4.79,5.07,6.77,7.99C36.46,66.4,48.59,59.4,43.52,51.92L43.52,51.92z"/>
	</g>
</g>
<g>
	<g>
		<path d="M29.23,91.3c0,17.63,0,35.27,0,52.9c0,9.01,14,9.02,14,0c0-17.63,0-35.27,0-52.9C43.23,82.3,29.23,82.28,29.23,91.3
			L29.23,91.3z"/>
	</g>
</g>
<g>
	<g>
		<path d="M129.65,80.31c-1.99,20.6-6.87,40.75-3.17,61.47c1.58,8.85,15.07,5.1,13.5-3.72c-3.42-19.15,1.83-38.71,3.67-57.75
			C144.51,71.35,130.51,71.41,129.65,80.31L129.65,80.31z"/>
	</g>
</g>
<g>
	<g>
		<path d="M31.3,147.24c5.94,8.03,20.89,13.41,29.81,7.23c1.06-0.73,2.58-3.11,3.8-3.23c2.15-0.22,5.12,2.43,6.69,3.6
			c4.89,3.67,9.98,7.2,16.38,7.09c6.58-0.11,9.48-4.35,13.41-8.75c3.75-4.2,9.2-2.35,13.41,0.22c4.9,2.98,9.73,6.8,15.69,3.92
			c5.38-2.6,6.79-10.29,8.73-15.36c3.21-8.43-10.32-12.07-13.5-3.72c-0.64,1.68-3.15,5.68-2.78,7.3c0.3,1.32,3.18-1.13,3.13-1.38
			c-0.09-0.44-2.3-1.61-2.82-1.95c-3.96-2.61-8.34-4.6-13.06-5.27c-4.66-0.66-9.5,0-13.66,2.28c-2,1.1-3.77,2.59-5.25,4.31
			c-0.89,1.03-2.31,4.03-3.66,4.36c-3.2,0.79-8.14-4.71-10.55-6.32c-3.75-2.52-8.39-4.49-12.99-4.29c-2.34,0.1-4.68,0.82-6.68,2.01
			c-1.41,0.84-2.71,2.95-4.11,3.56c-1.88,0.83-8.55-0.86-9.89-2.68c-2.26-3.06-6.04-4.52-9.58-2.51
			C30.79,139.38,29.06,144.2,31.3,147.24L31.3,147.24z"/>
	</g>
</g>
<g>
	<g>
		<path d="M109.97,122.14c1.95,6.85,3.55,21.96,14.14,19.31c9.59-2.4,6.2-15.56,5.61-22.48c-0.75-8.84-14.34-9.12-14,0
			c0.11,2.98,0.22,5.96,0.33,8.95c0.04,1.19,0.09,2.39,0.13,3.58c0.03,0.89,0.07,1.79,0.1,2.68c-0.01,1.51,0.12,1.2,0.41-0.94
			c1.39-1.07,2.79-2.14,4.18-3.22c1.22,0.19,1.27,0.09,0.15-0.28c-0.81-0.35-1.63-0.69-2.45-1.02c-1.83-0.73-3.68-1.38-5.57-1.91
			c-3.3-0.92-6.71-1.48-10.12-1.82c-7.36-0.74-13.25,1.23-17.61,7.37c-1.51,2.13-1.87,3.55-4.69,2.85
			c-3.78-0.94-7.43-3.3-10.89-5.02c-7.47-3.72-14.94-7.43-22.41-11.15c-5.55-2.76-11.61,1.77-10.28,7.91
			c1.2,5.53,3.31,14.81,8.76,17.76c5.94,3.23,15.3-1.51,20.88-3.8c3.52-1.45,5.94-4.64,4.89-8.61c-0.87-3.32-5.12-6.32-8.61-4.89
			c-2.2,0.9-4.42,1.76-6.68,2.51c-0.95,0.31-6.49,1.26-6.86,1.97c4.41,2.91,5.74,3.03,3.99,0.37c-0.45-0.91-0.84-1.84-1.16-2.8
			c-0.74-2.03-1.25-4.12-1.71-6.23c-3.43,2.64-6.86,5.27-10.28,7.91c10.42,5.18,20.74,10.77,31.36,15.54
			c4.42,1.98,9.16,3.5,14.04,2.5c5.25-1.08,7.93-4.55,10.96-8.59c2.43-3.23,7.51-1.55,11.06-0.68c4.4,1.07,8.81,3.99,13.34,4.18
			c12.88,0.55,9.03-17.19,8.74-25.09c-4.67,0-9.33,0-14,0c0.2,2.35,0.4,4.69,0.6,7.04c0.1,1.17,0.2,2.35,0.3,3.52
			c-0.18,3.12,0.94,2.61,3.37-1.51c1.8,0.24,3.6,0.47,5.39,0.71c1.68,2.67,2.04,2.77,1.09,0.28c-0.33-1.17-0.67-2.35-1-3.52
			c-0.67-2.35-1.34-4.7-2.01-7.05C121.01,109.77,107.49,113.44,109.97,122.14L109.97,122.14z"/>
	</g>
</g>
<g>
	<g>
		<path d="M24.98,78.3c1.29,21.98,2.82,43.94,4.59,65.88c0.72,8.92,14.73,9,14,0c-1.77-21.94-3.3-43.9-4.59-65.88
			C38.46,69.34,24.45,69.28,24.98,78.3L24.98,78.3z"/>
	</g>
</g>
<g>
	<g>
		<path d="M58.7,62.8c9.01,0,9.02-14,0-14C49.69,48.8,49.67,62.8,58.7,62.8L58.7,62.8z"/>
	</g>
</g>
<g>
	<g>
		<path style="fill:#FFFFFF;" d="M58.7,66.25c11.58,0,11.6-18,0-18C47.11,48.25,47.09,66.25,58.7,66.25L58.7,66.25z"/>
	</g>
</g>
<g>
	<g>
		<path style="fill:#FFFFFF;" d="M104.35,66.25c11.58,0,11.6-18,0-18C92.77,48.25,92.75,66.25,104.35,66.25L104.35,66.25z"/>
	</g>
</g>
<g>
	<g>
		<path style="fill:#FFFFFF;" d="M76.81,93.01c3.14,0,6.28,0,9.42,0c3.92,0,7.68-3.45,7.5-7.5c-0.18-4.06-3.3-7.5-7.5-7.5
			c-3.14,0-6.28,0-9.42,0c-3.92,0-7.68,3.45-7.5,7.5C69.49,89.57,72.61,93.01,76.81,93.01L76.81,93.01z"/>
	</g>
</g>
</svg>
