<?xml version="1.0" encoding="utf-8"?>
<!-- Generator: Adobe Illustrator 26.5.1, SVG Export Plug-In . SVG Version: 6.00 Build 0)  -->
<svg version="1.1" id="Layer_1" xmlns="http://www.w3.org/2000/svg" xmlns:xlink="http://www.w3.org/1999/xlink" x="0px" y="0px"
	 viewBox="0 0 165.1282 120" style="enable-background:new 0 0 165.1282 120;" xml:space="preserve">
<g>
	<g>
		<path style="fill:#DCDDDE;" d="M29.7436,109.6282c12.8154,0,25.0926-11.2689,24.5-24.5c-0.5946-13.2741-10.7649-24.5-24.5-24.5
			c-12.8154,0-25.0926,11.2689-24.5,24.5C5.8381,98.4024,16.0085,109.6282,29.7436,109.6282L29.7436,109.6282z"/>
	</g>
</g>
<g>
	<g>
		<path style="fill:#DCDDDE;" d="M69.2308,109.6282c12.8154,0,25.0926-11.2689,24.5-24.5c-0.5946-13.2741-10.7649-24.5-24.5-24.5
			c-12.8154,0-25.0926,11.2689-24.5,24.5C45.3253,98.4024,55.4957,109.6282,69.2308,109.6282L69.2308,109.6282z"/>
	</g>
</g>
<g>
	<g>
		<path style="fill:#DCDDDE;" d="M102.5641,111.6795c12.8154,0,25.0926-11.2689,24.5-24.5c-0.5946-13.2741-10.7649-24.5-24.5-24.5
			c-12.8154,0-25.0926,11.2689-24.5,24.5C78.6587,100.4536,88.829,111.6795,102.5641,111.6795L102.5641,111.6795z"/>
	</g>
</g>
<g>
	<g>
		<path style="fill:#DCDDDE;" d="M137.9487,116.2949c12.8154,0,25.0926-11.2689,24.5-24.5c-0.5945-13.2741-10.7649-24.5-24.5-24.5
			c-12.8154,0-25.0926,11.2689-24.5,24.5C114.0433,105.069,124.2136,116.2949,137.9487,116.2949L137.9487,116.2949z"/>
	</g>
</g>
<g>
	<g>
		<path style="fill:#DCDDDE;" d="M82.0513,85.0128c12.8154,0,25.0926-11.2689,24.5-24.5c-0.5946-13.2742-10.7649-24.5-24.5-24.5
			c-12.8154,0-25.0926,11.2689-24.5,24.5C58.1458,73.787,68.3162,85.0128,82.0513,85.0128L82.0513,85.0128z"/>
	</g>
</g>
<g>
	<g>
		<path style="fill:#DCDDDE;" d="M59.4872,79.3718c12.8154,0,25.0926-11.2689,24.5-24.5c-0.5946-13.2742-10.7649-24.5-24.5-24.5
			c-12.8154,0-25.0926,11.2689-24.5,24.5C35.5817,68.1459,45.7521,79.3718,59.4872,79.3718L59.4872,79.3718z"/>
	</g>
</g>
<g>
	<g>
		<path style="fill:#DCDDDE;" d="M119.4872,83.4744c12.8154,0,25.0926-11.2689,24.5-24.5c-0.5946-13.2741-10.7649-24.5-24.5-24.5
			c-12.8154,0-25.0926,11.2689-24.5,24.5C95.5817,72.2485,105.7521,83.4744,119.4872,83.4744L119.4872,83.4744z"/>
	</g>
</g>
<g>
	<g>
		<path style="fill:#DCDDDE;" d="M99.4872,53.7308c12.8154,0,25.0926-11.2689,24.5-24.5c-0.5946-13.2741-10.7649-24.5-24.5-24.5
			c-12.8154,0-25.0926,11.2689-24.5,24.5C75.5817,42.5049,85.7521,53.7308,99.4872,53.7308L99.4872,53.7308z"/>
	</g>
</g>
</svg>
