<?xml version="1.0" encoding="utf-8"?>
<!-- Generator: Adobe Illustrator 26.5.1, SVG Export Plug-In . SVG Version: 6.00 Build 0)  -->
<svg version="1.1" id="Layer_1" xmlns="http://www.w3.org/2000/svg" xmlns:xlink="http://www.w3.org/1999/xlink" x="0px" y="0px"
	 viewBox="0 0 295.3846 141.5385" style="enable-background:new 0 0 295.3846 141.5385;" xml:space="preserve">
<g>
	<g>
		<path style="fill:#C0C2C4;" d="M31.2821,72.6282c14.3846,0,28.1652-12.6488,27.5-27.5c-0.6674-14.8996-12.083-27.5-27.5-27.5
			c-14.3846,0-28.1652,12.6488-27.5,27.5C4.4494,60.0278,15.8651,72.6282,31.2821,72.6282L31.2821,72.6282z"/>
	</g>
</g>
<g>
	<g>
		<path style="fill:#C0C2C4;" d="M70.2564,58.7821c14.3846,0,28.1652-12.6488,27.5-27.5c-0.6674-14.8996-12.083-27.5-27.5-27.5
			c-14.3846,0-28.1652,12.6488-27.5,27.5C43.4238,46.1816,54.8395,58.7821,70.2564,58.7821L70.2564,58.7821z"/>
	</g>
</g>
<g>
	<g>
		<path style="fill:#C0C2C4;" d="M54.359,89.5897c13.6,0,26.6289-11.9588,26-26c-0.631-14.0869-11.424-26-26-26
			c-13.6,0-26.6289,11.9588-26,26C28.9899,77.6766,39.7829,89.5897,54.359,89.5897L54.359,89.5897z"/>
	</g>
</g>
<g>
	<g>
		<path style="fill:#C0C2C4;" d="M83.0769,89.0769c13.6,0,26.6289-11.9588,26-26c-0.631-14.0869-11.424-26-26-26
			c-13.6,0-26.6289,11.9588-26,26C57.7079,77.1638,68.5009,89.0769,83.0769,89.0769L83.0769,89.0769z"/>
	</g>
</g>
<g>
	<g>
		<path style="fill:#C0C2C4;" d="M107.1795,68.0513c13.6,0,26.6289-11.9588,26-26c-0.631-14.0869-11.424-26-26-26
			c-13.6,0-26.6289,11.9588-26,26C81.8104,56.1381,92.6035,68.0513,107.1795,68.0513L107.1795,68.0513z"/>
	</g>
</g>
<g>
	<g>
		<path style="fill:#C0C2C4;" d="M182.0513,120.8718c13.6,0,26.6289-11.9588,26-26c-0.631-14.0869-11.424-26-26-26
			c-13.6,0-26.6289,11.9588-26,26C156.6822,108.9586,167.4753,120.8718,182.0513,120.8718L182.0513,120.8718z"/>
	</g>
</g>
<g>
	<g>
		<path style="fill:#C0C2C4;" d="M210.7692,91.641c13.6,0,26.6289-11.9588,26-26c-0.631-14.0869-11.424-26-26-26
			c-13.6,0-26.6289,11.9588-26,26C185.4002,79.7279,196.1932,91.641,210.7692,91.641L210.7692,91.641z"/>
	</g>
</g>
<g>
	<g>
		<path style="fill:#C0C2C4;" d="M211.2821,137.2821c13.6,0,26.6289-11.9588,26-26c-0.631-14.0869-11.424-26-26-26
			c-13.6,0-26.6289,11.9588-26,26C185.913,125.3689,196.706,137.2821,211.2821,137.2821L211.2821,137.2821z"/>
	</g>
</g>
<g>
	<g>
		<path style="fill:#C0C2C4;" d="M227.6923,117.7949c13.6,0,26.6289-11.9588,26-26c-0.631-14.0868-11.424-26-26-26
			c-13.6,0-26.6289,11.9588-26,26C202.3233,105.8817,213.1163,117.7949,227.6923,117.7949L227.6923,117.7949z"/>
	</g>
</g>
<g>
	<g>
		<path style="fill:#C0C2C4;" d="M251.7949,88.5641c13.6,0,26.6289-11.9588,26-26c-0.631-14.0869-11.424-26-26-26
			c-13.6,0-26.6289,11.9588-26,26C226.4258,76.651,237.2188,88.5641,251.7949,88.5641L251.7949,88.5641z"/>
	</g>
</g>
<g>
	<g>
		<path style="fill:#C0C2C4;" d="M262.5641,110.6154c13.6,0,26.6289-11.9588,26-26c-0.631-14.0869-11.424-26-26-26
			c-13.6,0-26.6289,11.9588-26,26C237.1951,98.7022,247.9881,110.6154,262.5641,110.6154L262.5641,110.6154z"/>
	</g>
</g>
</svg>
