<?xml version="1.0" encoding="utf-8"?>
<!-- Generator: Adobe Illustrator 26.5.1, SVG Export Plug-In . SVG Version: 6.00 Build 0)  -->
<svg version="1.1" id="Layer_1" xmlns="http://www.w3.org/2000/svg" xmlns:xlink="http://www.w3.org/1999/xlink" x="0px" y="0px"
	 viewBox="0 0 153.8462 88.7179" style="enable-background:new 0 0 153.8462 88.7179;" xml:space="preserve">
<g>
	<g>
		<path style="fill:#DADBDC;" d="M52.3077,59.5128c9.9385,0,19.4596-8.7391,19-19c-0.4611-10.2942-8.3483-19-19-19
			c-9.9385,0-19.4596,8.7391-19,19C33.7688,50.8071,41.656,59.5128,52.3077,59.5128L52.3077,59.5128z"/>
	</g>
</g>
<g>
	<g>
		<path style="fill:#DADBDC;" d="M78.4615,45.6667c9.9385,0,19.4596-8.7391,19-19c-0.4611-10.2942-8.3483-19-19-19
			c-9.9385,0-19.4596,8.7391-19,19C59.9226,36.9609,67.8098,45.6667,78.4615,45.6667L78.4615,45.6667z"/>
	</g>
</g>
<g>
	<g>
		<path style="fill:#DADBDC;" d="M57.0169,43.0081c1.2481,5.6794,5.5006,10.8961,10.4414,13.814
			c1.8631,1.1003,3.9037,2.0341,6.0162,2.5133c4.499,1.0205,7.0707,0.885,11.5656-0.0328c2.4725-0.5878,4.6263-1.7214,6.4614-3.4008
			c2.0684-1.3397,3.6996-3.1167,4.8936-5.3308c1.3885-2.1809,2.14-4.5356,2.2547-7.0642c0.5656-2.5255,0.4525-5.051-0.3393-7.5764
			c-0.6385-1.5129-1.2769-3.0258-1.9154-4.5387c-1.6891-2.8551-3.9612-5.1272-6.8163-6.8163
			c-1.5129-0.6385-3.0258-1.2769-4.5387-1.9154c-3.3673-0.9049-6.7346-0.9049-10.1019,0c-0.0809,0.0165-0.1617,0.033-0.2426,0.0495
			c1.6836-0.2262,3.3673-0.4525,5.0509-0.6787c-0.3319,0.0424-0.6452,0.0482-0.9786,0.0201
			c1.6837,0.2262,3.3673,0.4525,5.051,0.6787c-0.3301-0.0501-0.637-0.1277-0.9518-0.2389c1.5129,0.6385,3.0258,1.2769,4.5387,1.9154
			c-0.3877-0.1638-0.733-0.3609-1.0713-0.6102c1.2818,0.9903,2.5636,1.9806,3.8454,2.9709
			c-0.2572-0.2139-0.4831-0.4386-0.6975-0.6954c0.9903,1.2818,1.9806,2.5636,2.9709,3.8454
			c-0.1973-0.269-0.3581-0.5394-0.4982-0.8421c0.6385,1.5129,1.2769,3.0258,1.9154,4.5387
			c-0.0901-0.2371-0.1565-0.4594-0.2109-0.7071c-0.5878-2.4725-1.7214-4.6263-3.4008-6.4614
			c-1.3397-2.0684-3.1167-3.6996-5.3308-4.8936c-2.1809-1.3885-4.5356-2.14-7.0642-2.2547
			c-2.5255-0.5656-5.051-0.4525-7.5764,0.3393c-1.5129,0.6385-3.0258,1.2769-4.5387,1.9154
			c-2.8551,1.6891-5.1272,3.9612-6.8163,6.8163c-0.6385,1.5129-1.2769,3.0258-1.9154,4.5387
			C56.1119,36.2734,56.1119,39.6408,57.0169,43.0081L57.0169,43.0081z"/>
	</g>
</g>
<g>
	<g>
		<path style="fill:#DADBDC;" d="M86.1538,57.4615c9.9385,0,19.4596-8.7391,19-19c-0.4611-10.2942-8.3483-19-19-19
			c-9.9385,0-19.4596,8.7391-19,19C67.6149,48.7558,75.5021,57.4615,86.1538,57.4615L86.1538,57.4615z"/>
	</g>
</g>
<g>
	<g>
		<path style="fill:#DADBDC;" d="M108.2051,67.7179c9.9385,0,19.4596-8.7391,19-19c-0.4611-10.2942-8.3483-19-19-19
			c-9.9385,0-19.4596,8.7391-19,19C89.6662,59.0122,97.5534,67.7179,108.2051,67.7179L108.2051,67.7179z"/>
	</g>
</g>
<g>
	<g>
		<path style="fill:#DADBDC;" d="M80,71.3077c9.9385,0,19.4596-8.7391,19-19c-0.4611-10.2942-8.3483-19-19-19
			c-9.9385,0-19.4596,8.7391-19,19C61.4611,62.6019,69.3483,71.3077,80,71.3077L80,71.3077z"/>
	</g>
</g>
<g>
	<g>
		<path style="fill:#DADBDC;" d="M61.5385,77.9744c9.9385,0,19.4596-8.7391,19-19c-0.4611-10.2942-8.3483-19-19-19
			c-9.9385,0-19.4596,8.7391-19,19C42.9995,69.2686,50.8867,77.9744,61.5385,77.9744L61.5385,77.9744z"/>
	</g>
</g>
<g>
	<g>
		<path style="fill:#DADBDC;" d="M42.5641,79c9.9385,0,19.4596-8.7391,19-19c-0.4611-10.2942-8.3483-19-19-19
			c-9.9385,0-19.4596,8.7391-19,19C24.0252,70.2942,31.9124,79,42.5641,79L42.5641,79z"/>
	</g>
</g>
<g>
	<g>
		<path style="fill:#DADBDC;" d="M24.1026,78.5513c8.6308,0,16.8991-7.5893,16.5-16.5c-0.4004-8.9397-7.2498-16.5-16.5-16.5
			c-8.6308,0-16.8991,7.5893-16.5,16.5C8.003,70.991,14.8524,78.5513,24.1026,78.5513L24.1026,78.5513z"/>
	</g>
</g>
<g>
	<g>
		<path style="fill:#DADBDC;" d="M97.4359,79.5769c8.6308,0,16.8991-7.5892,16.5-16.5c-0.4004-8.9397-7.2498-16.5-16.5-16.5
			c-8.6308,0-16.8991,7.5892-16.5,16.5C81.3363,72.0167,88.1857,79.5769,97.4359,79.5769L97.4359,79.5769z"/>
	</g>
</g>
<g>
	<g>
		<path style="fill:#DADBDC;" d="M73.8462,80.0897c8.6308,0,16.8991-7.5892,16.5-16.5c-0.4004-8.9397-7.2498-16.5-16.5-16.5
			c-8.6308,0-16.8991,7.5892-16.5,16.5C57.7466,72.5295,64.596,80.0897,73.8462,80.0897L73.8462,80.0897z"/>
	</g>
</g>
<g>
	<g>
		<path style="fill:#DADBDC;" d="M123.7125,75.7857c0.3419-0.1709,0.6838-0.3419,1.0256-0.5128
			c1.9228-1.0369,3.466-2.4534,4.6294-4.2497c1.4584-1.5936,2.4428-3.464,2.9533-5.6112c0.6876-2.1932,0.7859-4.3864,0.2947-6.5795
			c-0.0996-2.1959-0.7523-4.2408-1.958-6.1347c-0.86-1.1131-1.72-2.2263-2.58-3.3394c-2.0588-2.0449-4.4857-3.4594-7.2809-4.2433
			c-1.4621-0.1965-2.9242-0.3929-4.3864-0.5894c-2.9784,0.0093-5.7543,0.7602-8.3279,2.2527
			c-0.3419,0.1709-0.6838,0.3419-1.0256,0.5128c-1.9228,1.0369-3.466,2.4534-4.6294,4.2497
			c-1.4584,1.5936-2.4428,3.464-2.9533,5.6112c-0.6876,2.1932-0.7859,4.3864-0.2947,6.5795
			c0.0996,2.1959,0.7523,4.2408,1.958,6.1347c0.86,1.1131,1.72,2.2263,2.58,3.3394c2.0588,2.0449,4.4857,3.4594,7.2809,4.2433
			c1.4621,0.1965,2.9242,0.3929,4.3864,0.5894C118.363,78.0292,121.139,77.2783,123.7125,75.7857L123.7125,75.7857z"/>
	</g>
</g>
<g>
	<g>
		<path style="fill:#DADBDC;" d="M131.7949,78.0385c0.1709,0,0.3419,0,0.5128,0c2.2717,0.0857,4.3907-0.388,6.3571-1.4211
			c2.0456-0.6654,3.8156-1.8027,5.3102-3.4117c1.609-1.4945,2.7462-3.2646,3.4117-5.3102c1.0331-1.9664,1.5068-4.0854,1.4211-6.3571
			c-0.1965-1.4621-0.3929-2.9242-0.5894-4.3864c-0.7839-2.7952-2.1984-5.2221-4.2433-7.2809c-1.1131-0.86-2.2263-1.72-3.3394-2.58
			c-2.5735-1.4926-5.3495-2.2435-8.3279-2.2527c-0.1709,0-0.3419,0-0.5128,0c-2.2717-0.0857-4.3908,0.388-6.3571,1.4211
			c-2.0456,0.6654-3.8156,1.8027-5.3102,3.4117c-1.609,1.4945-2.7462,3.2646-3.4117,5.3102
			c-1.0331,1.9664-1.5068,4.0854-1.4211,6.3571c0.1965,1.4621,0.3929,2.9242,0.5894,4.3864
			c0.7839,2.7952,2.1984,5.2222,4.2433,7.2809c1.1131,0.86,2.2263,1.72,3.3394,2.58
			C126.0405,77.2783,128.8165,78.0292,131.7949,78.0385L131.7949,78.0385z"/>
	</g>
</g>
</svg>
